<svg xmlns="http://www.w3.org/2000/svg" xmlns:xlink="http://www.w3.org/1999/xlink" width="496.254" height="529.026" viewBox="0 0 496.254 529.026">
  <defs>
    <clipPath id="clip-path">
      <rect id="Rectangle_613" data-name="Rectangle 613" width="95.954" height="95.954" transform="translate(0 22.107) rotate(-13.32)" fill="#92e3a9" stroke="#263238" stroke-linecap="round" stroke-linejoin="round" stroke-width="1"/>
    </clipPath>
    <clipPath id="clip-path-2">
      <path id="Path_33600" data-name="Path 33600" d="M316.378,448.069c-23.329,5.524-56.387,10.718-76.323,13.648-10.428,1.521-17.281,2.419-17.281,2.419-8.84-16.2-24.782-81.381-24.782-81.381l93.373-22.106c.178.8.342,1.591.516,2.379C303.02,413.482,316.378,448.069,316.378,448.069Z" transform="translate(-197.992 -360.649)" fill="#fff" stroke="#263238" stroke-linecap="round" stroke-linejoin="round" stroke-width="1"/>
    </clipPath>
    <clipPath id="clip-path-3">
      <path id="Path_33618" data-name="Path 33618" d="M61.437,122.267,70.9,293.251l-3.486,14.058L62.4,293.72,52.935,122.738a2.142,2.142,0,0,1,2.024-2.261l4.217-.233A2.142,2.142,0,0,1,61.437,122.267Z" transform="translate(-52.932 -120.24)" fill="#92e3a9" stroke="#263238" stroke-linecap="round" stroke-linejoin="round" stroke-width="1"/>
    </clipPath>
  </defs>
  <g id="Group_20199" data-name="Group 20199" transform="translate(-34.93 -20.728)">
    <g id="Background_Simple" data-name="Background Simple" transform="translate(34.93 20.727)">
      <g id="Group_20125" data-name="Group 20125">
        <path id="Path_33594" data-name="Path 33594" d="M218.392,24.971C179.269,31.428,141.765,45.635,109.9,70.2c-46.354,35.731-72.067,89.15-74.75,147.244-1.77,38.346,7.387,75.736,18.447,112.147,14.229,46.842,23.41,100.2,53.122,140.235,46.254,62.327,135.662,88.585,210.429,77.431,48.306-7.206,99.347-34.641,114.2-84.224,5.5-18.358,8.182-38.083,17.586-55.048,11.268-20.328,31.707-32.2,47.222-48.751,19.169-20.447,26.892-45.919,31.667-72.865,10.45-58.97-3.821-121.453-38.279-170.37-35.96-51.05-89.309-78.431-149.879-89.21q-9.973-1.774-20.028-3.02C286.378,19.6,251.794,19.459,218.392,24.971Z" transform="translate(-34.93 -20.727)" fill="#c5eee5"/>
      </g>
    </g>
    <g id="Note" transform="translate(223.055 412.896)">
      <g id="Group_20131" data-name="Group 20131">
        <path id="Path_33596" data-name="Path 33596" d="M201.282,385.058l96.541-18.01s21.848,68.947,26.262,77.862l-2.332,5.414,1.455,9.058-95.924,21.827-7.691-6.065Z" transform="translate(-197.486 -359.665)" fill="rgba(0,0,0,0.7)" opacity="0.2"/>
        <g id="Group_20130" data-name="Group 20130">
          <g id="Group_20127" data-name="Group 20127" transform="translate(0)">
            <rect id="Rectangle_612" data-name="Rectangle 612" width="95.954" height="95.954" transform="translate(0 22.107) rotate(-13.32)" fill="#92e3a9"/>
            <g id="Group_20126" data-name="Group 20126" clip-path="url(#clip-path)">
              <path id="Path_33597" data-name="Path 33597" d="M296.415,382.476,311.905,447.9l-89.039,21.08c-10.732-26.85-18.937-60.654-18.937-60.654Z" transform="translate(-197.08 -357.294)" fill="rgba(0,0,0,0.7)" opacity="0.2"/>
            </g>
            <rect id="Rectangle_614" data-name="Rectangle 614" width="95.954" height="95.954" transform="translate(0 22.107) rotate(-13.32)" fill="none" stroke="#263238" stroke-linecap="round" stroke-linejoin="round" stroke-width="1"/>
          </g>
          <g id="Group_20129" data-name="Group 20129" transform="translate(0 0)">
            <path id="Path_33598" data-name="Path 33598" d="M316.378,448.069c-23.329,5.524-56.387,10.718-76.323,13.648-10.428,1.521-17.281,2.419-17.281,2.419-8.84-16.2-24.782-81.381-24.782-81.381l93.373-22.106c.178.8.342,1.591.516,2.379C303.02,413.482,316.378,448.069,316.378,448.069Z" transform="translate(-197.992 -360.649)" fill="#fff"/>
            <g id="Group_20128" data-name="Group 20128" clip-path="url(#clip-path-2)">
              <path id="Path_33599" data-name="Path 33599" d="M313.227,447.752C289.9,453.276,256.84,458.47,236.9,461.4c-14.973-9.959-18.585-19.723-18.4-29.025.2-11.062,48.352-.255,58.414-11.2,7.178-7.809,6.971-40.965,11.815-58.462C299.868,413.165,313.227,447.752,313.227,447.752Z" transform="translate(-194.841 -360.332)" fill="#92e3a9" opacity="0.4"/>
            </g>
            <path id="Path_33601" data-name="Path 33601" d="M316.378,448.069c-23.329,5.524-56.387,10.718-76.323,13.648-10.428,1.521-17.281,2.419-17.281,2.419-8.84-16.2-24.782-81.381-24.782-81.381l93.373-22.106c.178.8.342,1.591.516,2.379C303.02,413.482,316.378,448.069,316.378,448.069Z" transform="translate(-197.992 -360.649)" fill="none" stroke="#263238" stroke-linecap="round" stroke-linejoin="round" stroke-width="1"/>
          </g>
          <path id="Path_33602" data-name="Path 33602" d="M211.646,394.057a16.627,16.627,0,0,1,4.489-3.653l1.388,3.551,4.84-1.758c1.613-.586,3.406-1.341,4.024-2.942.888,2.11,3.95,1.754,6.13,1.052A337.69,337.69,0,0,1,278.67,378.97" transform="translate(-195.893 -357.833)" fill="none" stroke="#263238" stroke-linecap="round" stroke-linejoin="round" stroke-width="1"/>
          <path id="Path_33603" data-name="Path 33603" d="M213.742,405.395c-1.009-.519-.177-2.322.955-2.235a2.492,2.492,0,0,1,1.945,2.446,2.4,2.4,0,0,0,2.04-1.876l1.6,1.116a1.754,1.754,0,1,1,3.018-1.766c-.115-1.309.4-3.21,1.673-2.9a3.356,3.356,0,0,1,1.08.7,2.9,2.9,0,0,0,4.337-1.8c1.258,1.434,3.5,1.234,5.384.914l16.8-2.862c.153-1.058.688-2.425,1.747-2.28.616.084,1.014.682,1.552.995a3.609,3.609,0,0,0,2.576.092,146.51,146.51,0,0,0,22.2-6.678" transform="translate(-195.641 -356.251)" fill="none" stroke="#263238" stroke-linecap="round" stroke-linejoin="round" stroke-width="1"/>
          <path id="Path_33604" data-name="Path 33604" d="M218.7,418.276a15.067,15.067,0,0,0,6.62-.911,3.842,3.842,0,0,1,1.088-4.678l2.033,1.3a107.422,107.422,0,0,0,24.214-3.335c3.55-.91,7.051-2,10.552-3.093l19.913-6.209" transform="translate(-194.81 -354.393)" fill="none" stroke="#263238" stroke-linecap="round" stroke-linejoin="round" stroke-width="1"/>
        </g>
      </g>
    </g>
    <g id="Glasses" transform="translate(246.573 49.819)">
      <g id="Group_20133" data-name="Group 20133">
        <path id="Path_33605" data-name="Path 33605" d="M371.906,63.9l-1.854.115a3.612,3.612,0,0,1-3.894-2.63c-2.828-10.326-13.188-16.125-25.2-15.38-10.83.671-22.23,7.5-28.839,16.935a10.054,10.054,0,0,1-7.293,4.472l-9.218.571a5.908,5.908,0,0,1-6.013-3.646c-3.731-8.8-13.18-14.331-24.01-13.661-12.015.745-24.427,7.956-30.6,18.84a6.205,6.205,0,0,1-4.809,3.17l-1.854.114a2.036,2.036,0,0,0-1.777,1.668l-.733,4.641a1.2,1.2,0,0,0,.9,1.451l2.246.673a3.907,3.907,0,0,1,2.767,4.123c-.791,14.78,9.638,25.64,24.489,24.719,14.323-.887,27.944-12.439,32.394-26.694a7.357,7.357,0,0,1,5.039-4.8,26.186,26.186,0,0,1,9.728-.684,4.155,4.155,0,0,1,3.685,4.28c-.035,14.009,10.181,24.114,24.525,23.224,14.849-.92,28.948-13.3,32.851-28.273a6.941,6.941,0,0,1,4.135-4.551l2.5-.967a2.074,2.074,0,0,0,1.38-1.592l.733-4.643A1.2,1.2,0,0,0,371.906,63.9ZM256.829,106.159c-13.8.855-23.2-10.013-20.962-24.229s15.3-26.475,29.1-27.33,23.2,10.013,20.962,24.228S270.631,105.3,256.829,106.159ZM290.04,75.835q.083-1.213.065-2.389a1.377,1.377,0,0,1,1.232-1.313l16.52-1.024a.841.841,0,0,1,.839,1.185q-.389,1.187-.69,2.4C300.9,72.6,293.8,74.456,290.04,75.835ZM332.2,101.487c-13.8.856-23.2-10.013-20.961-24.228s15.3-26.476,29.1-27.331S363.542,59.941,361.3,74.156,346,100.632,332.2,101.487Z" transform="translate(-217.237 -45.944)" fill="rgba(0,0,0,0.7)" opacity="0.2"/>
        <path id="Path_33606" data-name="Path 33606" d="M360.037,64.023,254.178,78.046A18.019,18.019,0,0,0,241.7,85.7l-15.5,22.538a1.676,1.676,0,0,0,.781,2.515h0a4.954,4.954,0,0,0,5.854-1.817L247.159,88.12a10.888,10.888,0,0,1,7.439-4.607L360.427,68.521Z" transform="translate(-217.22 -43.165)" fill="#263238"/>
        <path id="Path_33607" data-name="Path 33607" d="M218.379,71.954l106.768-1.765a18.024,18.024,0,0,1,13.475,5.725l18.658,20a1.677,1.677,0,0,1-.4,2.6h0a4.955,4.955,0,0,1-6.059-.932L333.579,79.116a10.885,10.885,0,0,0-8.039-3.456l-106.881.8Z" transform="translate(-218.376 -42.217)" fill="#263238"/>
        <g id="Group_20132" data-name="Group 20132" transform="translate(57.626 35.082)">
          <path id="Path_33608" data-name="Path 33608" d="M275.416,77.622c1.314.249,1.252,9.2-1.717,12.268s-6.03-4.352-5.25-7S271.3,76.841,275.416,77.622Z" transform="translate(-268.325 -76.173)" fill="#92e3a9" stroke="#263238" stroke-linecap="round" stroke-linejoin="round" stroke-width="1"/>
          <path id="Path_33609" data-name="Path 33609" d="M290.616,76.65c-1.274.41-.107,9.282,3.218,11.963s5.448-5.064,4.346-7.595S294.607,75.366,290.616,76.65Z" transform="translate(-264.976 -76.351)" fill="#92e3a9" stroke="#263238" stroke-linecap="round" stroke-linejoin="round" stroke-width="1"/>
        </g>
        <path id="Path_33610" data-name="Path 33610" d="M234.294,60.5c5.585-4.776,17.4-12.913,30.351-5.177s17.419,16.13,14.757,27.54-10.808,26.618-30,23.961S216.95,75.334,234.294,60.5Z" transform="translate(-217.169 -44.993)" fill="#92e3a9" opacity="0.5"/>
        <path id="Path_33611" data-name="Path 33611" d="M299.72,57.3c5.584-4.776,17.4-12.913,30.351-5.177s17.419,16.13,14.757,27.54-10.808,26.618-30,23.962S282.376,72.135,299.72,57.3Z" transform="translate(-207.113 -45.485)" fill="#92e3a9" opacity="0.5"/>
        <path id="Path_33612" data-name="Path 33612" d="M363.4,64.913l-1.854.115a4.746,4.746,0,0,1-4.526-2.546C351.88,52.466,340.1,46.855,328.087,47.6c-10.83.67-20.882,7.318-25.5,16.49a7.755,7.755,0,0,1-6.409,4.353l-9.218.572a7.76,7.76,0,0,1-6.9-3.529c-5.719-8.53-16.515-13.886-27.345-13.215-12.014.745-23.009,7.767-26.871,18.342a4.745,4.745,0,0,1-4.178,3.085l-1.854.115a1.529,1.529,0,0,0-1.433,1.622l.279,4.508a1.529,1.529,0,0,0,1.231,1.406l2.425.648a5.065,5.065,0,0,1,3.711,4,28.891,28.891,0,0,0,57.224-2.021,5.412,5.412,0,0,1,4.052-4.667,26.379,26.379,0,0,1,9.711-.682,5.451,5.451,0,0,1,4.676,4.149,28.892,28.892,0,0,0,57.048-5,5.064,5.064,0,0,1,3.19-4.426l2.326-.943a1.531,1.531,0,0,0,1.049-1.548l-.279-4.506A1.532,1.532,0,0,0,363.4,64.913ZM256.054,106.137a25.078,25.078,0,1,1,23.478-26.581A25.1,25.1,0,0,1,256.054,106.137Zm26.989-29.492q-.183-1.179-.46-2.32a1.045,1.045,0,0,1,.961-1.277l16.519-1.024a1.046,1.046,0,0,1,1.111,1.149q-.132,1.153-.171,2.329A29.734,29.734,0,0,0,283.042,76.645Zm48.384,24.82A25.077,25.077,0,1,1,354.9,74.885,25.106,25.106,0,0,1,331.426,101.465Z" transform="translate(-218.376 -45.699)" fill="#757575" stroke="#263238" stroke-linecap="round" stroke-linejoin="round" stroke-width="1"/>
        <path id="Path_33613" data-name="Path 33613" d="M235.673,95.839s-9.242-12.209-2.718-26.4c5.87-12.767,19.633-14.219,26.122-11.482L244.85,82.724a86.3,86.3,0,0,1,5.884-17.591S238.2,77.811,235.673,95.839Z" transform="translate(-216.494 -44.275)" fill="#fff" opacity="0.4"/>
        <path id="Path_33614" data-name="Path 33614" d="M300.849,91.171s-9.242-12.209-2.718-26.4C304,52,317.763,50.55,324.253,53.289L310.025,78.056c1.072-8.9,5.885-17.591,5.885-17.591S303.372,73.143,300.849,91.171Z" transform="translate(-206.476 -44.993)" fill="#fff" opacity="0.4"/>
      </g>
    </g>
    <g id="Pen" transform="translate(55.699 135.536)">
      <g id="Group_20137" data-name="Group 20137">
        <path id="Path_33615" data-name="Path 33615" d="M66.9,295.752l3.351,15.031,3.817-17.014L64.022,123.788H57.176Z" transform="translate(-52.28 -119.695)" fill="rgba(0,0,0,0.7)" opacity="0.2"/>
        <g id="Group_20136" data-name="Group 20136">
          <g id="Group_20135" data-name="Group 20135">
            <path id="Path_33616" data-name="Path 33616" d="M61.437,122.267,70.9,293.251l-3.486,14.058L62.4,293.72,52.935,122.738a2.142,2.142,0,0,1,2.024-2.261l4.217-.233A2.142,2.142,0,0,1,61.437,122.267Z" transform="translate(-52.932 -120.24)" fill="#92e3a9"/>
            <g id="Group_20134" data-name="Group 20134" clip-path="url(#clip-path-3)">
              <path id="Path_33617" data-name="Path 33617" d="M67.412,307.281,62.4,293.693,52.935,122.711a2.142,2.142,0,0,1,2.024-2.261l.588-.032,9.531,172.239Z" transform="translate(-52.932 -120.213)" fill="rgba(0,0,0,0.7)" opacity="0.2"/>
            </g>
            <path id="Path_33619" data-name="Path 33619" d="M61.437,122.267,70.9,293.251l-3.486,14.058L62.4,293.72,52.935,122.738a2.142,2.142,0,0,1,2.024-2.261l4.217-.233A2.142,2.142,0,0,1,61.437,122.267Z" transform="translate(-52.932 -120.24)" fill="none" stroke="#263238" stroke-linecap="round" stroke-linejoin="round" stroke-width="1"/>
          </g>
          <path id="Path_33620" data-name="Path 33620" d="M55.34,122.954l9.288,167.851a1.458,1.458,0,0,0,1.536,1.374l1.013-.055" transform="translate(-52.562 -119.823)" fill="#92e3a9" stroke="#263238" stroke-linecap="round" stroke-linejoin="round" stroke-width="1"/>
        </g>
      </g>
    </g>
    <g id="Device" transform="translate(96.744 113.932)">
      <g id="Group_20192" data-name="Group 20192" transform="translate(0)">
        <path id="Path_33621" data-name="Path 33621" d="M91.788,330.4l31.277-204.352a23.967,23.967,0,0,1,27.317-20.064l300.327,45.967a23.967,23.967,0,0,1,20.064,27.316L439.5,383.617a23.967,23.967,0,0,1-27.316,20.065L111.852,357.714A23.967,23.967,0,0,1,91.788,330.4Z" transform="translate(-88.048 -100.871)" fill="rgba(0,0,0,0.7)" opacity="0.2"/>
        <g id="Group_20191" data-name="Group 20191">
          <path id="Rectangle_615" data-name="Rectangle 615" d="M.989,0H17a.989.989,0,0,1,.989.989v6.77a0,0,0,0,1,0,0H0a0,0,0,0,1,0,0V.989A.989.989,0,0,1,.989,0Z" transform="matrix(0.151, -0.988, 0.988, 0.151, 27.666, 34)" fill="#92e3a9" stroke="#263238" stroke-linecap="round" stroke-linejoin="round" stroke-width="1"/>
          <path id="Rectangle_616" data-name="Rectangle 616" d="M.989,0H17a.989.989,0,0,1,.989.989v6.77a0,0,0,0,1,0,0H0a0,0,0,0,1,0,0V.989A.989.989,0,0,1,.989,0Z" transform="matrix(0.988, 0.151, -0.151, 0.988, 67.379, 0)" fill="#92e3a9" stroke="#263238" stroke-linecap="round" stroke-linejoin="round" stroke-width="1"/>
          <path id="Rectangle_617" data-name="Rectangle 617" d="M.989,0H17a.989.989,0,0,1,.989.989v6.77a0,0,0,0,1,0,0H0a0,0,0,0,1,0,0V.989A.989.989,0,0,1,.989,0Z" transform="translate(88.528 3.237) rotate(8.702)" fill="#92e3a9" stroke="#263238" stroke-linecap="round" stroke-linejoin="round" stroke-width="1"/>
          <path id="Path_33622" data-name="Path 33622" d="M88.788,326.4l31.277-204.352a23.967,23.967,0,0,1,27.317-20.064l300.327,45.967a23.967,23.967,0,0,1,20.064,27.316L436.5,379.617a23.967,23.967,0,0,1-27.316,20.065L108.852,353.714A23.967,23.967,0,0,1,88.788,326.4Z" transform="translate(-88.509 -101.486)" fill="#92e3a9" stroke="#263238" stroke-linecap="round" stroke-linejoin="round" stroke-width="1"/>
          <path id="Path_33623" data-name="Path 33623" d="M410.019,396.816,108.138,350.61a20.506,20.506,0,0,1-17.167-23.373L122.487,121.33a20.506,20.506,0,0,1,23.372-17.167L447.74,150.369a20.506,20.506,0,0,1,17.167,23.372L433.39,379.649A20.506,20.506,0,0,1,410.019,396.816Z" transform="translate(-88.167 -101.144)" fill="#757575" stroke="#263238" stroke-linecap="round" stroke-linejoin="round" stroke-width="1"/>
          <path id="Path_33624" data-name="Path 33624" d="M109.3,209.1a1.175,1.175,0,1,1-.984-1.339A1.175,1.175,0,0,1,109.3,209.1Z" transform="translate(-85.672 -85.186)" fill="#999" stroke="#263238" stroke-linecap="round" stroke-linejoin="round" stroke-width="1"/>
          <path id="Path_33625" data-name="Path 33625" d="M109.1,218.573a2.248,2.248,0,1,1-1.882-2.562A2.247,2.247,0,0,1,109.1,218.573Z" transform="translate(-86.03 -83.92)" fill="#263238"/>
          <path id="Path_33626" data-name="Path 33626" d="M112.535,196.163a2.248,2.248,0,1,1-1.882-2.562A2.247,2.247,0,0,1,112.535,196.163Z" transform="translate(-85.503 -87.364)" fill="#263238"/>
          <path id="Path_33627" data-name="Path 33627" d="M107.445,224.773a1.638,1.638,0,1,1-1.372-1.868A1.638,1.638,0,0,1,107.445,224.773Z" transform="translate(-86.099 -82.859)" fill="#263238"/>
          <path id="Path_33628" data-name="Path 33628" d="M456.306,169.163,424.083,379.737a10.133,10.133,0,0,1-11.537,8.48l-252.9-38.707-5.48-.842-20.617-3.161-9.98-1.523-14.421-2.2L106,341.3a10.126,10.126,0,0,1-8.48-11.537L129.75,119.184a10.11,10.11,0,0,1,11.537-8.468l94.408,14.444,14.283,2.192,13.648,2.088,17.536,2.677,6.345.969,160.33,24.539A10.124,10.124,0,0,1,456.306,169.163Z" transform="translate(-87.143 -100.119)" fill="#263238"/>
          <g id="Group_20190" data-name="Group 20190" transform="translate(22.593 20.446)">
            <g id="Group_20161" data-name="Group 20161" transform="translate(0 135.684)">
              <g id="Group_20138" data-name="Group 20138" opacity="0.1">
                <path id="Path_33629" data-name="Path 33629" d="M217.6,328.154,110.354,311.739a2.667,2.667,0,0,1-2.231-3.037l10.652-69.6a2.668,2.668,0,0,1,3.038-2.231l107.244,16.414a2.669,2.669,0,0,1,2.231,3.039l-10.652,69.6A2.668,2.668,0,0,1,217.6,328.154Zm-95.925-90.362a1.739,1.739,0,0,0-1.977,1.454l-10.652,69.6a1.738,1.738,0,0,0,1.453,1.977l107.243,16.414a1.737,1.737,0,0,0,1.979-1.452l10.652-69.6a1.738,1.738,0,0,0-1.453-1.979Z" transform="translate(-108.092 -236.843)" fill="#fff"/>
              </g>
              <g id="Group_20139" data-name="Group 20139" transform="translate(16.74 14.808)">
                <path id="Path_33630" data-name="Path 33630" d="M147.9,276.363l24.019,13.622a28.34,28.34,0,0,0-1.774-29.961Z" transform="translate(-118.714 -248.089)" fill="#92e3a9" opacity="0.4"/>
                <path id="Path_33631" data-name="Path 33631" d="M148.1,276.309l21.464-15.765a28.291,28.291,0,0,0-11.112-8.781l-4.229,10.03Z" transform="translate(-118.683 -249.358)" fill="#92e3a9" opacity="0.6"/>
                <path id="Path_33632" data-name="Path 33632" d="M151.766,250.029l-3.717,24.29,9.55-22.648A28.357,28.357,0,0,0,151.766,250.029Z" transform="translate(-118.691 -249.625)" fill="#92e3a9"/>
                <path id="Path_33633" data-name="Path 33633" d="M150.515,277.669l4.243-27.727a28.318,28.318,0,0,0-30.333,38.045Z" transform="translate(-122.602 -249.679)" fill="#fff" opacity="0.1"/>
                <path id="Path_33634" data-name="Path 33634" d="M146.36,302.164a28.333,28.333,0,0,0,28.695-13.625L150.61,274.676l-26.137,10.336A28.316,28.316,0,0,0,146.36,302.164Z" transform="translate(-122.315 -245.837)" fill="#92e3a9" opacity="0.2"/>
              </g>
              <g id="Group_20160" data-name="Group 20160" transform="translate(78.664 25.839)">
                <g id="Group_20143" data-name="Group 20143" transform="translate(6.328)">
                  <rect id="Rectangle_618" data-name="Rectangle 618" width="4.669" height="4.669" rx="0.626" transform="matrix(0.988, 0.151, -0.151, 0.988, 0.706, 0)" fill="#92e3a9"/>
                  <g id="Group_20142" data-name="Group 20142" transform="translate(7.192 1.773)">
                    <g id="Group_20140" data-name="Group 20140" transform="translate(0.353)">
                      <path id="Path_33635" data-name="Path 33635" d="M202.659,263.972l-13.9-2.129a.536.536,0,0,1,.163-1.06l13.9,2.129a.536.536,0,1,1-.163,1.06Z" transform="translate(-188.301 -260.777)" fill="#92e3a9"/>
                    </g>
                    <g id="Group_20141" data-name="Group 20141" transform="translate(0 2.307)">
                      <path id="Path_33636" data-name="Path 33636" d="M198.111,265.322l-9.661-1.479a.536.536,0,0,1,.163-1.06l9.661,1.479a.536.536,0,0,1-.163,1.06Z" transform="translate(-187.995 -262.777)" fill="#92e3a9"/>
                    </g>
                  </g>
                </g>
                <g id="Group_20147" data-name="Group 20147" transform="translate(4.746 10.336)">
                  <rect id="Rectangle_619" data-name="Rectangle 619" width="4.669" height="4.669" rx="0.626" transform="translate(0.706 0) rotate(8.702)" fill="#92e3a9" opacity="0.6"/>
                  <g id="Group_20146" data-name="Group 20146" transform="translate(7.192 1.773)">
                    <g id="Group_20144" data-name="Group 20144" transform="translate(0.353)">
                      <path id="Path_33637" data-name="Path 33637" d="M201.288,272.931l-13.9-2.129a.536.536,0,0,1,.163-1.06l13.9,2.129a.536.536,0,0,1-.163,1.06Z" transform="translate(-186.93 -269.736)" fill="#92e3a9"/>
                    </g>
                    <g id="Group_20145" data-name="Group 20145" transform="translate(0 2.307)">
                      <path id="Path_33638" data-name="Path 33638" d="M196.74,274.281l-9.661-1.479a.536.536,0,1,1,.163-1.06l9.661,1.479a.536.536,0,1,1-.163,1.06Z" transform="translate(-186.624 -271.736)" fill="#92e3a9"/>
                    </g>
                  </g>
                </g>
                <g id="Group_20151" data-name="Group 20151" transform="translate(3.164 20.672)">
                  <rect id="Rectangle_620" data-name="Rectangle 620" width="4.669" height="4.669" rx="0.626" transform="matrix(0.988, 0.151, -0.151, 0.988, 0.706, 0)" fill="#92e3a9" opacity="0.4"/>
                  <g id="Group_20150" data-name="Group 20150" transform="translate(7.192 1.773)">
                    <g id="Group_20148" data-name="Group 20148" transform="translate(0.354)">
                      <path id="Path_33639" data-name="Path 33639" d="M199.917,281.89l-13.9-2.129a.536.536,0,0,1,.163-1.06l13.9,2.129a.536.536,0,1,1-.163,1.06Z" transform="translate(-185.559 -278.695)" fill="#92e3a9"/>
                    </g>
                    <g id="Group_20149" data-name="Group 20149" transform="translate(0 2.307)">
                      <path id="Path_33640" data-name="Path 33640" d="M195.369,283.24l-9.661-1.478a.537.537,0,1,1,.162-1.061l9.661,1.479a.536.536,0,1,1-.162,1.06Z" transform="translate(-185.252 -280.695)" fill="#92e3a9"/>
                    </g>
                  </g>
                </g>
                <g id="Group_20155" data-name="Group 20155" transform="translate(1.582 31.008)">
                  <rect id="Rectangle_621" data-name="Rectangle 621" width="4.669" height="4.669" rx="0.626" transform="translate(0.706) rotate(8.702)" fill="#92e3a9" opacity="0.2"/>
                  <g id="Group_20154" data-name="Group 20154" transform="translate(7.192 1.773)">
                    <g id="Group_20152" data-name="Group 20152" transform="translate(0.353)">
                      <path id="Path_33641" data-name="Path 33641" d="M198.546,290.849l-13.9-2.129a.536.536,0,1,1,.162-1.06l13.9,2.129a.536.536,0,1,1-.162,1.06Z" transform="translate(-184.187 -287.654)" fill="#92e3a9"/>
                    </g>
                    <g id="Group_20153" data-name="Group 20153" transform="translate(0 2.307)">
                      <path id="Path_33642" data-name="Path 33642" d="M194,292.2l-9.662-1.479a.536.536,0,0,1,.163-1.06l9.661,1.479A.536.536,0,0,1,194,292.2Z" transform="translate(-183.881 -289.654)" fill="#92e3a9"/>
                    </g>
                  </g>
                </g>
                <g id="Group_20159" data-name="Group 20159" transform="translate(0 41.344)">
                  <rect id="Rectangle_622" data-name="Rectangle 622" width="4.669" height="4.669" rx="0.626" transform="translate(0.706) rotate(8.702)" fill="#fff" opacity="0.1"/>
                  <g id="Group_20158" data-name="Group 20158" transform="translate(7.192 1.773)">
                    <g id="Group_20156" data-name="Group 20156" transform="translate(0.353)">
                      <path id="Path_33643" data-name="Path 33643" d="M197.174,299.808l-13.9-2.127a.537.537,0,0,1,.163-1.061l13.9,2.129a.536.536,0,1,1-.163,1.06Z" transform="translate(-182.816 -296.613)" fill="#92e3a9"/>
                    </g>
                    <g id="Group_20157" data-name="Group 20157" transform="translate(0 2.307)">
                      <path id="Path_33644" data-name="Path 33644" d="M192.626,301.158l-9.661-1.478a.537.537,0,0,1,.163-1.061l9.661,1.479a.536.536,0,0,1-.163,1.06Z" transform="translate(-182.51 -298.613)" fill="#92e3a9"/>
                    </g>
                  </g>
                </g>
              </g>
            </g>
            <g id="Group_20162" data-name="Group 20162" transform="translate(123.501 154.586)" opacity="0.1">
              <path id="Path_33645" data-name="Path 33645" d="M403.215,279.944,228.863,253.258a2.666,2.666,0,0,0-3.04,2.226l-.735,4.8-.141.92-.99,6.472-.141.919-.99,6.462-.141.919-.989,6.462-.141.919-.991,6.472-.141.919-.989,6.462-.141.919-.989,6.462-.141.92-.991,6.472-.141.92-.989,6.462-.141.919-.735,4.8a2.675,2.675,0,0,0,2.235,3.042l174.351,26.686a2.667,2.667,0,0,0,3.033-2.236l.734-4.8.141-.919.99-6.463.141-.92.99-6.471.141-.919.99-6.462.141-.919.989-6.463.141-.919.99-6.471.141-.919.99-6.463.141-.918.989-6.463.141-.919.991-6.471.141-.92.734-4.8A2.659,2.659,0,0,0,403.215,279.944Zm-9.345,72.49a1.74,1.74,0,0,1-1.973,1.457L217.546,327.206a1.743,1.743,0,0,1-1.456-1.983l.735-4.8L394.6,347.636Zm.875-5.718L216.965,319.505l.989-6.462,177.78,27.21Zm1.131-7.383-177.78-27.21.99-6.472,177.78,27.211Zm1.131-7.391-177.78-27.21.99-6.463L398,325.481Zm1.131-7.381L220.356,297.35l.989-6.462,177.78,27.21Zm1.129-7.383-177.78-27.21.991-6.472,177.78,27.211Zm1.132-7.391-177.78-27.211.989-6.462,177.78,27.21Zm1.129-7.381L223.747,275.2l.989-6.463,177.78,27.211Zm1.129-7.383-177.78-27.21.991-6.472,177.78,27.211Zm-176.648-34.6.735-4.8a1.733,1.733,0,0,1,1.98-1.447l174.351,26.686a1.731,1.731,0,0,1,1.448,1.972l-.734,4.8Z" transform="translate(-215.139 -253.227)" fill="#fff"/>
            </g>
            <g id="Group_20165" data-name="Group 20165" transform="translate(12.947)">
              <g id="Group_20163" data-name="Group 20163" transform="translate(0 11.577)" opacity="0.1">
                <path id="Path_33646" data-name="Path 33646" d="M436.571,174.781,139.463,129.306A3.045,3.045,0,0,0,136,131.851L119.35,240.617a3.045,3.045,0,0,0,2.546,3.466L419,289.558a3.043,3.043,0,0,0,3.465-2.545l16.648-108.767A3.043,3.043,0,0,0,436.571,174.781Zm-242.323,15.64,20.666,3.163-1.8,11.731-20.666-3.162Zm-2.715,11.591-20.666-3.163,1.8-11.732,20.666,3.163Zm24.3-8.287,20.666,3.163-1.8,11.731-20.667-3.163Zm107.15,15.46-20.667-3.163,1.8-11.732,20.666,3.163Zm2.715-11.591,20.666,3.163-1.8,11.731L323.9,209.325Zm-66.693,2.739,20.666,3.163-1.8,11.732-20.666-3.163Zm-2.715,11.591-20.667-3.163,1.8-11.731,20.666,3.162Zm24.3-8.287,20.666,3.163-1.8,11.731L278.8,215.369Zm21.585,3.3,20.667,3.162-1.8,11.732-20.666-3.163Zm-.778-1.06-20.666-3.163,1.8-11.731,20.666,3.162Zm-21.586-3.3-20.666-3.163,1.8-11.731,20.666,3.162Zm-21.586-3.3-20.666-3.163,1.8-11.732,20.666,3.163Zm-21.586-3.3-20.666-3.163,1.8-11.732,20.666,3.163Zm-2.077,13.57-1.8,11.732L212.1,218.107l1.8-11.732Zm.92.141,20.666,3.163-1.8,11.731-20.666-3.162Zm21.585,3.3,20.666,3.162-1.8,11.732-20.666-3.163Zm21.586,3.3,20.666,3.163-1.8,11.732-20.666-3.163Zm21.586,3.3,20.666,3.163-1.8,11.732-20.666-3.163Zm21.586,3.3,20.666,3.163-1.8,11.731-20.665-3.162Zm.141-.919,1.8-11.732,20.665,3.163-1.8,11.732Zm23.381-8.428,20.666,3.163-1.8,11.731-20.666-3.162Zm21.586,3.3,20.666,3.163-1.8,11.731-20.666-3.163Zm.141-.92,1.8-11.732,20.665,3.163-1.8,11.732Zm-.919-.141-20.666-3.163,1.8-11.731,20.667,3.162Zm-18.73-15.814,1.8-11.731,20.666,3.162-1.8,11.732Zm-.918-.141-20.666-3.163,1.8-11.731,20.666,3.163Zm-21.586-3.3-20.666-3.163,1.8-11.731,20.666,3.163Zm-21.586-3.3-20.666-3.162,1.8-11.732L305.13,181.5Zm-21.586-3.3-20.666-3.163,1.8-11.731,20.666,3.162Zm-21.586-3.3L239.5,183.458l1.8-11.731,20.666,3.163Zm-21.586-3.3-20.666-3.162,1.8-11.732,20.667,3.163Zm-21.586-3.3-20.666-3.162,1.8-11.732,20.667,3.163Zm-.141.92-1.8,11.732L194.389,189.5l1.8-11.731Zm-23.381,8.428L172.8,186.2l1.8-11.732,20.666,3.163Zm-21.586-3.3-20.666-3.163,1.8-11.732,20.666,3.163Zm-.141.918-1.8,11.732-20.666-3.163,1.8-11.731Zm-1.936,12.652-1.8,11.731L147.344,208.2l1.8-11.732Zm.919.141,20.666,3.163-1.8,11.731L168.93,211.5Zm21.585,3.3,20.666,3.163-1.8,11.732L190.516,214.8Zm18.73,15.815-1.8,11.731-20.666-3.162,1.8-11.732Zm.919.141,20.666,3.162-1.8,11.732-20.666-3.163Zm21.586,3.3,20.666,3.163-1.8,11.732-20.666-3.163Zm21.586,3.3L275.8,228.8,274,240.53l-20.666-3.163Zm21.586,3.3,20.666,3.163-1.8,11.731-20.666-3.163Zm21.586,3.3,20.666,3.162-1.8,11.732-20.667-3.163Zm21.586,3.3,20.666,3.163-1.8,11.732-20.666-3.163Zm21.585,3.3,20.667,3.163-1.8,11.732-20.666-3.163Zm.141-.92,1.8-11.732,20.666,3.163-1.8,11.732ZM365,229.5l20.666,3.163-1.8,11.732L363.2,241.235Zm21.585,3.3,20.667,3.163-1.8,11.731-20.666-3.162Zm.141-.92,1.8-11.732,20.666,3.163-1.8,11.732Zm1.937-12.65,1.8-11.732,20.667,3.163-1.8,11.732Zm1.936-12.652,1.8-11.731,20.667,3.163-1.8,11.731Zm-.919-.141-20.665-3.162,1.8-11.732,20.666,3.163Zm-18.729-15.813,1.8-11.732,20.666,3.162-1.8,11.732Zm-.919-.142-20.666-3.162,1.8-11.732,20.667,3.163Zm-21.586-3.3-20.666-3.163,1.8-11.732,20.665,3.163Zm-21.586-3.3-20.666-3.163,1.8-11.731,20.667,3.163Zm-21.586-3.3L284.6,177.416l1.8-11.732,20.666,3.163Zm-21.586-3.3-20.666-3.163,1.8-11.732,20.666,3.163Zm-21.585-3.3-20.666-3.163,1.8-11.732,20.666,3.163Zm-21.586-3.3L219.847,167.5l1.8-11.731,20.666,3.163Zm-21.587-3.3L198.261,164.2l1.8-11.732,20.666,3.163Zm-21.585-3.3L176.676,160.9l1.8-11.732,20.666,3.163Zm-.141.918-1.8,11.732-20.666-3.163,1.8-11.731Zm-23.382,8.428-20.666-3.163,1.8-11.731,20.666,3.163Zm-21.585-3.3-20.666-3.162,1.8-11.732,20.666,3.163Zm-.141.919-1.8,11.732-20.666-3.163,1.8-11.732Zm-1.937,12.652-1.8,11.731L127.7,192.241l1.8-11.732Zm-1.936,12.65-1.8,11.732-20.666-3.163,1.8-11.732Zm-1.936,12.652-1.8,11.731-20.666-3.162,1.8-11.732Zm.918.14,20.666,3.163-1.8,11.732-20.666-3.163Zm21.586,3.3,20.666,3.163-1.8,11.732-20.666-3.163Zm18.73,15.814-1.8,11.732L165.057,236.8l1.8-11.731Zm.92.141,20.666,3.163-1.8,11.732-20.666-3.163Zm21.586,3.3,20.666,3.163-1.8,11.732-20.667-3.163Zm21.586,3.3,20.666,3.163-1.8,11.731-20.666-3.162Zm21.586,3.3,20.666,3.162-1.8,11.732L251.4,250.017Zm21.585,3.3,20.666,3.163-1.8,11.732-20.666-3.163Zm21.586,3.3,20.667,3.163-1.8,11.732-20.666-3.163Zm21.587,3.3,20.665,3.163-1.8,11.731-20.666-3.163Zm21.585,3.3,20.666,3.162-1.8,11.732-20.666-3.163Zm21.586,3.3,20.666,3.163-1.8,11.732-20.665-3.163Zm.141-.919,1.8-11.731,20.665,3.162-1.8,11.732Zm23.381-8.428,20.666,3.163-1.8,11.732-20.666-3.163Zm21.586,3.3,20.666,3.163-1.8,11.731-20.665-3.162Zm.141-.919,1.8-11.731,20.665,3.162-1.8,11.732Zm1.937-12.65,1.8-11.732,20.666,3.163-1.8,11.732Zm1.936-12.652,1.8-11.731,20.666,3.163-1.8,11.731Zm1.936-12.65,1.8-11.731,20.665,3.162-1.8,11.732Zm1.937-12.65,1.8-11.732,20.666,3.163-1.8,11.732Zm-.919-.141-20.667-3.163,1.8-11.732,20.666,3.163Zm-18.73-15.814,1.8-11.732,20.667,3.163-1.8,11.731Zm-.919-.141-20.666-3.163,1.8-11.732,20.665,3.163Zm-21.586-3.3L351.3,174.676l1.8-11.731,20.667,3.162Zm-21.586-3.3-20.665-3.162,1.8-11.732,20.666,3.163Zm-21.585-3.3-20.667-3.163,1.8-11.732,20.666,3.163Zm-21.586-3.3-20.666-3.163,1.8-11.731L309,156.2Zm-21.586-3.3-20.666-3.163,1.8-11.731,20.666,3.163Zm-21.586-3.3-20.666-3.163,1.8-11.732,20.666,3.163Zm-21.586-3.3-20.666-3.163,1.8-11.732,20.666,3.163Zm-21.586-3.3L200.2,151.549l1.8-11.731,20.666,3.162Zm-21.586-3.3-20.666-3.163,1.8-11.731,20.666,3.163Zm-21.586-3.3-20.666-3.163,1.8-11.732,20.666,3.163Zm-.141.918-1.8,11.732-20.666-3.163,1.8-11.731Zm-23.381,8.428L133.5,154.289l1.8-11.732,20.666,3.163Zm-30.489,61.01,20.666,3.163-1.8,11.732-20.666-3.163Zm21.586,3.3,20.666,3.163-1.8,11.731L143.472,233.5ZM164,237.58l-1.8,11.732-20.666-3.163,1.8-11.732Zm.919.141,20.666,3.163-1.8,11.731-20.666-3.163Zm21.585,3.3,20.666,3.163-1.8,11.731-20.666-3.163Zm21.586,3.3,20.667,3.162-1.8,11.732-20.666-3.163Zm21.586,3.3L250.34,250.8l-1.8,11.731-20.666-3.162Zm21.586,3.3,20.666,3.163-1.8,11.731-20.666-3.163Zm21.586,3.3,20.666,3.163-1.8,11.731-20.666-3.163Zm21.586,3.3,20.666,3.163-1.8,11.732-20.666-3.163Zm21.586,3.3,20.666,3.163-1.8,11.731-20.665-3.162Zm21.586,3.3,20.666,3.163-1.8,11.731-20.667-3.163Zm21.586,3.3,20.665,3.162-1.8,11.732-20.665-3.163Zm21.585,3.3,20.667,3.163-1.8,11.731-20.666-3.162Zm.141-.919,1.8-11.731,20.666,3.163L401.582,273Zm23.382-8.427,20.666,3.162-1.8,11.732L402.5,273.144Zm33.9-83.307-1.476,9.645-20.666-3.163,1.8-11.731,18.58,2.844A2.112,2.112,0,0,1,438.2,178.106ZM139.323,130.225l18.58,2.844-1.8,11.732-20.666-3.163,1.477-9.646A2.114,2.114,0,0,1,139.323,130.225ZM120.269,240.758l1.477-9.645,20.666,3.163-1.8,11.731-18.582-2.844A2.114,2.114,0,0,1,120.269,240.758Zm298.875,47.88-18.58-2.844,1.8-11.731,20.665,3.163-1.476,9.645A2.112,2.112,0,0,1,419.144,288.638Z" transform="translate(-119.315 -129.271)" fill="#fff"/>
              </g>
              <g id="Group_20164" data-name="Group 20164" transform="translate(0.934 55.543)">
                <path id="Path_33647" data-name="Path 33647" d="M426.631,246.987,421.424,281a2.018,2.018,0,0,1-2.309,1.689l-297.277-45.5a2.017,2.017,0,0,1-1.69-2.3l.7-4.55s13.973-11.259,22.715-9.921c10.333,1.582,12.164,7.44,21.356,8.848s19.341-19.958,27.669-18.683c4.505.689,5.658,4.159,7.872,7.339a11.925,11.925,0,0,0,8.537,5.381c.108.025.228.044.338.061,11.307,1.731,26.61-58.294,42.164-55.913,6.876,1.052,9.655,14.3,11.717,28.926,2.618,18.484,4.1,39.173,11.306,40.276,12.9,1.974,17.278-24.187,29.275-22.351,7.537,1.154,10.283,15.122,16.625,26.178,3.748,6.548,8.773,12.078,16.808,13.308,7.3,1.117,12.179-.583,15.973-3.248,7.438-5.2,10.764-14.082,20.068-12.658,5.505.842,7.518,5.092,9.568,9.095,1.788,3.5,3.615,6.809,7.862,7.459,4.991.765,9.247-6.383,13.756-12.73,3.706-5.219,7.573-9.9,12.169-9.193,4.7.719,7.467,6.356,8.864,10.379A34.325,34.325,0,0,1,426.631,246.987Z" transform="translate(-120.125 -167.379)" fill="#92e3a9" opacity="0.5"/>
                <path id="Path_33648" data-name="Path 33648" d="M433.784,196.79l-12.36,80.749a2.018,2.018,0,0,1-2.309,1.689l-297.277-45.5a2.017,2.017,0,0,1-1.69-2.3l.7-4.55c12.346,1.89,18.935-7.348,27.217-6.08s12.572,7.051,20.331,8.239,19.709-16.956,28.194-15.658a16.415,16.415,0,0,1,3.871,1.082c3.263,1.365,5.514,3.563,8.537,5.381a20.648,20.648,0,0,0,7.768,2.787c9.937,1.522,29.816-34.432,41.335-32.669a8.679,8.679,0,0,1,5.117,2.956c6.8,7.421,8.557,25.969,18.164,27.44,11.637,1.781,17.866-17.154,29.155-15.427s14.623,21.187,27.714,23.191,27.253-33.73,40.831-31.652S396.539,216.9,408.34,218.7C421.269,220.681,433.784,196.79,433.784,196.79Z" transform="translate(-120.125 -163.918)" fill="#92e3a9" opacity="0.5"/>
                <path id="Path_33649" data-name="Path 33649" d="M428.037,229.9l-6.613,43.206a2.018,2.018,0,0,1-2.309,1.689L121.838,229.3a2.017,2.017,0,0,1-1.69-2.3l.34-2.224c.43-.414,7.425-7.02,14.54-5.932,7.346,1.125,7.364,7.7,17.614,9.272s13.232-6.536,27.774-4.31,14.484,12.387,29.514,14.688,18.136-9.878,28.809-8.244,9.965,7.857,16.023,8.784,9.6-8.588,17.068-7.445S285,248.37,293.413,249.658c5.91.9,16.356-10.791,27.008-17.073,4.508-2.65,9.055-4.335,13.311-3.683,8.78,1.344,13.9,8.2,19.47,13.743,3.5,3.49,7.186,6.463,12.059,7.208,6.959,1.065,12.241-5.23,17.577-10.772,4.341-4.511,8.709-8.527,14.033-7.713a21.711,21.711,0,0,1,7.586,2.441c4.591,2.583,5.826,6.066,11.351,6.912C422.47,241.741,428.037,229.9,428.037,229.9Z" transform="translate(-120.125 -159.488)" fill="#92e3a9"/>
              </g>
              <path id="Path_33650" data-name="Path 33650" d="M154.5,127.336l-15.962-2.442a2.844,2.844,0,0,1-2.381-3.243h0a2.844,2.844,0,0,1,3.242-2.381l15.962,2.442a2.845,2.845,0,0,1,2.381,3.243h0A2.844,2.844,0,0,1,154.5,127.336Z" transform="translate(-116.732 -119.236)" fill="#92e3a9"/>
              <g id="Path_33651" data-name="Path 33651" transform="translate(-113.488 -118.74)" fill="none" stroke-miterlimit="10">
                <path d="M175.6,130.567l-15.962-2.444a2.844,2.844,0,0,1-2.381-3.242h0A2.844,2.844,0,0,1,160.5,122.5l15.962,2.444a2.843,2.843,0,0,1,2.381,3.242h0A2.845,2.845,0,0,1,175.6,130.567Z" stroke="none"/>
                <path d="M 176.0346832275391 129.6003875732422 C 176.9355010986328 129.6003875732422 177.7178955078125 128.9268035888672 177.8547058105469 128.0328674316406 C 177.9295349121094 127.5462875366211 177.8101196289063 127.0597381591797 177.5184783935547 126.6628189086914 C 177.2267456054688 126.2657470703125 176.7977447509766 126.0060119628906 176.3105163574219 125.9314422607422 L 160.3489990234375 123.487907409668 C 160.2552642822266 123.4735641479492 160.1601867675781 123.4662780761719 160.0664215087891 123.4662780761719 C 159.1657257080078 123.4662780761719 158.3835144042969 124.1398239135742 158.2469024658203 125.033088684082 C 158.0930480957031 126.0383682250977 158.7857055664063 126.9813766479492 159.7909851074219 127.1352386474609 L 175.7524566650391 129.5787963867188 C 175.8460998535156 129.5931243896484 175.9410552978516 129.6003875732422 176.0346832275391 129.6003875732422 M 176.0346832275391 130.6003875732422 C 175.8916168212891 130.6003875732422 175.7469482421875 130.5895843505859 175.6011657714844 130.5672760009766 L 159.6396484375 128.1237182617188 C 158.0867767333984 127.8860626220703 157.020751953125 126.4346923828125 157.2584075927734 124.8818130493164 C 157.4737548828125 123.473747253418 158.6855773925781 122.4662780761719 160.0664215087891 122.4662780761719 C 160.2095794677734 122.4662780761719 160.3544464111328 122.4770965576172 160.5003204345703 122.4994201660156 L 176.4618377685547 124.9429626464844 C 178.0147094726563 125.1806182861328 179.0818939208984 126.6319885253906 178.8430786132813 128.1848602294922 C 178.6277313232422 129.5919799804688 177.4156341552734 130.6003875732422 176.0346832275391 130.6003875732422 Z" stroke="none" fill="#92e3a9"/>
              </g>
              <g id="Path_33652" data-name="Path 33652" transform="translate(-110.244 -118.243)" fill="none" stroke-miterlimit="10">
                <path d="M196.706,133.8l-15.962-2.444a2.844,2.844,0,0,1-2.381-3.242h0a2.845,2.845,0,0,1,3.242-2.382l15.961,2.444a2.846,2.846,0,0,1,2.382,3.243h0A2.845,2.845,0,0,1,196.706,133.8Z" stroke="none"/>
                <path d="M 197.1400756835938 132.8303985595703 C 198.0414276123047 132.8303985595703 198.8241424560547 132.1573181152344 198.9607238769531 131.2648468017578 C 199.1145477294922 130.2589569091797 198.42138671875 129.3153839111328 197.4154968261719 129.1614379882813 L 181.4540405273438 126.717903137207 C 181.3603973388672 126.7035675048828 181.2654266357422 126.6963043212891 181.1717834472656 126.6963043212891 C 180.2709808349609 126.6963043212891 179.4886016845703 127.369873046875 179.3518981933594 128.2630767822266 C 179.1980438232422 129.2683563232422 179.8907165527344 130.2113647460938 180.89599609375 130.365234375 L 196.8574066162109 132.8087615966797 C 196.9512329101563 132.8231201171875 197.0463409423828 132.8303985595703 197.1400756835938 132.8303985595703 M 197.1400756835938 133.8303985595703 C 196.9969024658203 133.8303985595703 196.8520355224609 133.819580078125 196.7061614990234 133.7972564697266 L 180.7446594238281 131.3537139892578 C 179.1917724609375 131.1160430908203 178.1257476806641 129.6646881103516 178.3634033203125 128.1118011474609 C 178.5787658691406 126.7046966552734 179.7908020019531 125.6962966918945 181.1717834472656 125.6962966918945 C 181.3148498535156 125.6962966918945 181.4595642089844 125.7070999145508 181.6053314208984 125.7294082641602 L 197.5668182373047 128.1729583740234 C 199.1197204589844 128.4106140136719 200.1868896484375 129.8619842529297 199.9492340087891 131.416015625 C 199.7339019775391 132.8230285644531 198.5211029052734 133.8303985595703 197.1400756835938 133.8303985595703 Z" stroke="none" fill="#92e3a9"/>
              </g>
              <path id="Path_33653" data-name="Path 33653" d="M397.176,162.031l.19-1.247-.921-.223a2.573,2.573,0,0,0-.145-.594l.712-.624-.746-1.016-.808.493a2.59,2.59,0,0,0-.525-.316l.063-.946-1.247-.19-.223.921a2.6,2.6,0,0,0-.6.145l-.623-.712-1.016.746.493.808a2.591,2.591,0,0,0-.316.525l-.946-.062-.19,1.246.921.223a2.6,2.6,0,0,0,.145.6l-.712.624.746,1.015.808-.493a2.591,2.591,0,0,0,.525.316l-.063.946,1.247.19.223-.921a2.594,2.594,0,0,0,.6-.145l.624.712,1.015-.745-.493-.809a2.589,2.589,0,0,0,.316-.525Zm-3.549.3a1.465,1.465,0,1,1,1.671-1.226A1.465,1.465,0,0,1,393.627,162.333Z" transform="translate(-77.658 -113.375)" fill="#92e3a9"/>
            </g>
            <g id="Group_20189" data-name="Group 20189" transform="translate(130.37 181.242)">
              <g id="Group_20166" data-name="Group 20166" transform="translate(15.507 4.18)">
                <rect id="Rectangle_623" data-name="Rectangle 623" width="3.434" height="24.693" transform="translate(3.736) rotate(8.702)" fill="#92e3a9" opacity="0.2"/>
                <rect id="Rectangle_624" data-name="Rectangle 624" width="3.434" height="11.624" transform="translate(3.173 3.677) rotate(8.702)" fill="#92e3a9"/>
              </g>
              <g id="Group_20167" data-name="Group 20167" transform="translate(6.924 9.171)">
                <rect id="Rectangle_625" data-name="Rectangle 625" width="3.434" height="24.693" transform="matrix(0.988, 0.151, -0.151, 0.988, 3.736, 0)" fill="#92e3a9" opacity="0.2"/>
                <rect id="Rectangle_626" data-name="Rectangle 626" width="11.624" height="3.434" transform="translate(0.992 17.925) rotate(-81.298)" fill="#92e3a9"/>
              </g>
              <g id="Group_20168" data-name="Group 20168" transform="translate(0 3.319)">
                <rect id="Rectangle_627" data-name="Rectangle 627" width="3.434" height="24.693" transform="translate(3.736 0) rotate(8.702)" fill="#92e3a9" opacity="0.2"/>
                <rect id="Rectangle_628" data-name="Rectangle 628" width="3.434" height="11.624" transform="matrix(0.988, 0.151, -0.151, 0.988, 2.329, 9.193)" fill="#92e3a9"/>
              </g>
              <g id="Group_20169" data-name="Group 20169" transform="translate(22.409 10.172)">
                <rect id="Rectangle_629" data-name="Rectangle 629" width="3.434" height="24.693" transform="matrix(0.988, 0.151, -0.151, 0.988, 3.736, 0)" fill="#92e3a9" opacity="0.2"/>
                <rect id="Rectangle_630" data-name="Rectangle 630" width="3.434" height="11.624" transform="matrix(0.988, 0.151, -0.151, 0.988, 3.173, 3.677)" fill="#92e3a9"/>
              </g>
              <g id="Group_20170" data-name="Group 20170" transform="translate(31.155 4.121)">
                <rect id="Rectangle_631" data-name="Rectangle 631" width="3.434" height="24.693" transform="matrix(0.988, 0.151, -0.151, 0.988, 3.736, 0)" fill="#92e3a9" opacity="0.2"/>
                <rect id="Rectangle_632" data-name="Rectangle 632" width="3.434" height="11.624" transform="matrix(0.988, 0.151, -0.151, 0.988, 3.314, 2.758)" fill="#92e3a9"/>
              </g>
              <g id="Group_20171" data-name="Group 20171" transform="translate(37.831 11.592)">
                <rect id="Rectangle_633" data-name="Rectangle 633" width="3.434" height="24.693" transform="translate(3.736 0) rotate(8.702)" fill="#92e3a9" opacity="0.2"/>
                <rect id="Rectangle_634" data-name="Rectangle 634" width="3.434" height="11.624" transform="matrix(0.988, 0.151, -0.151, 0.988, 3.595, 0.919)" fill="#92e3a9"/>
              </g>
              <g id="Group_20172" data-name="Group 20172" transform="translate(47.424)">
                <rect id="Rectangle_635" data-name="Rectangle 635" width="3.434" height="24.693" transform="translate(3.736) rotate(8.702)" fill="#92e3a9" opacity="0.2"/>
                <rect id="Rectangle_636" data-name="Rectangle 636" width="3.434" height="11.624" transform="matrix(0.988, 0.151, -0.151, 0.988, 3.595, 0.919)" fill="#92e3a9"/>
              </g>
              <g id="Group_20173" data-name="Group 20173" transform="translate(52.712 16.541)">
                <rect id="Rectangle_637" data-name="Rectangle 637" width="3.434" height="24.693" transform="matrix(0.988, 0.151, -0.151, 0.988, 3.736, 0)" fill="#92e3a9" opacity="0.2"/>
                <rect id="Rectangle_638" data-name="Rectangle 638" width="3.434" height="11.624" transform="translate(3.173 3.677) rotate(8.702)" fill="#92e3a9"/>
              </g>
              <g id="Group_20174" data-name="Group 20174" transform="translate(60.134 19.134)">
                <rect id="Rectangle_639" data-name="Rectangle 639" width="3.434" height="24.693" transform="matrix(0.988, 0.151, -0.151, 0.988, 3.736, 0)" fill="#92e3a9" opacity="0.2"/>
                <rect id="Rectangle_640" data-name="Rectangle 640" width="3.434" height="11.624" transform="translate(2.329 9.193) rotate(8.702)" fill="#92e3a9"/>
              </g>
              <g id="Group_20175" data-name="Group 20175" transform="translate(70.119 4.985)">
                <rect id="Rectangle_641" data-name="Rectangle 641" width="3.434" height="24.693" transform="matrix(0.988, 0.151, -0.151, 0.988, 3.737, 0)" fill="#92e3a9" opacity="0.2"/>
                <rect id="Rectangle_642" data-name="Rectangle 642" width="3.434" height="11.624" transform="matrix(0.988, 0.151, -0.151, 0.988, 2.189, 10.112)" fill="#92e3a9"/>
              </g>
              <g id="Group_20176" data-name="Group 20176" transform="translate(76.118 16.882)">
                <rect id="Rectangle_643" data-name="Rectangle 643" width="3.434" height="24.693" transform="matrix(0.988, 0.151, -0.151, 0.988, 3.736, 0)" fill="#92e3a9" opacity="0.2"/>
                <rect id="Rectangle_644" data-name="Rectangle 644" width="3.434" height="11.624" transform="translate(3.032 4.596) rotate(8.702)" fill="#92e3a9"/>
              </g>
              <g id="Group_20177" data-name="Group 20177" transform="translate(84.733 11.683)">
                <rect id="Rectangle_645" data-name="Rectangle 645" width="3.434" height="24.693" transform="translate(3.736) rotate(8.702)" fill="#92e3a9" opacity="0.2"/>
                <rect id="Rectangle_646" data-name="Rectangle 646" width="3.434" height="11.624" transform="translate(3.173 3.677) rotate(8.702)" fill="#92e3a9"/>
              </g>
              <g id="Group_20178" data-name="Group 20178" transform="translate(94.05 1.893)">
                <rect id="Rectangle_647" data-name="Rectangle 647" width="3.434" height="24.693" transform="translate(3.736) rotate(8.702)" fill="#92e3a9" opacity="0.2"/>
                <rect id="Rectangle_648" data-name="Rectangle 648" width="3.434" height="11.624" transform="matrix(0.988, 0.151, -0.151, 0.988, 3.736, 0)" fill="#92e3a9"/>
              </g>
              <g id="Group_20179" data-name="Group 20179" transform="translate(99.324 18.522)">
                <rect id="Rectangle_649" data-name="Rectangle 649" width="3.434" height="24.693" transform="matrix(0.988, 0.151, -0.151, 0.988, 3.737, 0)" fill="#92e3a9" opacity="0.2"/>
                <rect id="Rectangle_650" data-name="Rectangle 650" width="3.434" height="11.624" transform="matrix(0.988, 0.151, -0.151, 0.988, 3.314, 2.758)" fill="#92e3a9"/>
              </g>
              <g id="Group_20180" data-name="Group 20180" transform="translate(105.323 30.418)">
                <rect id="Rectangle_651" data-name="Rectangle 651" width="3.434" height="24.693" transform="translate(3.736 0) rotate(8.702)" fill="#92e3a9" opacity="0.2"/>
                <rect id="Rectangle_652" data-name="Rectangle 652" width="3.434" height="11.624" transform="matrix(0.988, 0.151, -0.151, 0.988, 3.314, 2.758)" fill="#92e3a9"/>
              </g>
              <g id="Group_20181" data-name="Group 20181" transform="translate(114.941 18.668)">
                <rect id="Rectangle_653" data-name="Rectangle 653" width="3.434" height="24.693" transform="matrix(0.988, 0.151, -0.151, 0.988, 3.736, 0)" fill="#92e3a9" opacity="0.2"/>
                <rect id="Rectangle_654" data-name="Rectangle 654" width="3.434" height="11.624" transform="translate(2.329 9.193) rotate(8.704)" fill="#92e3a9"/>
              </g>
              <g id="Group_20182" data-name="Group 20182" transform="translate(124.693 6.04)">
                <rect id="Rectangle_655" data-name="Rectangle 655" width="3.434" height="24.693" transform="matrix(0.988, 0.151, -0.151, 0.988, 3.736, 0)" fill="#92e3a9" opacity="0.2"/>
                <rect id="Rectangle_656" data-name="Rectangle 656" width="3.434" height="11.624" transform="matrix(0.988, 0.151, -0.151, 0.988, 2.048, 11.031)" fill="#92e3a9"/>
              </g>
              <g id="Group_20183" data-name="Group 20183" transform="translate(130.222 21.007)">
                <rect id="Rectangle_657" data-name="Rectangle 657" width="3.434" height="24.693" transform="translate(3.736) rotate(8.702)" fill="#92e3a9" opacity="0.2"/>
                <rect id="Rectangle_658" data-name="Rectangle 658" width="3.434" height="11.624" transform="translate(3.173 3.677) rotate(8.704)" fill="#92e3a9"/>
              </g>
              <g id="Group_20184" data-name="Group 20184" transform="translate(137.24 26.237)">
                <rect id="Rectangle_659" data-name="Rectangle 659" width="3.434" height="24.693" transform="translate(3.736) rotate(8.702)" fill="#92e3a9" opacity="0.2"/>
                <rect id="Rectangle_660" data-name="Rectangle 660" width="3.434" height="11.624" transform="matrix(0.988, 0.151, -0.151, 0.988, 2.188, 10.112)" fill="#92e3a9"/>
              </g>
              <g id="Group_20185" data-name="Group 20185" transform="translate(146.046 19.794)">
                <rect id="Rectangle_661" data-name="Rectangle 661" width="3.434" height="24.693" transform="matrix(0.988, 0.151, -0.151, 0.988, 3.736, 0)" fill="#92e3a9" opacity="0.2"/>
                <rect id="Rectangle_662" data-name="Rectangle 662" width="3.434" height="11.624" transform="translate(3.736 0) rotate(8.702)" fill="#92e3a9"/>
              </g>
              <g id="Group_20186" data-name="Group 20186" transform="translate(152.521 28.576)">
                <rect id="Rectangle_663" data-name="Rectangle 663" width="3.434" height="24.693" transform="translate(3.736) rotate(8.702)" fill="#92e3a9" opacity="0.2"/>
                <rect id="Rectangle_664" data-name="Rectangle 664" width="3.434" height="11.624" transform="translate(3.454 1.839) rotate(8.702)" fill="#92e3a9"/>
              </g>
              <g id="Group_20187" data-name="Group 20187" transform="translate(160.665 26.453)">
                <rect id="Rectangle_665" data-name="Rectangle 665" width="3.434" height="24.693" transform="matrix(0.988, 0.151, -0.151, 0.988, 3.736, 0)" fill="#92e3a9" opacity="0.2"/>
                <rect id="Rectangle_666" data-name="Rectangle 666" width="3.434" height="11.624" transform="translate(3.595 0.919) rotate(8.702)" fill="#92e3a9"/>
              </g>
              <g id="Group_20188" data-name="Group 20188" transform="translate(167.826 30.758)">
                <rect id="Rectangle_667" data-name="Rectangle 667" width="3.434" height="24.693" transform="translate(3.736 0) rotate(8.702)" fill="#92e3a9" opacity="0.2"/>
                <rect id="Rectangle_668" data-name="Rectangle 668" width="3.434" height="11.624" transform="translate(1.907 11.951) rotate(8.704)" fill="#92e3a9"/>
              </g>
            </g>
          </g>
          <rect id="Rectangle_669" data-name="Rectangle 669" width="64.752" height="2.004" transform="matrix(0.988, 0.151, -0.151, 0.988, 140.531, 257.063)" fill="#999" stroke="#263238" stroke-linecap="round" stroke-linejoin="round" stroke-width="1"/>
        </g>
      </g>
    </g>
    <g id="Right_hand" data-name="Right hand" transform="translate(332.835 221.141)">
      <g id="Group_20195" data-name="Group 20195">
        <path id="Path_33654" data-name="Path 33654" d="M302.231,211.88s-8.676,4.807-3.155,17.851,39.137,34.463,38.455,45.357c0,0-34.5-21.506-44.09-9.089,0,0,26.066,25.274,28.769,44.3s11.576,27.442,31.94,38.288,64.742,68.094,64.742,68.094l-6.634-96.106-64.59-72.915-31.94-18.2Z" transform="translate(-293.101 -191.76)" fill="rgba(0,0,0,0.7)" opacity="0.2"/>
        <g id="Group_20194" data-name="Group 20194">
          <path id="Path_33655" data-name="Path 33655" d="M477.582,383.4s-56.878,37.357-56.889,37.357a.241.241,0,0,1-.335-.15c-.254-.669-25.416-67.826-31.438-73.064a24.745,24.745,0,0,1-7.176-11.468c0-.012-.012-.012-.012-.023s-.012-.058-.023-.092c-.219-.738-.323-1.223-.346-1.35a41.825,41.825,0,0,0-14.848-16.683c-3.957-2.607-8.56-4.476-13.429-6.461-7.153-2.9-14.514-5.884-19.717-11.41a24.169,24.169,0,0,1-2.434-3.034c-8.272-12.114-21.044-25.485-25.3-28.231-4.419-2.861-12.056-2.377-12.125-2.365a.256.256,0,0,1-.277-.208,7.252,7.252,0,0,1,1.869-5.872,11.594,11.594,0,0,1,8.8-4.038c6.576,0,15.633,3.5,20.2,7.811,4.465,4.211,15.137,7.545,16.348,7.914,1.719-1.015,5.722,1.165,7.257,2.088-1.765-6.288-1.05-8.71-.773-9.322-3.784-4.9-23.489-19.417-33.954-26.7h-.012c-2.884-2.019-5.053-3.473-6-4.026-4.88-2.873-8.918-11.86-8.134-18.136a5.79,5.79,0,0,1,2.319-4.361,5.56,5.56,0,0,1,3.288-.842,7.223,7.223,0,0,1,1.4.173.476.476,0,0,1,.127.081c.092.127,9.887,11.745,13.279,13.568,1.661.888,10.5,5.353,18.9,9.507,1.281.635,2.55,1.269,3.784,1.869.023-1.788.1-8.8.577-10.949.323-1.431,2.607-3.473,5.2-4.661,1.211-.554,3.5-1.35,5.111-.473.635.358,2.134,1.281,4.211,2.573,1.015.623,2.192,1.361,3.484,2.146a13.473,13.473,0,0,1,2.677-3.011c.865-.508,5.653-1.4,7.361-.8,1.488.542,6.265,3.576,11.318,6.784.715.45,1.442.911,2.181,1.373.265-.5.888-1.534,1.477-1.765a13.178,13.178,0,0,1,7.788-.415c1.707.623,7.568,4.949,13.245,9.137,3.115,2.307,6.1,4.511,8.064,5.838a.281.281,0,0,1,.161.115c.565.381,1.038.681,1.4.888,4.176,2.388,14.444,56.243,14.548,56.785.669,3.611,3.115,7.338,5.7,11.283,2.527,3.853,5.388,8.226,7.107,13.256,3.288,9.61,10.776,23.674,21.747,40.864q1.488,2.336,3.069,4.742C471.317,374.2,474.478,378.882,477.582,383.4Z" transform="translate(-293.146 -191.936)" fill="#fff"/>
          <path id="Path_33656" data-name="Path 33656" d="M350.824,280.286c-2.2,1.742-18.194.092-20.155,5.469-1.154,3.173-.3,7.972,2.7,14.306a24.169,24.169,0,0,1-2.434-3.034c-8.272-12.114-21.044-25.485-25.3-28.231-4.419-2.861-12.056-2.377-12.125-2.365a.256.256,0,0,1-.277-.208,7.252,7.252,0,0,1,1.869-5.872,11.594,11.594,0,0,1,8.8-4.038c6.576,0,15.633,3.5,20.2,7.811,4.465,4.211,15.137,7.545,16.348,7.914,1.719-1.015,5.722,1.165,7.257,2.088-1.765-6.288-1.05-8.71-.773-9.322-3.784-4.9-23.489-19.417-33.954-26.7h-.012c-2.884-2.019-5.053-3.473-6-4.026-4.88-2.873-8.918-11.86-8.134-18.136a5.79,5.79,0,0,1,2.319-4.361,5.56,5.56,0,0,1,3.288-.842,7.381,7.381,0,0,0-2.169,1.315c-3.207,2.734,4.442,17.167,8.745,21.159,4.5,4.165,24.735,14.5,32,20.663,3.992,3.38,9.23,8.5,9.23,8.5C349.059,267.814,353.016,278.555,350.824,280.286Z" transform="translate(-293.146 -191.936)" fill="#92e3a9" opacity="0.4"/>
          <path id="Path_33657" data-name="Path 33657" d="M407.541,194.544c-.012-.1-.012-.127.011-.081A.068.068,0,0,1,407.541,194.544Z" transform="translate(-275.564 -194.44)" fill="#92e3a9"/>
          <path id="Path_33658" data-name="Path 33658" d="M459.288,363.747c-8.572-8.157-21.332-20.859-23.72-26.431-3.646-8.537-6.08-16.417-10.614-22.163s-13.729-66.973-16.371-67.146c-2.573-.185,3.323,24.2,3.634,25.474-.254-.773-3.553-11.168-6.715-23.016-3.277-12.31-6.588-12.979-6.588-12.979-4.4.877-4.419,4-6.668,3.957s-9.968-5.526-9.968-5.526c-7.488,1.084-35.58-17.006-35.58-17.006-6.392.865-7.891,6.449-2.434,11.687s13.614,11.618,13.614,11.618c-5.261,2.561-24.574-8.272-24.574-8.272l-1.154-1.038c1.281.635,2.55,1.269,3.784,1.869.023-1.788.1-8.8.577-10.949.323-1.431,2.607-3.473,5.2-4.661,1.211-.554,3.5-1.35,5.111-.473.635.358,2.134,1.281,4.211,2.573,1.015.623,2.192,1.361,3.484,2.146A13.473,13.473,0,0,1,357.2,220.4c.865-.508,5.653-1.4,7.361-.8,1.488.542,6.265,3.576,11.318,6.784.715.45,1.442.911,2.181,1.373.265-.5.888-1.534,1.477-1.765a13.178,13.178,0,0,1,7.788-.415c1.707.623,7.568,4.949,13.245,9.137,3.115,2.307,6.1,4.511,8.064,5.838a.281.281,0,0,1,.161.115c.565.381,1.038.681,1.4.888,4.176,2.388,14.444,56.243,14.548,56.785.669,3.611,3.115,7.338,5.7,11.283,2.527,3.853,5.388,8.226,7.107,13.256C440.829,332.493,448.317,346.557,459.288,363.747Z" transform="translate(-287.151 -190.773)" fill="#92e3a9" opacity="0.4"/>
          <g id="Group_20193" data-name="Group 20193" transform="translate(0.256 19.049)">
            <path id="Path_33659" data-name="Path 33659" d="M420.566,420.495s-25.37-67.831-31.511-73.171a24.481,24.481,0,0,1-7.478-12.818,41.824,41.824,0,0,0-14.954-16.824c-10.949-7.211-27.505-9.08-35.517-20.83s-20.83-25.369-25.37-28.306-12.284-2.4-12.284-2.4c-.8-4.541,4.272-9.614,10.414-9.614s15.222,3.2,20.028,7.744,16.557,8.011,16.557,8.011c1.869-1.335,7.644,2.371,7.644,2.371-2.3-7.812-.9-9.915-.9-9.915-4.54-6.142-35.585-28.24-40.125-30.91s-8.812-11.483-8.011-17.893,6.677-4.806,6.677-4.806,9.88,11.749,13.353,13.619S349.8,240.238,353.8,241.84a7.509,7.509,0,0,0,6.943-.534" transform="translate(-293.368 -210.952)" fill="none" stroke="#263238" stroke-linecap="round" stroke-linejoin="round" stroke-width="1"/>
            <path id="Path_33660" data-name="Path 33660" d="M335.652,235.143s.037-8.888.571-11.291,7-6.571,9.939-4.969,24.576,15.825,30.213,16.452" transform="translate(-286.869 -209.788)" fill="none" stroke="#263238" stroke-linecap="round" stroke-linejoin="round" stroke-width="1"/>
            <path id="Path_33661" data-name="Path 33661" d="M351.588,223.59a15.3,15.3,0,0,1,2.748-3.155c.8-.467,5.541-1.344,7.144-.768,3.2,1.153,22.1,14.187,25.3,14.988" transform="translate(-284.42 -209.641)" fill="none" stroke="#263238" stroke-linecap="round" stroke-linejoin="round" stroke-width="1"/>
            <path id="Path_33662" data-name="Path 33662" d="M372.021,227.178s.817-1.637,1.473-1.9a12.836,12.836,0,0,1,7.61-.4c2.937,1.068,19.094,13.82,22.833,15.957s13.085,49.4,14.42,56.613,9.347,14.42,12.819,24.568,11.749,25.637,24.835,45.666c2.3,3.52,4.708,7.115,7.114,10.649" transform="translate(-281.279 -208.874)" fill="none" stroke="#263238" stroke-linecap="round" stroke-linejoin="round" stroke-width="1"/>
            <path id="Path_33663" data-name="Path 33663" d="M349.919,250.386s1.2-5.407,4.406-7.811,7.611,1.4,10.816,1.8" transform="translate(-284.676 -206.212)" fill="none" stroke="#263238" stroke-linecap="round" stroke-linejoin="round" stroke-width="1"/>
            <path id="Path_33664" data-name="Path 33664" d="M368.842,242.838s1.8-6.22,5.007-7.621,8.145,2.8,10.281,3" transform="translate(-281.768 -207.266)" fill="none" stroke="#263238" stroke-linecap="round" stroke-linejoin="round" stroke-width="1"/>
            <path id="Path_33665" data-name="Path 33665" d="M387.07,237.22s2.4-2.274,3.4-2.289,5.208,4.391,6.109,4.692,2.006-1.349,3.557-1.375" transform="translate(-278.966 -207.266)" fill="none" stroke="#263238" stroke-linecap="round" stroke-linejoin="round" stroke-width="1"/>
            <path id="Path_33666" data-name="Path 33666" d="M380.743,232.027a8.347,8.347,0,0,1,5,1.234" transform="translate(-279.939 -207.715)" fill="none" stroke="#263238" stroke-linecap="round" stroke-linejoin="round" stroke-width="1"/>
            <path id="Path_33667" data-name="Path 33667" d="M340.161,258.4s-1.6-4.106-.8-6.208" transform="translate(-286.334 -204.613)" fill="none" stroke="#263238" stroke-linecap="round" stroke-linejoin="round" stroke-width="1"/>
            <path id="Path_33668" data-name="Path 33668" d="M342.715,231.446s1.9,2.234,2,4.021,4.664,3.954,4.664,3.954" transform="translate(-285.784 -207.802)" fill="none" stroke="#263238" stroke-linecap="round" stroke-linejoin="round" stroke-width="1"/>
            <path id="Path_33669" data-name="Path 33669" d="M369.184,232.687s2.61-.934,4.011,0" transform="translate(-281.715 -207.675)" fill="none" stroke="#263238" stroke-linecap="round" stroke-linejoin="round" stroke-width="1"/>
            <path id="Path_33670" data-name="Path 33670" d="M340.028,263.186a8,8,0,0,1,3.1-6.944" transform="translate(-286.201 -203.99)" fill="none" stroke="#263238" stroke-linecap="round" stroke-linejoin="round" stroke-width="1"/>
            <path id="Path_33671" data-name="Path 33671" d="M341.2,266.167s-2.971,2.57-2.971,4.172" transform="translate(-286.473 -202.465)" fill="none" stroke="#263238" stroke-linecap="round" stroke-linejoin="round" stroke-width="1"/>
            <path id="Path_33672" data-name="Path 33672" d="M328.928,262.261c3.534,1.313,6.458,6.809,8.6,7.744" transform="translate(-287.903 -203.065)" fill="none" stroke="#263238" stroke-linecap="round" stroke-linejoin="round" stroke-width="1"/>
            <path id="Path_33673" data-name="Path 33673" d="M366.006,247.1c2.137,3.071,6.943,25.37,11.75,32.447" transform="translate(-282.204 -205.396)" fill="none" stroke="#263238" stroke-linecap="round" stroke-linejoin="round" stroke-width="1"/>
            <path id="Path_33674" data-name="Path 33674" d="M381.519,241.635c.4.268,3.2,8.947,3.2,8.947" transform="translate(-279.819 -206.235)" fill="none" stroke="#263238" stroke-linecap="round" stroke-linejoin="round" stroke-width="1"/>
            <path id="Path_33675" data-name="Path 33675" d="M412.592,289.286a51.754,51.754,0,0,0,3.8,12.883" transform="translate(-275.043 -198.911)" fill="none" stroke="#263238" stroke-linecap="round" stroke-linejoin="round" stroke-width="1"/>
            <path id="Path_33676" data-name="Path 33676" d="M370.649,321.213c-.366-1.461-1.912-11.074-3.808-14.279" transform="translate(-282.075 -196.199)" fill="none" stroke="#263238" stroke-linecap="round" stroke-linejoin="round" stroke-width="1"/>
          </g>
        </g>
      </g>
    </g>
    <g id="Left_hand" data-name="Left hand" transform="translate(44.85 309.915)">
      <g id="Group_20198" data-name="Group 20198">
        <path id="Path_33677" data-name="Path 33677" d="M89.893,475.956s37.537-50.475,65.847-59.717,29.711-21.78,28.554-45.178-.3-46.978-8.029-49.793,9.327-33.362,1.132-45.472l-53.56,84.158Z" transform="translate(-36.401 -270.71)" fill="rgba(0,0,0,0.7)" opacity="0.2"/>
        <g id="Group_20197" data-name="Group 20197">
          <path id="Path_33678" data-name="Path 33678" d="M87.913,490.7c-.162-.046-.346-.115-.565-.185.45.254.727.415.808.45C88.121,490.917,88.04,490.837,87.913,490.7Zm91.258-154.839c-4.673-2.157-13.775-12.275-14.917-13.544,5.792-9.714,11.468-19.082,13.441-21.332,4.1-4.661,9.091-18.079,7.061-24.585-1.857-5.976-7.937-5.019-8.768-4.857a.842.842,0,0,0-.092.023.2.2,0,0,0-.15.1c-.127.219-12.506,21.09-16.348,26.085-1.834,2.377-6.057,7.788-10.337,13.21-.219-.035-.681-.115-1.281-.2-1.984-.242-5.63-.542-8.134.231-.081.023-.173.058-.265.092a27.863,27.863,0,0,0-3.957,2.1c-.162-.069-.485-.208-.911-.381-1.823-.761-5.6-2.227-7.384-2.307-2.18-.115-9.864,3.45-14.456,6.345a30.96,30.96,0,0,0-9.714-1.35c-3.519.15-10.695,3.069-16.463,5.411-2.561,1.038-4.776,1.938-6.068,2.342-.392.127-.761.231-1.119.346-3.438,1.027-5.33,1.6-7.73,6.4-2.492,4.984-5.18,23.57-6.472,32.5l-.173,1.211c-.5,3.415-.415,9.53-.335,16,.127,9,.254,18.3-1.084,21.943a57.127,57.127,0,0,1-7.107,12.829c-.381.542-.727,1.05-1.05,1.534a39.562,39.562,0,0,0-4.28,9.01c-.969,2.561-2.181,5.376-3.357,7.949-2.169,4.765-4.188,8.7-4.188,8.7S84.348,486.741,87.913,490.7a4.925,4.925,0,0,0,.588.185c.138-.231,7.684-13.129,15.679-25.855,6.888-10.983,14.11-21.84,17.19-24.332a28.53,28.53,0,0,0,8.837-13.752c1.661-5.342,12.264-11.929,22.52-18.3,11.341-7.038,23.051-14.317,23.466-20.34.219-3.115.934-8.272,1.765-14.26C180.209,357.826,183,337.625,179.171,335.859Zm-19.428,25.935-5.042,4.938c-.715-4.038-5.619-9.4-6.392-10.222a42.212,42.212,0,0,0,.75-5.884c.185-2.25.381-4.58.935-5s3.1-4.58,7.257-11.549c.346,4.88,4.569,10.256,5.192,11.029Z" transform="translate(-43.528 -271.387)" fill="#fff"/>
          <path id="Path_33679" data-name="Path 33679" d="M99.319,341.6c-1.488,13.291-14.514,46.264-14.514,46.264l-2.354-33.215s-10.049,45.075-12.875,46.7-7.661,10.245-10.406,17.086c-1.834,4.6-8.087,7.753-12.01,9.333,1.177-2.573,2.388-5.388,3.357-7.949a39.562,39.562,0,0,1,4.28-9.01c.323-.485.669-.992,1.05-1.534a57.127,57.127,0,0,0,7.107-12.829c1.338-3.646,1.211-12.945,1.084-21.943-.081-6.472-.162-12.587.335-16l.173-1.211c1.292-8.93,3.98-27.516,6.472-32.5,2.4-4.8,4.292-5.376,7.73-6.4.358-.115.727-.219,1.119-.346,1.292-.4,3.507-1.3,6.068-2.342,5.769-2.342,12.945-5.261,16.463-5.411a30.96,30.96,0,0,1,9.714,1.35c4.592-2.9,12.275-6.461,14.456-6.345,1.788.081,5.561,1.546,7.384,2.307-7.6,4-20.49,13.556-20.49,13.556C98.846,324.269,99.319,341.6,99.319,341.6Z" transform="translate(-42.97 -266.177)" fill="#92e3a9" opacity="0.4"/>
          <path id="Path_33680" data-name="Path 33680" d="M114.75,323.945s7.972-5.457,11.71-7.211,4.938-8.745,2.307-10.718a.734.734,0,0,0-.335-.138c.092-.035.185-.069.265-.092,2.5-.773,6.149-.473,8.134-.231-4.834,7.257-8.618,12.818-9.622,14.018C123.83,323.611,114.75,323.945,114.75,323.945Z" transform="translate(-32.581 -266.176)" fill="#92e3a9" opacity="0.4"/>
          <path id="Path_33681" data-name="Path 33681" d="M131.28,360.93l1.765.761C131.972,365.972,131.28,360.93,131.28,360.93Z" transform="translate(-30.04 -257.624)" fill="#92e3a9" opacity="0.4"/>
          <path id="Path_33682" data-name="Path 33682" d="M171.091,335.859c-4.673-2.157-13.775-12.275-14.917-13.544,5.792-9.714,11.468-19.082,13.441-21.332,4.1-4.661,9.091-18.079,7.061-24.585-1.857-5.976-7.937-5.019-8.768-4.857l-.035.254s6.576.819,6.565,10.326-17.086,28.347-17.086,28.347-17.559,32.938-18.725,32.442-3.726,22.013-3.726,22.013,4.892,4.165,3.726,9.772q-.087.415-.173.761l7.522,3.242s7.545-5.3,11.376,2.492-36.78,35.615-39.976,39.722c0,0-.45,15.517-6.38,17.8-3.842,1.477-10.614,16.152-14.894,26.316,6.888-10.983,14.11-21.84,17.19-24.332a28.53,28.53,0,0,0,8.837-13.752c1.661-5.342,12.264-11.929,22.52-18.3,11.341-7.038,23.051-14.317,23.466-20.34.219-3.115.934-8.272,1.765-14.26C172.129,357.826,174.921,337.625,171.091,335.859Zm-19.428,25.935-5.042,4.938c-.715-4.038-5.619-9.4-6.392-10.222a42.212,42.212,0,0,0,.75-5.884c.185-2.25.381-4.58.935-5s3.1-4.58,7.257-11.549c.346,4.88,4.569,10.256,5.192,11.029Z" transform="translate(-35.447 -271.387)" fill="#92e3a9" opacity="0.4"/>
          <g id="Group_20196" data-name="Group 20196" transform="translate(0 0.238)">
            <path id="Path_33683" data-name="Path 33683" d="M118.46,329.43a15.615,15.615,0,0,0,8.182-4.676c3.506-3.9,17.533-21.819,21.429-26.884s16.364-26.1,16.364-26.1,6.623-1.557,8.571,4.676-2.727,19.473-7.012,24.348-26.1,43.446-27.664,44.615-.39,12.093-3.506,14.424" transform="translate(-32.011 -271.593)" fill="none" stroke="#263238" stroke-linecap="round" stroke-linejoin="round" stroke-width="1"/>
            <path id="Path_33684" data-name="Path 33684" d="M134.111,348.342s6.1,6.388,6.49,10.674l5.455-5.337,2.727-16.872s-5.39-6.493-5.227-11.819" transform="translate(-29.605 -263.386)" fill="none" stroke="#263238" stroke-linecap="round" stroke-linejoin="round" stroke-width="1"/>
            <path id="Path_33685" data-name="Path 33685" d="M157.987,315.556s10.053,11.4,15.118,13.741-2.337,40.909-3.116,52.209-42.466,27.255-45.975,38.573a28.135,28.135,0,0,1-8.767,13.636c-6.76,5.475-32.922,50.261-32.922,50.261" transform="translate(-37.565 -264.836)" fill="none" stroke="#263238" stroke-linecap="round" stroke-linejoin="round" stroke-width="1"/>
            <path id="Path_33686" data-name="Path 33686" d="M140.556,305.985s-5.943-1.091-9.449,0-18.313,11.611-21.819,13.558-8.572,2.337-9.741,4.676" transform="translate(-34.917 -266.382)" fill="none" stroke="#263238" stroke-linecap="round" stroke-linejoin="round" stroke-width="1"/>
            <path id="Path_33687" data-name="Path 33687" d="M127.886,308.217s-5.983-2.606-8.322-2.718-11.688,4.3-15.974,7.421a33.9,33.9,0,0,1-10.909,5.326" transform="translate(-35.973 -266.382)" fill="none" stroke="#263238" stroke-linecap="round" stroke-linejoin="round" stroke-width="1"/>
            <path id="Path_33688" data-name="Path 33688" d="M112.7,311.207a30.257,30.257,0,0,0-9.736-1.372c-5.065.212-18.312,6.447-22.468,7.746s-6.1,1.428-8.7,6.623-5.455,25.585-6.623,33.636.909,31.624-1.428,37.988-5.952,11.1-8.182,14.416c-4.441,6.6-3.941,11.587-12.032,25.53" transform="translate(-43.528 -265.718)" fill="none" stroke="#263238" stroke-linecap="round" stroke-linejoin="round" stroke-width="1"/>
            <path id="Path_33689" data-name="Path 33689" d="M96.235,323.244c-5.066,4.481-4.124,13.06-3.409,15.592s-2.435,12.655-3.409,18.11" transform="translate(-36.475 -263.654)" fill="none" stroke="#263238" stroke-linecap="round" stroke-linejoin="round" stroke-width="1"/>
            <path id="Path_33690" data-name="Path 33690" d="M124.884,326.959c-9.165.195-12.087,6.428-12.672,10.519" transform="translate(-32.971 -263.083)" fill="none" stroke="#263238" stroke-linecap="round" stroke-linejoin="round" stroke-width="1"/>
            <path id="Path_33691" data-name="Path 33691" d="M90.9,319.024c-2.727-.2-9.741,4.091-11.1,11.1" transform="translate(-37.954 -264.304)" fill="none" stroke="#263238" stroke-linecap="round" stroke-linejoin="round" stroke-width="1"/>
            <path id="Path_33692" data-name="Path 33692" d="M146.828,335.8s1.364-3.9,2.727-4.286" transform="translate(-27.65 -262.382)" fill="none" stroke="#263238" stroke-linecap="round" stroke-linejoin="round" stroke-width="1"/>
            <path id="Path_33693" data-name="Path 33693" d="M144.868,349.857a51.318,51.318,0,0,1-2.5,6.7c-1.2,2.337,0,5.987,0,5.987" transform="translate(-28.418 -259.564)" fill="none" stroke="#263238" stroke-linecap="round" stroke-linejoin="round" stroke-width="1"/>
            <path id="Path_33694" data-name="Path 33694" d="M140.45,354.483c-.195,3.9-4.48,8.077-5.357,7.35" transform="translate(-29.454 -258.853)" fill="none" stroke="#263238" stroke-linecap="round" stroke-linejoin="round" stroke-width="1"/>
            <path id="Path_33695" data-name="Path 33695" d="M109,348.742c-.135,4.285-7.927,35.649-7.927,35.649" transform="translate(-34.684 -259.735)" fill="none" stroke="#263238" stroke-linecap="round" stroke-linejoin="round" stroke-width="1"/>
          </g>
        </g>
      </g>
    </g>
  </g>
</svg>