<svg xmlns="http://www.w3.org/2000/svg" xmlns:xlink="http://www.w3.org/1999/xlink" width="286.545" height="286.983" viewBox="0 0 286.545 286.983">
  <defs>
    <clipPath id="clip-path">
      <path id="Path_5125" data-name="Path 5125" d="M253.823,303.571l1.09,9.42c-.006,25.357-.89,27.241-3.013,36.048-.737,3.069-1.647,6.488-2.709,9.555a16.144,16.144,0,0,0-.717,3l-.006.045a17.142,17.142,0,0,0-.194,2.5,33.251,33.251,0,0,1-1.471,9.588c-1.129,3.852-2.574,8.272-4.2,12.936a141.763,141.763,0,0,1-46.926,4.7l15.1-27.86a14.5,14.5,0,0,0,1.523-9.485,299.078,299.078,0,0,1-4.852-42.758c-.723-24.679.923-20.214,1.665-31.854a10.327,10.327,0,0,1,3.671-7.246l.9-.748,9.149-18.969a9.754,9.754,0,0,1,13.911-4.065l9.132,5.633a1.547,1.547,0,0,1,.724,1.136l1.223,10.483s6.644,10,7.091,13.872c.146,1.266-1.226,4.949-1.226,4.949Z" transform="translate(-195.677 -246.926)" fill="#fff"/>
    </clipPath>
    <clipPath id="clip-path-2">
      <path id="Path_5182" data-name="Path 5182" d="M242.6,386.667c1.626-4.665,3.071-9.085,4.2-12.936a33.251,33.251,0,0,0,1.471-9.588,17.142,17.142,0,0,1,.194-2.5l.006-.045a16.144,16.144,0,0,1,.717-3c1.061-3.067,1.971-6.486,2.709-9.555,2.123-8.807,3.007-10.691,3.013-36.048l-1.09-9.42-.135-19.117s1.372-3.683,1.226-4.949c-.446-3.869-7.091-13.872-7.091-13.872L246.6,255.15a1.547,1.547,0,0,0-.724-1.136l-9.132-5.633a9.752,9.752,0,0,0-13.911,4.065l-9.149,18.969-.9.748a10.327,10.327,0,0,0-3.671,7.246c-.742,11.639-2.387,7.175-1.665,31.854A299.078,299.078,0,0,0,212.3,354.02a14.5,14.5,0,0,1-1.523,9.485l-15.1,27.86" transform="translate(-195.677 -246.926)" fill="none" stroke="#263238" stroke-linecap="round" stroke-linejoin="round" stroke-width="1"/>
    </clipPath>
  </defs>
  <g id="Group_1064" data-name="Group 1064" transform="translate(-27.348 -27.049)">
    <g id="Group_935" data-name="Group 935" transform="translate(27.348 27.049)">
      <path id="Path_5074" data-name="Path 5074" d="M67.012,65.953A118.21,118.21,0,0,0,27.5,147.178c-1.385,24.846,6.787,51.993,27.484,65.808,10.307,6.879,23.891,10.938,28.982,22.236,4.922,10.923-.5,23.617.448,35.561.94,11.891,8.406,22.627,18.143,29.516S124.1,310.613,135.9,312.332c44.579,6.493,90.887-10.722,124.145-41.109,26.684-24.38,45.814-57.347,51.837-92.987S310.375,104.5,289.666,74.873c-14.571-20.843-49.964-42.23-75.2-45.39C128.124,18.67,89.434,46.25,67.012,65.953Z" transform="translate(-27.348 -27.049)" fill="#92e3a9"/>
      <path id="Path_5075" data-name="Path 5075" d="M311.879,178.234c-6.02,35.641-25.15,68.6-51.836,92.987a165.019,165.019,0,0,1-67.818,37.435,141.761,141.761,0,0,1-46.926,4.7q-4.7-.339-9.4-1.019c-11.8-1.723-23.608-5.149-33.344-12.033s-17.2-17.627-18.143-29.518c-.942-11.943,4.471-24.64-.445-35.564-5.091-11.3-18.679-15.356-28.983-22.234-20.7-13.814-28.873-40.964-27.486-65.811A118.21,118.21,0,0,1,67.01,65.955c22.427-19.7,61.114-47.287,147.455-36.474,25.234,3.162,60.63,24.55,75.2,45.39C310.375,104.5,317.9,142.6,311.879,178.234Z" transform="translate(-27.348 -27.049)" fill="#fff" opacity="0.7"/>
    </g>
    <g id="Group_939" data-name="Group 939" transform="translate(37.174 173.524)">
      <g id="Group_937" data-name="Group 937" transform="translate(194.849 10.035)">
        <path id="Path_5076" data-name="Path 5076" d="M380.154,335.436a24.667,24.667,0,0,1-33.032-11.2,24.942,24.942,0,0,1-1.443-3.614c0-.006,0-.021-.006-.028a24.662,24.662,0,0,1,12.654-29.39l10.912,22.113,12.236-21.409a24.658,24.658,0,0,1-1.321,43.529Z" transform="translate(-344.571 -277.279)" fill="none" stroke="#263238" stroke-linecap="round" stroke-linejoin="round" stroke-width="1"/>
        <g id="Group_936" data-name="Group 936" transform="translate(14.045)">
          <path id="Path_5077" data-name="Path 5077" d="M366.339,272.17a24.645,24.645,0,0,1,23.148.7l-12.236,21.41Z" transform="translate(-366.339 -269.622)" fill="none" stroke="#263238" stroke-linecap="round" stroke-linejoin="round" stroke-width="1"/>
          <path id="Path_5078" data-name="Path 5078" d="M366.339,273.572v5.355l10.912,22.113,12.236-21.41v-5.355l-12.236,21.41Z" transform="translate(-366.339 -271.023)" fill="none" stroke="#263238" stroke-linecap="round" stroke-linejoin="round" stroke-width="1"/>
        </g>
      </g>
      <g id="Group_938" data-name="Group 938" transform="translate(0 0)">
        <path id="Path_5079" data-name="Path 5079" d="M115.689,254.069H48.742a6.165,6.165,0,0,0-6.165,6.164v25.3a6.165,6.165,0,0,0,6.165,6.165h66.947a6.165,6.165,0,0,0,6.165-6.165v-25.3A6.165,6.165,0,0,0,115.689,254.069ZM75.662,286.5a.6.6,0,0,1-.6.6H69.5a.6.6,0,0,1-.6-.6V273.478a.6.6,0,0,1,.6-.6h5.571a.6.6,0,0,1,.6.6Zm11.114.6h-5.57a.6.6,0,0,1-.6-.6V268.988a.6.6,0,0,1,.6-.6h5.57a.6.6,0,0,1,.6.6V286.5A.6.6,0,0,1,86.776,287.1Zm11.613-.6a.6.6,0,0,1-.6.6h-5.57a.6.6,0,0,1-.6-.6v-2.1a.6.6,0,0,1,.6-.6h5.57a.6.6,0,0,1,.6.6Zm11.017,0a.6.6,0,0,1-.6.6h-5.57a.6.6,0,0,1-.6-.6V267.312l-5.661,13.769a.6.6,0,0,1-1.063.078L85.881,264.29a.6.6,0,0,0-.845-.19L75.1,270.766a.6.6,0,0,1-.619.027l-10.729-5.91V286.5a.6.6,0,0,1-.6.6H57.584a.6.6,0,0,1-.6-.6V259.788a.6.6,0,0,1,.6-.6h5.571a.6.6,0,0,1,.6.6v3.651l10.673,5.879a.6.6,0,0,0,.619-.027L85.4,262.346a.6.6,0,0,1,.844.19l9.488,15.947a.6.6,0,0,0,1.064-.078l5.85-14.229v-4.387a.6.6,0,0,1,.6-.6h1.452l.617-1.5a.6.6,0,0,1,1.1.454l-.431,1.048h2.829a.6.6,0,0,1,.6.6Z" transform="translate(-42.577 -254.069)" fill="none" stroke="#263238" stroke-linecap="round" stroke-linejoin="round" stroke-width="1"/>
        <rect id="Rectangle_138" data-name="Rectangle 138" width="6.763" height="14.214" rx="0.924" transform="translate(26.322 18.813)" fill="none" stroke="#263238" stroke-linecap="round" stroke-linejoin="round" stroke-width="1"/>
        <rect id="Rectangle_139" data-name="Rectangle 139" width="6.763" height="18.705" rx="0.924" transform="translate(38.032 14.322)" fill="none" stroke="#263238" stroke-linecap="round" stroke-linejoin="round" stroke-width="1"/>
        <rect id="Rectangle_140" data-name="Rectangle 140" width="6.763" height="3.29" rx="0.924" transform="translate(49.049 29.737)" fill="none" stroke="#263238" stroke-linecap="round" stroke-linejoin="round" stroke-width="1"/>
        <path id="Path_5080" data-name="Path 5080" d="M65.142,263.472l.03-.066a.6.6,0,0,1,.83-.275l5.673,3.125v-3.651a.6.6,0,0,0-.6-.6H65.508a.6.6,0,0,0-.6.6v26.712a.6.6,0,0,0,.6.6h5.571a.6.6,0,0,0,.6-.6V267.7L65.4,264.242A.6.6,0,0,1,65.142,263.472Z" transform="translate(-50.501 -256.886)" fill="none" stroke="#263238" stroke-linecap="round" stroke-linejoin="round" stroke-width="1"/>
        <path id="Path_5081" data-name="Path 5081" d="M141.839,262.01h-2.829l-3.338,8.119v19.188a.6.6,0,0,0,.6.6h5.57a.6.6,0,0,0,.6-.6V262.605A.6.6,0,0,0,141.839,262.01Z" transform="translate(-75.607 -256.886)" fill="none" stroke="#263238" stroke-linecap="round" stroke-linejoin="round" stroke-width="1"/>
        <path id="Path_5082" data-name="Path 5082" d="M136.269,262.01a.6.6,0,0,0-.6.6v4.387l2.049-4.983Z" transform="translate(-75.607 -256.886)" fill="none" stroke="#263238" stroke-linecap="round" stroke-linejoin="round" stroke-width="1"/>
        <rect id="Rectangle_141" data-name="Rectangle 141" width="6.763" height="18.705" rx="0.924" transform="translate(38.032 14.322)" fill="none" stroke="#263238" stroke-linecap="round" stroke-linejoin="round" stroke-width="1"/>
        <rect id="Rectangle_142" data-name="Rectangle 142" width="6.763" height="14.214" rx="0.924" transform="translate(26.322 18.813)" fill="none" stroke="#263238" stroke-linecap="round" stroke-linejoin="round" stroke-width="1"/>
        <rect id="Rectangle_143" data-name="Rectangle 143" width="6.763" height="3.29" rx="0.924" transform="translate(49.049 29.737)" fill="none" stroke="#263238" stroke-linecap="round" stroke-linejoin="round" stroke-width="1"/>
      </g>
    </g>
    <g id="Group_945" data-name="Group 945" transform="translate(114.015 177.503)">
      <g id="Group_940" data-name="Group 940" transform="translate(89.633 19.22)">
        <path id="Path_5083" data-name="Path 5083" d="M310.706,290.026l-10.112,10.112a42.586,42.586,0,0,1,10.05,24.259h14.3A56.8,56.8,0,0,0,310.706,290.026Z" transform="translate(-300.594 -290.026)" fill="#92e3a9"/>
        <path id="Path_5084" data-name="Path 5084" d="M310.706,290.026l-10.112,10.112a42.586,42.586,0,0,1,10.05,24.259h14.3A56.8,56.8,0,0,0,310.706,290.026Z" transform="translate(-300.594 -290.026)" fill="#fff" opacity="0.2"/>
      </g>
      <g id="Group_943" data-name="Group 943" transform="translate(0 19.22)">
        <g id="Group_941" data-name="Group 941">
          <path id="Path_5085" data-name="Path 5085" d="M186.125,355.557a42.781,42.781,0,0,1,0-55.421l-10.112-10.112a57.045,57.045,0,0,0,0,75.644Z" transform="translate(-161.672 -290.025)" fill="#92e3a9"/>
        </g>
        <g id="Group_942" data-name="Group 942" opacity="0.4">
          <path id="Path_5086" data-name="Path 5086" d="M186.125,355.557a42.781,42.781,0,0,1,0-55.421l-10.112-10.112a57.045,57.045,0,0,0,0,75.644Z" transform="translate(-161.672 -290.025)" fill="#fff"/>
        </g>
      </g>
      <g id="Group_944" data-name="Group 944" transform="translate(19.222)">
        <path id="Path_5087" data-name="Path 5087" d="M201.575,284.686a42.784,42.784,0,0,1,55.421,0l10.112-10.112a57.045,57.045,0,0,0-75.642,0Z" transform="translate(-191.465 -260.237)" fill="#92e3a9"/>
        <path id="Path_5088" data-name="Path 5088" d="M201.575,284.686a42.784,42.784,0,0,1,55.421,0l10.112-10.112a57.045,57.045,0,0,0-75.642,0Z" transform="translate(-191.465 -260.237)" opacity="0.2"/>
      </g>
      <path id="Path_5089" data-name="Path 5089" d="M286.221,353.993h-14.3a42.768,42.768,0,0,1-70.349,29.14l-10.112,10.112a57.031,57.031,0,0,0,94.758-39.252Z" transform="translate(-172.242 -293.5)" fill="#92e3a9"/>
    </g>
    <g id="Group_996" data-name="Group 996" transform="translate(87.537 40.732)">
      <g id="Group_946" data-name="Group 946" transform="translate(0 4.2)">
        <path id="Path_5090" data-name="Path 5090" d="M292.728,175.389H127.3a6.669,6.669,0,0,1-6.669-6.67V61.436a6.669,6.669,0,0,1,6.669-6.67H292.728a6.669,6.669,0,0,1,6.67,6.67V168.72A6.669,6.669,0,0,1,292.728,175.389Z" transform="translate(-120.634 -54.766)" fill="#263238"/>
      </g>
      <g id="Group_947" data-name="Group 947" transform="translate(0 0.343)">
        <path id="Path_5091" data-name="Path 5091" d="M292.728,169.411H127.3a6.669,6.669,0,0,1-6.669-6.669V55.458a6.669,6.669,0,0,1,6.669-6.67H292.728a6.669,6.669,0,0,1,6.67,6.67V162.741A6.669,6.669,0,0,1,292.728,169.411Z" transform="translate(-120.634 -48.788)" fill="#92e3a9"/>
      </g>
      <path id="Path_5092" data-name="Path 5092" d="M299.815,58.783V54.926a6.669,6.669,0,0,0-6.67-6.669H127.721a6.669,6.669,0,0,0-6.669,6.669V162.21h0v3.856a6.669,6.669,0,0,0,6.669,6.669H293.146a6.669,6.669,0,0,0,6.67-6.669V58.784Z" transform="translate(-120.782 -48.257)" fill="none" stroke="#263238" stroke-miterlimit="10" stroke-width="1"/>
      <g id="Group_980" data-name="Group 980" transform="translate(10.649 10.993)">
        <g id="Group_948" data-name="Group 948" transform="translate(0 0)">
          <path id="Path_5093" data-name="Path 5093" d="M137.139,65.3v98.637H293.916V65.3Zm155.042,19.38H274.536V67.031h17.644ZM177.635,105.791H195.28v17.644H177.635ZM175.9,123.436H158.255V105.791H175.9Zm58.14-19.38H216.4V86.411H234.04Zm1.736-17.645H253.42v17.645H235.776ZM216.4,105.791H234.04v17.644H216.4Zm-1.736,17.644H197.015V105.791H214.66Zm0-19.38H197.015V86.411H214.66Zm-19.38,0H177.635V86.411h17.644Zm0,21.116v17.644H177.635V125.171Zm1.736,0H214.66v17.644H197.015Zm19.38,0H234.04v17.644H216.4Zm19.38,0H253.42v17.644H235.776Zm0-1.736V105.791H253.42v17.644Zm19.381-17.644H272.8v17.644H255.156Zm0-1.736V86.411H272.8v17.645Zm0-19.381V67.031H272.8V84.675Zm-1.736,0H235.776V67.031H253.42Zm-19.38,0H216.4V67.031H234.04Zm-19.38,0H197.015V67.031H214.66Zm-19.38,0H177.635V67.031h17.644Zm-19.381,0H158.255V67.031H175.9Zm0,1.736v17.645H158.255V86.411Zm-19.381,17.645H138.875V86.411h17.644Zm0,1.736v17.644H138.875V105.791Zm0,19.38v17.644H138.875V125.171Zm1.736,0H175.9v17.644H158.255Zm17.644,19.38V162.2H158.255V144.552Zm1.736,0H195.28V162.2H177.635Zm19.38,0H214.66V162.2H197.015Zm19.38,0H234.04V162.2H216.4Zm19.38,0H253.42V162.2H235.776Zm19.381,0H272.8V162.2H255.156Zm0-1.736V125.171H272.8v17.644Zm19.379-17.644h17.645v17.644H274.536Zm0-1.736V105.791h17.645v17.644Zm0-19.38V86.411h17.644v17.645ZM156.519,67.031V84.675H138.875V67.031Zm-17.644,77.521h17.644V162.2H138.875ZM274.536,162.2V144.552h17.645V162.2Z" transform="translate(-137.139 -65.295)" fill="#fff"/>
          <path id="Path_5094" data-name="Path 5094" d="M137.139,65.3v98.637H293.916V65.3Zm155.042,19.38H274.536V67.031h17.644ZM177.635,105.791H195.28v17.644H177.635ZM175.9,123.436H158.255V105.791H175.9Zm58.14-19.38H216.4V86.411H234.04Zm1.736-17.645H253.42v17.645H235.776ZM216.4,105.791H234.04v17.644H216.4Zm-1.736,17.644H197.015V105.791H214.66Zm0-19.38H197.015V86.411H214.66Zm-19.38,0H177.635V86.411h17.644Zm0,21.116v17.644H177.635V125.171Zm1.736,0H214.66v17.644H197.015Zm19.38,0H234.04v17.644H216.4Zm19.38,0H253.42v17.644H235.776Zm0-1.736V105.791H253.42v17.644Zm19.381-17.644H272.8v17.644H255.156Zm0-1.736V86.411H272.8v17.645Zm0-19.381V67.031H272.8V84.675Zm-1.736,0H235.776V67.031H253.42Zm-19.38,0H216.4V67.031H234.04Zm-19.38,0H197.015V67.031H214.66Zm-19.38,0H177.635V67.031h17.644Zm-19.381,0H158.255V67.031H175.9Zm0,1.736v17.645H158.255V86.411Zm-19.381,17.645H138.875V86.411h17.644Zm0,1.736v17.644H138.875V105.791Zm0,19.38v17.644H138.875V125.171Zm1.736,0H175.9v17.644H158.255Zm17.644,19.38V162.2H158.255V144.552Zm1.736,0H195.28V162.2H177.635Zm19.38,0H214.66V162.2H197.015Zm19.38,0H234.04V162.2H216.4Zm19.38,0H253.42V162.2H235.776Zm19.381,0H272.8V162.2H255.156Zm0-1.736V125.171H272.8v17.644Zm19.379-17.644h17.645v17.644H274.536Zm0-1.736V105.791h17.645v17.644Zm0-19.38V86.411h17.644v17.645ZM156.519,67.031V84.675H138.875V67.031Zm-17.644,77.521h17.644V162.2H138.875ZM274.536,162.2V144.552h17.645V162.2Z" transform="translate(-137.139 -65.295)" fill="#fff" opacity="0.8"/>
        </g>
        <g id="Group_953" data-name="Group 953" transform="translate(77.775)">
          <g id="Group_951" data-name="Group 951" transform="translate(0 3.935)">
            <g id="Group_949" data-name="Group 949" transform="translate(0 53.232)">
              <path id="Path_5095" data-name="Path 5095" d="M259.081,156.353l-1.4-1.227,1.4-1.228,1.4,1.227Z" transform="translate(-257.681 -153.897)" fill="#263238"/>
            </g>
            <g id="Group_950" data-name="Group 950" transform="translate(4.195)">
              <path id="Path_5096" data-name="Path 5096" d="M265.582,123.4l-1.4-1.227,2.8-2.452,1.4,1.227Zm5.591-4.906-1.4-1.227,2.8-2.453,1.4,1.228Zm5.592-4.906-1.4-1.227,2.8-2.453,1.4,1.227Zm5.591-4.9-1.4-1.227,1.235-1.084,2.261-.992.885,1.552-1.973.865Zm6.518-3.3-.885-1.552,3.536-1.551.885,1.552Zm7.072-3.1-.885-1.552,3.536-1.552.885,1.552Zm7.072-3.1-.885-1.552,2.149-.943.87-.763,1.4,1.227-1.1.963Zm6.328-4.484-1.4-1.227,2.8-2.452,1.4,1.227Zm5.591-4.906-1.4-1.227,2.8-2.452,1.4,1.227Zm5.591-4.906-1.4-1.227,2.8-2.452,1.4,1.227Zm5.591-4.9-1.4-1.227,2.795-2.452,1.4,1.227Zm5.591-4.906-1.4-1.227,2.8-2.452,1.4,1.227Z" transform="translate(-264.183 -71.393)" fill="#263238"/>
            </g>
          </g>
          <g id="Group_952" data-name="Group 952" transform="translate(70.75)">
            <path id="Path_5097" data-name="Path 5097" d="M375.588,72.535H373.61v-5.5h-6.274V65.295h8.253Z" transform="translate(-367.336 -65.295)" fill="#263238"/>
          </g>
        </g>
        <g id="Group_968" data-name="Group 968" transform="translate(78.389 19.38)" opacity="0.5">
          <g id="Group_960" data-name="Group 960">
            <g id="Group_958" data-name="Group 958" transform="translate(0 3.901)">
              <g id="Group_954" data-name="Group 954" transform="translate(51.483)">
                <path id="Path_5098" data-name="Path 5098" d="M339.654,124.382l-1.227-1.227,2.42-2.419,1.227,1.227Zm4.839-4.839-1.227-1.227,2.42-2.42,1.227,1.227Zm4.84-4.839-1.227-1.228,2.42-2.42,1.227,1.227Zm4.839-4.84-1.227-1.227,2.42-2.419,1.227,1.227Zm4.839-4.838-1.227-1.228,2.419-2.42,1.227,1.227Z" transform="translate(-338.427 -101.378)"/>
              </g>
              <g id="Group_955" data-name="Group 955" transform="translate(46.714 24.196)">
                <path id="Path_5099" data-name="Path 5099" d="M333.131,141.589h-2.1v-1.736h1.376l.973-.974,1.228,1.227Z" transform="translate(-331.035 -138.879)"/>
              </g>
              <g id="Group_956" data-name="Group 956" transform="translate(5.002 25.17)">
                <path id="Path_5100" data-name="Path 5100" d="M281.123,151.814H279.45v-1.736h.954l1.126-1.127,1.227,1.227Zm-4.94,0h-3.267v-1.736h3.267Zm-6.533,0h-3.266v-1.736h3.266Zm15.417-3.944-1.228-1.228,2.31-2.309,1.227,1.227Zm4.619-4.619-1.227-1.227,1.635-1.636h1.672v1.736h-.954Zm15.145-1.127h-3.266v-1.736h3.266Zm-6.533,0h-3.266v-1.736H298.3Z" transform="translate(-266.385 -140.388)"/>
              </g>
              <g id="Group_957" data-name="Group 957" transform="translate(0 34.86)">
                <rect id="Rectangle_144" data-name="Rectangle 144" width="1.736" height="1.736"/>
              </g>
            </g>
            <g id="Group_959" data-name="Group 959" transform="translate(71.148)">
              <path id="Path_5101" data-name="Path 5101" d="M376.146,102.572H374.41v-5.5h-5.5V95.332h7.24Z" transform="translate(-368.906 -95.332)"/>
            </g>
          </g>
          <g id="Group_967" data-name="Group 967" opacity="0.2">
            <g id="Group_965" data-name="Group 965" transform="translate(0 3.901)">
              <g id="Group_961" data-name="Group 961" transform="translate(51.483)">
                <path id="Path_5102" data-name="Path 5102" d="M339.654,124.382l-1.227-1.227,2.42-2.419,1.227,1.227Zm4.839-4.839-1.227-1.227,2.42-2.42,1.227,1.227Zm4.84-4.839-1.227-1.228,2.42-2.42,1.227,1.227Zm4.839-4.84-1.227-1.227,2.42-2.419,1.227,1.227Zm4.839-4.838-1.227-1.228,2.419-2.42,1.227,1.227Z" transform="translate(-338.427 -101.378)"/>
              </g>
              <g id="Group_962" data-name="Group 962" transform="translate(46.714 24.196)">
                <path id="Path_5103" data-name="Path 5103" d="M333.131,141.589h-2.1v-1.736h1.376l.973-.974,1.228,1.227Z" transform="translate(-331.035 -138.879)"/>
              </g>
              <g id="Group_963" data-name="Group 963" transform="translate(5.002 25.17)">
                <path id="Path_5104" data-name="Path 5104" d="M281.123,151.814H279.45v-1.736h.954l1.126-1.127,1.227,1.227Zm-4.94,0h-3.267v-1.736h3.267Zm-6.533,0h-3.266v-1.736h3.266Zm15.417-3.944-1.228-1.228,2.31-2.309,1.227,1.227Zm4.619-4.619-1.227-1.227,1.635-1.636h1.672v1.736h-.954Zm15.145-1.127h-3.266v-1.736h3.266Zm-6.533,0h-3.266v-1.736H298.3Z" transform="translate(-266.385 -140.388)"/>
              </g>
              <g id="Group_964" data-name="Group 964" transform="translate(0 34.86)">
                <rect id="Rectangle_145" data-name="Rectangle 145" width="1.736" height="1.736"/>
              </g>
            </g>
            <g id="Group_966" data-name="Group 966" transform="translate(71.148)">
              <path id="Path_5105" data-name="Path 5105" d="M376.146,102.572H374.41v-5.5h-5.5V95.332h7.24Z" transform="translate(-368.906 -95.332)"/>
            </g>
          </g>
        </g>
        <g id="Group_979" data-name="Group 979" transform="translate(77.775 38.76)" opacity="0.3">
          <g id="Group_973" data-name="Group 973" transform="translate(0)">
            <g id="Group_971" data-name="Group 971" transform="translate(0 4.031)">
              <g id="Group_969" data-name="Group 969" transform="translate(0 15.604)">
                <rect id="Rectangle_146" data-name="Rectangle 146" width="1.736" height="1.736" transform="translate(0 1.227) rotate(-45.002)"/>
              </g>
              <g id="Group_970" data-name="Group 970" transform="translate(3.776)">
                <path id="Path_5106" data-name="Path 5106" d="M286.927,158.391h-3.6v-1.736h3.6Zm-7.208,0h-3.6v-1.736h3.6Zm-7.209,0H269.7l-1.072-1.071,1.227-1.227.563.563h2.09Zm18.316-1.025L289.6,156.14l2.549-2.549,1.227,1.227Zm-24.743-2.6-2.549-2.549L264.761,151l2.548,2.549Zm29.841-2.5-1.228-1.227,2.549-2.549,1.228,1.227Zm22.949-3.568h-3.521v-1.736h2.8l.059-.059.059.059h.242v.241l.927.926Zm-7.126,0h-3.6v-1.736h3.6Zm-7.208,0h-3.6v-1.736h3.6Zm17.45-3.116-1.227-1.227,2.549-2.548,1.227,1.227Zm5.1-5.1-1.227-1.227,2.549-2.549,1.227,1.227Zm5.1-5.1-1.227-1.227,2.549-2.549,1.227,1.227Z" transform="translate(-263.534 -131.616)"/>
              </g>
            </g>
            <g id="Group_972" data-name="Group 972" transform="translate(71.762)">
              <path id="Path_5107" data-name="Path 5107" d="M376.146,132.609H374.41v-5.5h-5.5v-1.736h7.24Z" transform="translate(-368.906 -125.369)"/>
            </g>
          </g>
          <g id="Group_978" data-name="Group 978" transform="translate(0)" opacity="0.3">
            <g id="Group_976" data-name="Group 976" transform="translate(0 4.031)">
              <g id="Group_974" data-name="Group 974" transform="translate(0 15.604)">
                <rect id="Rectangle_147" data-name="Rectangle 147" width="1.736" height="1.736" transform="translate(0 1.227) rotate(-45.002)"/>
              </g>
              <g id="Group_975" data-name="Group 975" transform="translate(3.776)">
                <path id="Path_5108" data-name="Path 5108" d="M286.927,158.391h-3.6v-1.736h3.6Zm-7.208,0h-3.6v-1.736h3.6Zm-7.209,0H269.7l-1.072-1.071,1.227-1.227.563.563h2.09Zm18.316-1.025L289.6,156.14l2.549-2.549,1.227,1.227Zm-24.743-2.6-2.549-2.549L264.761,151l2.548,2.549Zm29.841-2.5-1.228-1.227,2.549-2.549,1.228,1.227Zm22.949-3.568h-3.521v-1.736h2.8l.059-.059.059.059h.242v.241l.927.926Zm-7.126,0h-3.6v-1.736h3.6Zm-7.208,0h-3.6v-1.736h3.6Zm17.45-3.116-1.227-1.227,2.549-2.548,1.227,1.227Zm5.1-5.1-1.227-1.227,2.549-2.549,1.227,1.227Zm5.1-5.1-1.227-1.227,2.549-2.549,1.227,1.227Z" transform="translate(-263.534 -131.616)"/>
              </g>
            </g>
            <g id="Group_977" data-name="Group 977" transform="translate(71.762)">
              <path id="Path_5109" data-name="Path 5109" d="M376.146,132.609H374.41v-5.5h-5.5v-1.736h7.24Z" transform="translate(-368.906 -125.369)"/>
            </g>
          </g>
        </g>
      </g>
      <g id="Group_981" data-name="Group 981" transform="translate(11.517 69.134)">
        <path id="Path_5110" data-name="Path 5110" d="M148.711,195.9H138.485v-1.736h9.153l9.513-19.027L167.2,165.1h19.38l9.69-9.69h19.74v1.736H196.984l-9.69,9.69h-19.38l-9.336,9.337Z" transform="translate(-138.485 -155.407)" fill="#92e3a9"/>
      </g>
      <g id="Group_982" data-name="Group 982" transform="translate(11.517 69.134)" opacity="0.3">
        <path id="Path_5111" data-name="Path 5111" d="M148.711,195.9H138.485v-1.736h9.153l9.513-19.027L167.2,165.1h19.38l9.69-9.69h19.74v1.736H196.984l-9.69,9.69h-19.38l-9.336,9.337Z" transform="translate(-138.485 -155.407)" fill="#263238"/>
      </g>
      <g id="Group_987" data-name="Group 987" transform="translate(34.017 92.544)">
        <g id="Group_985" data-name="Group 985">
          <g id="Group_983" data-name="Group 983" transform="translate(0 1.146)">
            <rect id="Rectangle_148" data-name="Rectangle 148" width="16.423" height="16.423" rx="4.754" fill="#92e3a9"/>
            <rect id="Rectangle_149" data-name="Rectangle 149" width="16.423" height="16.423" rx="4.754" opacity="0.3"/>
          </g>
          <g id="Group_984" data-name="Group 984" transform="translate(0)">
            <rect id="Rectangle_150" data-name="Rectangle 150" width="16.423" height="16.423" rx="4.754" fill="#92e3a9"/>
            <rect id="Rectangle_151" data-name="Rectangle 151" width="16.423" height="16.423" rx="4.754" fill="#fff" opacity="0.8"/>
          </g>
        </g>
        <g id="Group_986" data-name="Group 986" transform="translate(3.862 3.537)">
          <path id="Path_5112" data-name="Path 5112" d="M179.342,199.374a2.288,2.288,0,0,1,.537-1.632,2.4,2.4,0,0,1,3.1,0,2.288,2.288,0,0,1,.537,1.632v4.552a2.571,2.571,0,0,1-.262,1.227.254.254,0,0,0,.131.156.775.775,0,0,0,.256.031h.125v1.225h-.187a1.6,1.6,0,0,1-.757-.156.964.964,0,0,1-.432-.444,2.985,2.985,0,0,1-.45.119,2.784,2.784,0,0,1-.512.044,2.032,2.032,0,0,1-1.551-.569,2.284,2.284,0,0,1-.537-1.632Zm1.376,4.64a.93.93,0,0,0,.194.669.791.791,0,0,0,1.038,0,.93.93,0,0,0,.194-.669v-4.727a.93.93,0,0,0-.194-.669.791.791,0,0,0-1.038,0,.929.929,0,0,0-.194.669Z" transform="translate(-179.342 -197.173)"/>
          <path id="Path_5113" data-name="Path 5113" d="M188.51,198.43a2.053,2.053,0,0,0,.656-.088,1.169,1.169,0,0,0,.419-.237,1.211,1.211,0,0,0,.263-.35,3.217,3.217,0,0,0,.175-.425h.926v8.754h-1.376V199.4H188.51Z" transform="translate(-182.595 -197.228)"/>
        </g>
      </g>
      <g id="Group_991" data-name="Group 991" transform="translate(92.259 93.189)">
        <g id="Group_990" data-name="Group 990">
          <g id="Group_988" data-name="Group 988" transform="translate(0 1.146)">
            <rect id="Rectangle_152" data-name="Rectangle 152" width="16.423" height="16.423" rx="4.754" fill="#92e3a9"/>
            <rect id="Rectangle_153" data-name="Rectangle 153" width="16.423" height="16.423" rx="4.754" opacity="0.3"/>
          </g>
          <g id="Group_989" data-name="Group 989" transform="translate(0)">
            <rect id="Rectangle_154" data-name="Rectangle 154" width="16.423" height="16.423" rx="4.754" fill="#92e3a9"/>
            <rect id="Rectangle_155" data-name="Rectangle 155" width="16.423" height="16.423" rx="4.754" fill="#fff" opacity="0.8"/>
          </g>
        </g>
        <path id="Path_5114" data-name="Path 5114" d="M269.887,200.558a2.284,2.284,0,0,1,.538-1.632,2.4,2.4,0,0,1,3.1,0,2.286,2.286,0,0,1,.537,1.632v4.552a2.57,2.57,0,0,1-.262,1.226.252.252,0,0,0,.131.156.776.776,0,0,0,.257.031h.124v1.226h-.187a1.6,1.6,0,0,1-.757-.157.963.963,0,0,1-.432-.443,2.911,2.911,0,0,1-.45.118,2.781,2.781,0,0,1-.512.045,2.029,2.029,0,0,1-1.55-.569,2.284,2.284,0,0,1-.538-1.632Zm1.376,4.639a.932.932,0,0,0,.193.67.793.793,0,0,0,1.038,0,.933.933,0,0,0,.193-.67v-4.727a.931.931,0,0,0-.193-.669.791.791,0,0,0-1.038,0,.931.931,0,0,0-.193.669Z" transform="translate(-265.847 -194.701)"/>
        <path id="Path_5115" data-name="Path 5115" d="M280.464,200.608a1.188,1.188,0,0,0-.194-.794.678.678,0,0,0-.519-.207.7.7,0,0,0-.518.194.925.925,0,0,0-.194.669v.937h-1.3v-.85a2.341,2.341,0,0,1,.519-1.632,2.347,2.347,0,0,1,3.064,0,2.341,2.341,0,0,1,.519,1.632,3.6,3.6,0,0,1-.219,1.294,5.061,5.061,0,0,1-.545,1.044,6.971,6.971,0,0,1-.7.87q-.375.394-.675.75a3.63,3.63,0,0,0-.475.706,1.187,1.187,0,0,0-.113.738h2.6v1.251h-3.976v-1.076a2.943,2.943,0,0,1,.2-1.126,4.03,4.03,0,0,1,.506-.894,7.632,7.632,0,0,1,.657-.763,8.085,8.085,0,0,0,.656-.757,3.906,3.906,0,0,0,.506-.881A2.862,2.862,0,0,0,280.464,200.608Z" transform="translate(-268.632 -194.701)"/>
      </g>
      <g id="Group_995" data-name="Group 995" transform="translate(150.703 92.544)">
        <g id="Group_994" data-name="Group 994">
          <g id="Group_992" data-name="Group 992" transform="translate(0 1.146)">
            <rect id="Rectangle_156" data-name="Rectangle 156" width="16.423" height="16.423" rx="4.754" fill="#92e3a9"/>
            <rect id="Rectangle_157" data-name="Rectangle 157" width="16.423" height="16.423" rx="4.754" opacity="0.3"/>
          </g>
          <g id="Group_993" data-name="Group 993" transform="translate(0)">
            <rect id="Rectangle_158" data-name="Rectangle 158" width="16.423" height="16.423" rx="4.754" fill="#92e3a9"/>
            <rect id="Rectangle_159" data-name="Rectangle 159" width="16.423" height="16.423" rx="4.754" fill="#fff" opacity="0.8"/>
          </g>
        </g>
        <path id="Path_5116" data-name="Path 5116" d="M360.477,199.558a2.29,2.29,0,0,1,.538-1.632,2.4,2.4,0,0,1,3.1,0,2.287,2.287,0,0,1,.538,1.632v4.552a2.569,2.569,0,0,1-.263,1.226.254.254,0,0,0,.131.156.777.777,0,0,0,.256.031h.126v1.226h-.188a1.6,1.6,0,0,1-.757-.157.966.966,0,0,1-.432-.443,2.928,2.928,0,0,1-.45.118,2.794,2.794,0,0,1-.513.044,2.033,2.033,0,0,1-1.551-.569,2.29,2.29,0,0,1-.538-1.632Zm1.376,4.639a.932.932,0,0,0,.194.67.793.793,0,0,0,1.038,0,.929.929,0,0,0,.194-.67v-4.727a.927.927,0,0,0-.194-.669.791.791,0,0,0-1.038,0,.93.93,0,0,0-.194.669Z" transform="translate(-356.432 -193.701)"/>
        <path id="Path_5117" data-name="Path 5117" d="M370.938,199.608a1.189,1.189,0,0,0-.194-.794.678.678,0,0,0-.519-.207.7.7,0,0,0-.519.194.927.927,0,0,0-.194.669v.563h-1.3v-.475a2.335,2.335,0,0,1,.519-1.632,2.346,2.346,0,0,1,3.063,0,2.341,2.341,0,0,1,.519,1.632v.225a1.729,1.729,0,0,1-.963,1.8,1.378,1.378,0,0,1,.744.694,2.692,2.692,0,0,1,.219,1.144v.688a2.341,2.341,0,0,1-.519,1.632,2.346,2.346,0,0,1-3.063,0,2.335,2.335,0,0,1-.519-1.632v-.725h1.3v.812a.929.929,0,0,0,.194.67.7.7,0,0,0,.519.194.69.69,0,0,0,.519-.2,1.162,1.162,0,0,0,.194-.788v-.688a1.345,1.345,0,0,0-.213-.863.854.854,0,0,0-.687-.25h-.463v-1.25h.538a.864.864,0,0,0,.607-.2.959.959,0,0,0,.219-.725Z" transform="translate(-359.177 -193.701)"/>
      </g>
    </g>
    <g id="Group_1063" data-name="Group 1063" transform="translate(126.446 53.642)">
      <g id="Group_1056" data-name="Group 1056" transform="translate(0 0)">
        <g id="Group_1006" data-name="Group 1006" transform="translate(9.508 115.272)">
          <path id="Path_5118" data-name="Path 5118" d="M253.823,303.571l1.09,9.42c-.006,25.357-.89,27.241-3.013,36.048-.737,3.069-1.647,6.488-2.709,9.555a16.144,16.144,0,0,0-.717,3l-.006.045a17.142,17.142,0,0,0-.194,2.5,33.251,33.251,0,0,1-1.471,9.588c-1.129,3.852-2.574,8.272-4.2,12.936a141.763,141.763,0,0,1-46.926,4.7l15.1-27.86a14.5,14.5,0,0,0,1.523-9.485,299.078,299.078,0,0,1-4.852-42.758c-.723-24.679.923-20.214,1.665-31.854a10.327,10.327,0,0,1,3.671-7.246l.9-.748,9.149-18.969a9.754,9.754,0,0,1,13.911-4.065l9.132,5.633a1.547,1.547,0,0,1,.724,1.136l1.223,10.483s6.644,10,7.091,13.872c.146,1.266-1.226,4.949-1.226,4.949Z" transform="translate(-195.677 -246.926)" fill="#fff"/>
          <g id="Group_1005" data-name="Group 1005" clip-path="url(#clip-path)">
            <g id="Group_998" data-name="Group 998" transform="translate(11.606 31.714)">
              <g id="Group_997" data-name="Group 997">
                <path id="Path_5119" data-name="Path 5119" d="M216.291,382.766c14.643-13.045,11.109-27.057,5.382-35.229-4.581-6.539-1.81-14.619-1.872-21.9a98.182,98.182,0,0,0-1.617-15.853c-.452-2.621-.967-5.231-1.492-7.839-.2-1.011-.186-2.008-.365-2.991-.174-.954-.826-1.867-.7-2.873,0,0-1.91,15.124-1.932,16.43-.054,3.241-.026,7.379,0,10.62.056,6.856.458,11.507.891,18.35.777,12.3,3.554,25.718,4.354,31.441C219.319,375.623,217.352,380.4,216.291,382.766Z" transform="translate(-213.666 -296.079)" fill="#92e3a9"/>
              </g>
            </g>
            <g id="Group_1000" data-name="Group 1000" transform="translate(11.606 31.714)" opacity="0.2">
              <g id="Group_999" data-name="Group 999">
                <path id="Path_5120" data-name="Path 5120" d="M216.291,382.766c14.643-13.045,11.109-27.057,5.382-35.229-4.581-6.539-1.81-14.619-1.872-21.9a98.182,98.182,0,0,0-1.617-15.853c-.452-2.621-.967-5.231-1.492-7.839-.2-1.011-.186-2.008-.365-2.991-.174-.954-.826-1.867-.7-2.873,0,0-1.91,15.124-1.932,16.43-.054,3.241-.026,7.379,0,10.62.056,6.856.458,11.507.891,18.35.777,12.3,3.554,25.718,4.354,31.441C219.319,375.623,217.352,380.4,216.291,382.766Z" transform="translate(-213.666 -296.079)" fill="#fff"/>
              </g>
            </g>
            <g id="Group_1003" data-name="Group 1003" transform="translate(25.827 5.331)">
              <g id="Group_1001" data-name="Group 1001">
                <path id="Path_5121" data-name="Path 5121" d="M247.1,256.318c-.7-1.605-3.283-1.4-4.365-.02s-1.088,3.287-1.028,5.037.094,3.649-.936,5.065c-.636.874-1.623,1.473-2.136,2.425-1.867,3.469,3.784,8.1,1.305,11.158-1.163,1.436-3.718,1.65-4.167,3.442-.5,1.985,2.029,3.178,3.57,4.525a6.149,6.149,0,0,1-.138,8.981c4.088,1.838,4.879,8.751,4.187,17.7,2.749-3.871,3.436-15.267,3.136-20.005s-1.429-9.39-1.834-14.12a46.611,46.611,0,0,1,3.406-21.818Z" transform="translate(-235.707 -255.188)" fill="#92e3a9"/>
              </g>
              <g id="Group_1002" data-name="Group 1002" opacity="0.2">
                <path id="Path_5122" data-name="Path 5122" d="M247.1,256.318c-.7-1.605-3.283-1.4-4.365-.02s-1.088,3.287-1.028,5.037.094,3.649-.936,5.065c-.636.874-1.623,1.473-2.136,2.425-1.867,3.469,3.784,8.1,1.305,11.158-1.163,1.436-3.718,1.65-4.167,3.442-.5,1.985,2.029,3.178,3.57,4.525a6.149,6.149,0,0,1-.138,8.981c4.088,1.838,4.879,8.751,4.187,17.7,2.749-3.871,3.436-15.267,3.136-20.005s-1.429-9.39-1.834-14.12a46.611,46.611,0,0,1,3.406-21.818Z" transform="translate(-235.707 -255.188)" fill="#fff"/>
              </g>
            </g>
            <g id="Group_1004" data-name="Group 1004" transform="translate(51.784 36.465)">
              <path id="Path_5123" data-name="Path 5123" d="M276.012,308.618a12.666,12.666,0,0,0,.961,5.8q2.935,8.828,5.871,17.658c.1-7.488.316-14.982.314-22.471,0-2,.578-5.539-1.995-6.115C278.789,302.962,276.292,306.784,276.012,308.618Z" transform="translate(-275.937 -303.443)" fill="#92e3a9"/>
              <path id="Path_5124" data-name="Path 5124" d="M276.012,308.618a12.666,12.666,0,0,0,.961,5.8q2.935,8.828,5.871,17.658c.1-7.488.316-14.982.314-22.471,0-2,.578-5.539-1.995-6.115C278.789,302.962,276.292,306.784,276.012,308.618Z" transform="translate(-275.937 -303.443)" fill="#fff" opacity="0.2"/>
            </g>
          </g>
        </g>
        <g id="Group_1055" data-name="Group 1055">
          <g id="Group_1053" data-name="Group 1053">
            <g id="Group_1050" data-name="Group 1050" transform="translate(7.304 7.298)">
              <g id="Group_1042" data-name="Group 1042" transform="translate(0.006 0.07)">
                <g id="Group_1041" data-name="Group 1041">
                  <g id="Group_1007" data-name="Group 1007">
                    <path id="Path_5126" data-name="Path 5126" d="M282.179,123.147c.019.471.026.942.026,1.419a44.8,44.8,0,0,1-1.632,12.027,44.336,44.336,0,0,1-4.581,10.794,1.149,1.149,0,0,0,.148-.013c-.458.787-.942,1.555-1.445,2.31l-.155.02a45.093,45.093,0,0,1-26.06,18.439l-.884.213q-.252.068-.5.116a44.6,44.6,0,0,1-9.891,1.1,45.053,45.053,0,0,1-6.962-.536,43.354,43.354,0,0,1-4.316-.89c-1.09-.284-2.161-.6-3.22-.961v.1q-1.239-.416-2.439-.91a45.1,45.1,0,0,1-18.879-14.524c-.587-.761-1.136-1.542-1.658-2.342-.348-.523-.684-1.058-1.007-1.6-.516-.852-1.007-1.716-1.465-2.607-.239-.458-.465-.916-.684-1.381-.123-.239-.232-.484-.342-.729-.161-.355-.316-.71-.471-1.071a45.025,45.025,0,0,1-3.491-17.427c0-.865.026-1.723.071-2.574.058-.981.142-1.961.265-2.923v-.006a44.948,44.948,0,0,1,17.446-30.338,45.333,45.333,0,0,1,9.807-5.671c.974-.406,1.968-.787,2.974-1.123a45.159,45.159,0,0,1,29.66.277q1.461.523,2.878,1.148a44.561,44.561,0,0,1,4.465,2.265c.026-.013.052-.019.077-.032.439.252.877.516,1.31.8s.871.555,1.3.845c.026.045.058.1.084.142q1.365.929,2.652,1.955a45.475,45.475,0,0,1,7.833,7.994c.439.574.858,1.161,1.265,1.755.071.1.142.213.213.316.348.523.7,1.039,1.026,1.574.406.665.8,1.336,1.174,2.019a.6.6,0,0,1,.032.065h.007a7.269,7.269,0,0,1,.342.645c.058.116.116.239.181.355.181.355.355.716.523,1.078a.193.193,0,0,1,.026.052l.019.039.039.077a.6.6,0,0,1,.032.065c.013.032.032.071.045.1a.2.2,0,0,1,.026.052c.065.135.123.271.187.407a44.379,44.379,0,0,1,3.62,12.485l.116,1.368c.045.458.084.923.123,1.381.026.419.052.839.071,1.258,0,.006.006.013.013.019,0,.039-.006.077-.006.116C282.172,122.831,282.179,122.992,282.179,123.147Z" transform="translate(-192.269 -79.686)" fill="#263238"/>
                  </g>
                  <path id="Path_5127" data-name="Path 5127" d="M282.179,123.147c.019.471.026.942.026,1.419a44.8,44.8,0,0,1-1.632,12.027,44.336,44.336,0,0,1-4.581,10.794,1.149,1.149,0,0,0,.148-.013c-.458.787-.942,1.555-1.445,2.31l-.155.02a45.093,45.093,0,0,1-26.06,18.439l-.884.213q-.252.068-.5.116a44.6,44.6,0,0,1-9.891,1.1,45.053,45.053,0,0,1-6.962-.536,43.354,43.354,0,0,1-4.316-.89c-1.09-.284-2.161-.6-3.22-.961v.1q-1.239-.416-2.439-.91a45.1,45.1,0,0,1-18.879-14.524c-.587-.761-1.136-1.542-1.658-2.342-.348-.523-.684-1.058-1.007-1.6-.516-.852-1.007-1.716-1.465-2.607-.239-.458-.465-.916-.684-1.381-.123-.239-.232-.484-.342-.729-.161-.355-.316-.71-.471-1.071a45.025,45.025,0,0,1-3.491-17.427c0-.865.026-1.723.071-2.574.058-.981.142-1.961.265-2.923v-.006a44.948,44.948,0,0,1,17.446-30.338,45.333,45.333,0,0,1,9.807-5.671c.974-.406,1.968-.787,2.974-1.123a45.159,45.159,0,0,1,29.66.277q1.461.523,2.878,1.148a44.561,44.561,0,0,1,4.465,2.265c.026-.013.052-.019.077-.032.439.252.877.516,1.31.8s.871.555,1.3.845c.026.045.058.1.084.142q1.365.929,2.652,1.955a45.475,45.475,0,0,1,7.833,7.994c.439.574.858,1.161,1.265,1.755.071.1.142.213.213.316.348.523.7,1.039,1.026,1.574.406.665.8,1.336,1.174,2.019a.6.6,0,0,1,.032.065l1.052,2.078a.193.193,0,0,1,.026.052l.019.039.039.077a.6.6,0,0,1,.032.065c.013.032.032.071.045.1a.2.2,0,0,1,.026.052c.065.135.123.271.187.407a44.379,44.379,0,0,1,3.62,12.485l.116,1.368c.045.458.084.923.123,1.381.026.419.052.839.071,1.258,0,.006.006.013.013.019,0,.039-.006.077-.006.116C282.172,122.831,282.179,122.992,282.179,123.147Z" transform="translate(-192.269 -79.686)" fill="#92e3a9"/>
                  <g id="Group_1031" data-name="Group 1031" transform="translate(0.071 2.368)">
                    <g id="Group_1008" data-name="Group 1008">
                      <path id="Path_5128" data-name="Path 5128" d="M244.092,120.578c-.3,0-.606.006-.91.006l-1.871.019q-2.787.019-5.6.032c-1.878.013-3.755.019-5.646.026q-2.691.01-5.388.013h-.284c0,.368-.006.742,0,1.11v.006c-.006.419-.006.839-.006,1.252v.006c.058.052.116.11.174.168-.058.064-.116.116-.174.174v.258h-.258c-.413.006-.832.006-1.245.006h1.5c1.884-.006,3.774-.006,5.652-.019h.484q2.584-.01,5.149-.032,2.807-.019,5.581-.045t5.516-.065l5.439-.077c.032-.974.065-1.949.09-2.929.245,0,.49-.006.736-.013C250.1,120.513,247.112,120.546,244.092,120.578Zm38.112,3.4c-.013.181-.032.361-.045.542-.361,4.62-.877,9.117-1.548,13.375a44.794,44.794,0,0,0,1.632-12.027c0-.477-.006-.948-.026-1.419C282.218,124.294,282.211,124.133,282.2,123.978Zm-38.112-3.4c-.3,0-.606.006-.91.006l-1.871.019q-2.787.019-5.6.032c-1.878.013-3.755.019-5.646.026q-2.691.01-5.388.013h-.284c0,.368-.006.742,0,1.11v.006c-.006.419-.006.839-.006,1.252v.006c.058.052.116.11.174.168-.058.064-.116.116-.174.174v.258h-.258c-.413.006-.832.006-1.245.006h1.5c1.884-.006,3.774-.006,5.652-.019h.484q2.584-.01,5.149-.032,2.807-.019,5.581-.045t5.516-.065l5.439-.077c.032-.974.065-1.949.09-2.929.245,0,.49-.006.736-.013C250.1,120.513,247.112,120.546,244.092,120.578Zm0,0c-.3,0-.606.006-.91.006l-1.871.019q-2.787.019-5.6.032c-1.878.013-3.755.019-5.646.026q-2.691.01-5.388.013h-.284c0,.368-.006.742,0,1.11v.006c-.006.419-.006.839-.006,1.252v.006c.058.052.116.11.174.168-.058.064-.116.116-.174.174v.258h-.258c-.413.006-.832.006-1.245.006h1.5c1.884-.006,3.774-.006,5.652-.019h.484q2.584-.01,5.149-.032,2.807-.019,5.581-.045t5.516-.065l5.439-.077c.032-.974.065-1.949.09-2.929.245,0,.49-.006.736-.013C250.1,120.513,247.112,120.546,244.092,120.578Zm0,0c-.3,0-.606.006-.91.006l-1.871.019q-2.787.019-5.6.032c-1.878.013-3.755.019-5.646.026q-2.691.01-5.388.013h-.284c0,.368-.006.742,0,1.11v.006c-.006.419-.006.839-.006,1.252v.006c.058.052.116.11.174.168-.058.064-.116.116-.174.174v.258h-.258c-.413.006-.832.006-1.245.006h1.5c1.884-.006,3.774-.006,5.652-.019h.484q2.584-.01,5.149-.032,2.807-.019,5.581-.045t5.516-.065l5.439-.077c.032-.974.065-1.949.09-2.929.245,0,.49-.006.736-.013C250.1,120.513,247.112,120.546,244.092,120.578Zm0,0c-.3,0-.606.006-.91.006l-1.871.019q-2.787.019-5.6.032c-1.878.013-3.755.019-5.646.026q-2.691.01-5.388.013h-.284c0,.368-.006.742,0,1.11v.006c-.006.419-.006.839-.006,1.252v.006c.058.052.116.11.174.168-.058.064-.116.116-.174.174v.258h-.258c-.413.006-.832.006-1.245.006h1.5c1.884-.006,3.774-.006,5.652-.019h.484q2.584-.01,5.149-.032,2.807-.019,5.581-.045t5.516-.065l5.439-.077c.032-.974.065-1.949.09-2.929.245,0,.49-.006.736-.013C250.1,120.513,247.112,120.546,244.092,120.578Zm0,0c-.3,0-.606.006-.91.006l-1.871.019q-2.787.019-5.6.032c-1.878.013-3.755.019-5.646.026q-2.691.01-5.388.013h-.284c0,.368-.006.742,0,1.11v.006c-.006.419-.006.839-.006,1.252v.006c.058.052.116.11.174.168-.058.064-.116.116-.174.174v.258h-.258c-.413.006-.832.006-1.245.006h1.5c1.884-.006,3.774-.006,5.652-.019h.484q2.584-.01,5.149-.032,2.807-.019,5.581-.045t5.516-.065l5.439-.077c.032-.974.065-1.949.09-2.929.245,0,.49-.006.736-.013C250.1,120.513,247.112,120.546,244.092,120.578Zm0,0c-.3,0-.606.006-.91.006l-1.871.019q-2.787.019-5.6.032c-1.878.013-3.755.019-5.646.026q-2.691.01-5.388.013h-.284c0,.368-.006.742,0,1.11v.006c-.006.419-.006.839-.006,1.252v.006c.058.052.116.11.174.168-.058.064-.116.116-.174.174v.258h-.258c-.413.006-.832.006-1.245.006h1.5c1.884-.006,3.774-.006,5.652-.019h.484q2.584-.01,5.149-.032,2.807-.019,5.581-.045t5.516-.065l5.439-.077c.032-.974.065-1.949.09-2.929.245,0,.49-.006.736-.013C250.1,120.513,247.112,120.546,244.092,120.578Zm0,0c-.3,0-.606.006-.91.006l-1.871.019q-2.787.019-5.6.032c-1.878.013-3.755.019-5.646.026q-2.691.01-5.388.013h-.284c0,.368-.006.742,0,1.11v.006c-.006.419-.006.839-.006,1.252v.006c.058.052.116.11.174.168-.058.064-.116.116-.174.174v.258h-.258c-.413.006-.832.006-1.245.006h1.5c1.884-.006,3.774-.006,5.652-.019h.484q2.584-.01,5.149-.032,2.807-.019,5.581-.045t5.516-.065l5.439-.077c.032-.974.065-1.949.09-2.929.245,0,.49-.006.736-.013C250.1,120.513,247.112,120.546,244.092,120.578Zm0,0c-.3,0-.606.006-.91.006l-1.871.019q-2.787.019-5.6.032c-1.878.013-3.755.019-5.646.026q-2.691.01-5.388.013h-.284c0,.368-.006.742,0,1.11v.006c-.006.419-.006.839-.006,1.252v.006c.058.052.116.11.174.168l.006.006c-.058.058-.123.116-.181.174v.258c1.884-.006,3.774-.006,5.652-.019h.484q2.584-.01,5.149-.032,2.807-.019,5.581-.045t5.516-.065l5.439-.077c.032-.974.065-1.949.09-2.929.245,0,.49-.006.736-.013C250.1,120.513,247.112,120.546,244.092,120.578Zm0,0c-.3,0-.606.006-.91.006l-1.871.019q-2.787.019-5.6.032c-1.878.013-3.755.019-5.646.026q-2.691.01-5.388.013h-.284c0,.368-.006.742,0,1.11v.006c-.006.419-.006.839-.006,1.252v.006c.058.052.116.11.174.168l.006.006c-.058.058-.123.116-.181.174v.258c1.884-.006,3.774-.006,5.652-.019h.484q2.584-.01,5.149-.032,2.807-.019,5.581-.045t5.516-.065l5.439-.077c.032-.974.065-1.949.09-2.929.245,0,.49-.006.736-.013C250.1,120.513,247.112,120.546,244.092,120.578Zm8.207-.09c.245,0,.49-.006.736-.013-2.936.039-5.923.071-8.943.1-.3,0-.606.006-.91.006l-1.871.019q-2.787.019-5.6.032c-1.878.013-3.755.019-5.646.026q-2.691.01-5.388.013h-.284c0,.368-.006.742,0,1.11v.006c-.006.419-.006.839-.006,1.252v.006c.058.052.116.11.174.168l.006.006c-.058.058-.123.116-.181.174v.258h-1.5v1.22c-.013,9.594-.026,18.678-.052,26.33,9.485-.013,18.963-.226,28.008-.652.465-3.555.871-7.413,1.2-11.491.071-.89.142-1.787.206-2.7.3-4.162.535-8.51.7-12.962-.245.006-.49.006-.736.013C252.241,122.443,252.274,121.468,252.3,120.488Zm.774-24.086c-.013-.439-.019-.877-.032-1.31-.052-1.574-.1-3.129-.168-4.671-9.659-.206-19.821-.316-30-.323.013,9.388.013,19.363.006,29.015v1.561h.006c.006.007.006.007.013,0s.006.007.013,0,.006.007.013,0,.006.007.013,0,.006.007.013,0h.006c.006.007.006.007.013,0s.006.007.013,0h.006c.006.007.006.007.013,0s.006.007.013,0,.006.007.013,0,.006.007.013,0,.006.007.013,0,.006.007.013,0h.006c.006.007.006.007.013,0h.006c.006.007.006.007.013,0s.006.007.013,0,.006.007.013,0,.006.007.013,0,.006.007.013,0,.006.007.013,0,.006.007.013,0,.006.007.013,0,.006.007.013,0,.006.007.013,0,.006.007.013,0,.006.007.013,0,.006.007.013,0,.006.007.013,0,.006.007.013,0,.006.007.013,0,.006.007.013,0,.006.007.013,0h.006c.006.007.006.007.013,0h.006c.006.007.006.007.013,0s.006.007.013,0,.006.007.013,0,.006.007.013,0,.006.007.013,0,.006.007.013,0,.006.007.013,0,.006.007.013,0,.006.007.013,0,.006.007.013,0,.006.007.013,0,.006.007.013,0,.006.007.013,0,.006.007.013,0,.006.007.013,0,.006.007.013,0,.006.007.013,0,.006.007.013,0,.006.007.013,0,.006.007.013,0,.006.007.013,0,.006.007.013,0,.006.007.013,0h.006a.018.018,0,0,0,.026,0h.006c.006.007.006.007.013,0s.006.007.013,0,.006.007.013,0h.007a.018.018,0,0,0,.026,0h.271a3.075,3.075,0,0,0,.361,0h.284q2.7,0,5.388-.013c1.89-.006,3.768-.013,5.646-.026s3.742-.019,5.6-.032l1.871-.019c.3,0,.607-.006.91-.006,3.02-.032,6.007-.065,8.943-.1C253.267,112.526,253.28,104.332,253.074,96.4Zm-8.981,24.176c-.3,0-.606.006-.91.006l-1.871.019q-2.787.019-5.6.032c-1.878.013-3.755.019-5.646.026q-2.691.01-5.388.013h-.284c0,.368-.006.742,0,1.11v.006c-.006.419-.006.839-.006,1.252v.006c.058.052.116.11.174.168l.006.006c-.058.058-.123.116-.181.174v.258c1.884-.006,3.774-.006,5.652-.019h.484q2.584-.01,5.149-.032,2.807-.019,5.581-.045t5.516-.065l5.439-.077c.032-.974.065-1.949.09-2.929.245,0,.49-.006.736-.013C250.1,120.513,247.112,120.546,244.092,120.578Zm0,0c-.3,0-.606.006-.91.006l-1.871.019q-2.787.019-5.6.032c-1.878.013-3.755.019-5.646.026q-2.691.01-5.388.013h-.284c0,.368-.006.742,0,1.11v.006c-.006.419-.006.839-.006,1.252v.006c.058.052.116.11.174.168l.006.006c-.058.058-.123.116-.181.174v.258c1.884-.006,3.774-.006,5.652-.019h.484q2.584-.01,5.149-.032,2.807-.019,5.581-.045t5.516-.065l5.439-.077c.032-.974.065-1.949.09-2.929.245,0,.49-.006.736-.013C250.1,120.513,247.112,120.546,244.092,120.578Zm0,0c-.3,0-.606.006-.91.006l-1.871.019q-2.787.019-5.6.032c-1.878.013-3.755.019-5.646.026q-2.691.01-5.388.013h-.284c0,.368-.006.742,0,1.11v.006c-.006.419-.006.839-.006,1.252v.006c.058.052.116.11.174.168l.006.006c-.058.058-.123.116-.181.174v.258c1.884-.006,3.774-.006,5.652-.019h.484q2.584-.01,5.149-.032,2.807-.019,5.581-.045t5.516-.065l5.439-.077c.032-.974.065-1.949.09-2.929.245,0,.49-.006.736-.013C250.1,120.513,247.112,120.546,244.092,120.578Zm0,0c-.3,0-.606.006-.91.006l-1.871.019q-2.787.019-5.6.032c-1.878.013-3.755.019-5.646.026q-2.691.01-5.388.013h-.284c0,.368-.006.742,0,1.11v.006c-.006.419-.006.839-.006,1.252v.006c.058.052.116.11.174.168-.058.064-.116.116-.174.174v.258h-.258c-.413.006-.832.006-1.245.006h1.5c1.884-.006,3.774-.006,5.652-.019h.484q2.584-.01,5.149-.032,2.807-.019,5.581-.045t5.516-.065l5.439-.077c.032-.974.065-1.949.09-2.929.245,0,.49-.006.736-.013C250.1,120.513,247.112,120.546,244.092,120.578Zm0,0c-.3,0-.606.006-.91.006l-1.871.019q-2.787.019-5.6.032c-1.878.013-3.755.019-5.646.026q-2.691.01-5.388.013h-.284c0,.368-.006.742,0,1.11v.006c-.006.419-.006.839-.006,1.252v.006c.058.052.116.11.174.168-.058.064-.116.116-.174.174v.258h-.258c-.413.006-.832.006-1.245.006h1.5c1.884-.006,3.774-.006,5.652-.019h.484q2.584-.01,5.149-.032,2.807-.019,5.581-.045t5.516-.065l5.439-.077c.032-.974.065-1.949.09-2.929.245,0,.49-.006.736-.013C250.1,120.513,247.112,120.546,244.092,120.578Zm0,0c-.3,0-.606.006-.91.006l-1.871.019q-2.787.019-5.6.032c-1.878.013-3.755.019-5.646.026q-2.691.01-5.388.013h-.284c0,.368-.006.742,0,1.11v.006c-.006.419-.006.839-.006,1.252v.006c.058.052.116.11.174.168-.058.064-.116.116-.174.174v.258h-.258c-.413.006-.832.006-1.245.006h1.5c1.884-.006,3.774-.006,5.652-.019h.484q2.584-.01,5.149-.032,2.807-.019,5.581-.045t5.516-.065l5.439-.077c.032-.974.065-1.949.09-2.929.245,0,.49-.006.736-.013C250.1,120.513,247.112,120.546,244.092,120.578Zm0,0c-.3,0-.606.006-.91.006l-1.871.019q-2.787.019-5.6.032c-1.878.013-3.755.019-5.646.026q-2.691.01-5.388.013h-.284c0,.368-.006.742,0,1.11v.006c-.006.419-.006.839-.006,1.252v.006c.058.052.116.11.174.168-.058.064-.116.116-.174.174v.258h-.258c-.413.006-.832.006-1.245.006h1.5c1.884-.006,3.774-.006,5.652-.019h.484q2.584-.01,5.149-.032,2.807-.019,5.581-.045t5.516-.065l5.439-.077c.032-.974.065-1.949.09-2.929.245,0,.49-.006.736-.013C250.1,120.513,247.112,120.546,244.092,120.578Zm0,0c-.3,0-.606.006-.91.006l-1.871.019q-2.787.019-5.6.032c-1.878.013-3.755.019-5.646.026q-2.691.01-5.388.013h-.284c0,.368-.006.742,0,1.11v.006c-.006.419-.006.839-.006,1.252v.006c.058.052.116.11.174.168-.058.064-.116.116-.174.174v.258h-.258c-.413.006-.832.006-1.245.006h1.5c1.884-.006,3.774-.006,5.652-.019h.484q2.584-.01,5.149-.032,2.807-.019,5.581-.045t5.516-.065l5.439-.077c.032-.974.065-1.949.09-2.929.245,0,.49-.006.736-.013C250.1,120.513,247.112,120.546,244.092,120.578Zm0,0c-.3,0-.606.006-.91.006l-1.871.019q-2.787.019-5.6.032c-1.878.013-3.755.019-5.646.026q-2.691.01-5.388.013h-.284c0,.368-.006.742,0,1.11v.006c-.006.419-.006.839-.006,1.252v.006c.058.052.116.11.174.168-.058.064-.116.116-.174.174v.258h-.258c-.413.006-.832.006-1.245.006h1.5c1.884-.006,3.774-.006,5.652-.019h.484q2.584-.01,5.149-.032,2.807-.019,5.581-.045t5.516-.065l5.439-.077c.032-.974.065-1.949.09-2.929.245,0,.49-.006.736-.013C250.1,120.513,247.112,120.546,244.092,120.578Zm0,0c-.3,0-.606.006-.91.006l-1.871.019q-2.787.019-5.6.032c-1.878.013-3.755.019-5.646.026q-2.691.01-5.388.013h-.284c0,.368-.006.742,0,1.11v.006c-.006.419-.006.839-.006,1.252v.006c.058.052.116.11.174.168-.058.064-.116.116-.174.174v.258h-.258c-.413.006-.832.006-1.245.006h1.5c1.884-.006,3.774-.006,5.652-.019h.484q2.584-.01,5.149-.032,2.807-.019,5.581-.045t5.516-.065l5.439-.077c.032-.974.065-1.949.09-2.929.245,0,.49-.006.736-.013C250.1,120.513,247.112,120.546,244.092,120.578ZM282,121.2l-.116-1.368h-.045c-7.342.245-15.569.439-24.286.574-.555.006-1.11.019-1.671.026.019-.574.039-1.155.052-1.736.258-9.394.181-19.072-.232-28.215.361.006.729.019,1.09.026.9.026,1.794.045,2.678.071l5.826.174q-1.287-1.026-2.652-1.955c-.026-.045-.058-.1-.084-.142-.432-.29-.865-.574-1.3-.845-.045,0-.084-.006-.129-.006-.935-.026-1.884-.058-2.832-.09l-2.729-.077c-.052-.961-.1-1.916-.161-2.858q-1.413-.629-2.878-1.148.116,1.945.213,3.936c-9.62-.239-19.737-.361-29.867-.368,0-1.3-.006-2.581-.006-3.845-1.007.335-2,.716-2.974,1.123-.006.9-.006,1.807-.013,2.723q-2.729.01-5.446.026a44.118,44.118,0,0,0-4.349,2.923c3.245-.026,6.517-.039,9.788-.045-.032,9.891-.039,20.434-.013,30.57-8.955-.013-17.872-.065-26.428-.174-.265,0-.529-.006-.794-.013v.006c-.123.961-.206,1.942-.265,2.923.381.013.768.019,1.155.019,4.871.077,9.859.136,14.911.168.581.006,1.161.013,1.742.013.981.006,1.968.013,2.955.013.968.006,1.942.013,2.91.013,1.271.006,2.542.006,3.82.006v.006c.026,10.046.084,19.576.161,27.544-6.82-.026-13.627-.155-20.253-.394h-.013c.523.8,1.071,1.581,1.658,2.342h.032c6.1.219,12.349.336,18.6.355.065,5.8.148,10.639.245,14.065v.1q1.2.494,2.439.91v-.1c.039-3.452.065-8.639.084-14.975,9.375-.013,18.743-.232,27.692-.671q-.339,2.342-.736,4.459v.006c-.077.452-.161.89-.245,1.323a42.744,42.744,0,0,1-3.381,11.149c-5.2.284-10.523.477-15.879.561a45.3,45.3,0,0,0,16.853-.561q.252-.048.5-.116l.884-.213c1.9-3.42,3.445-9.317,4.633-16.743,7.562-.413,14.788-.981,21.427-1.7l.155-.02c.5-.755.987-1.523,1.445-2.31a1.158,1.158,0,0,1-.148.013c-6.942.742-14.549,1.316-22.537,1.736a271.051,271.051,0,0,0,2.29-27.073c8.9-.168,17.317-.4,24.847-.7.194-.006.381-.019.568-.026l.929-.039C282.089,122.126,282.05,121.662,282,121.2Z" transform="translate(-192.379 -83.356)" fill="#92e3a9"/>
                      <path id="Path_5129" data-name="Path 5129" d="M244.092,120.578c-.3,0-.606.006-.91.006l-1.871.019q-2.787.019-5.6.032c-1.878.013-3.755.019-5.646.026q-2.691.01-5.388.013h-.284c0,.368-.006.742,0,1.11v.006c-.006.419-.006.839-.006,1.252v.006c.058.052.116.11.174.168-.058.064-.116.116-.174.174v.258h-.258c-.413.006-.832.006-1.245.006h1.5c1.884-.006,3.774-.006,5.652-.019h.484q2.584-.01,5.149-.032,2.807-.019,5.581-.045t5.516-.065l5.439-.077c.032-.974.065-1.949.09-2.929.245,0,.49-.006.736-.013C250.1,120.513,247.112,120.546,244.092,120.578Zm38.125,3.871c0-.155-.006-.316-.013-.471-.013.181-.032.361-.045.542-.361,4.62-.877,9.117-1.548,13.375a44.794,44.794,0,0,0,1.632-12.027C282.243,125.391,282.237,124.92,282.218,124.449Zm-38.125-3.871c-.3,0-.606.006-.91.006l-1.871.019q-2.787.019-5.6.032c-1.878.013-3.755.019-5.646.026q-2.691.01-5.388.013h-.284c0,.368-.006.742,0,1.11v.006c-.006.419-.006.839-.006,1.252v.006c.058.052.116.11.174.168-.058.064-.116.116-.174.174v.258h-.258c-.413.006-.832.006-1.245.006h1.5c1.884-.006,3.774-.006,5.652-.019h.484q2.584-.01,5.149-.032,2.807-.019,5.581-.045t5.516-.065l5.439-.077c.032-.974.065-1.949.09-2.929.245,0,.49-.006.736-.013C250.1,120.513,247.112,120.546,244.092,120.578Zm0,0c-.3,0-.606.006-.91.006l-1.871.019q-2.787.019-5.6.032c-1.878.013-3.755.019-5.646.026q-2.691.01-5.388.013h-.284c0,.368-.006.742,0,1.11v.006c-.006.419-.006.839-.006,1.252v.006c.058.052.116.11.174.168-.058.064-.116.116-.174.174v.258h-.258c-.413.006-.832.006-1.245.006h1.5c1.884-.006,3.774-.006,5.652-.019h.484q2.584-.01,5.149-.032,2.807-.019,5.581-.045t5.516-.065l5.439-.077c.032-.974.065-1.949.09-2.929.245,0,.49-.006.736-.013C250.1,120.513,247.112,120.546,244.092,120.578Zm0,0c-.3,0-.606.006-.91.006l-1.871.019q-2.787.019-5.6.032c-1.878.013-3.755.019-5.646.026q-2.691.01-5.388.013h-.284c0,.368-.006.742,0,1.11v.006c-.006.419-.006.839-.006,1.252v.006c.058.052.116.11.174.168-.058.064-.116.116-.174.174v.258h-.258c-.413.006-.832.006-1.245.006h1.5c1.884-.006,3.774-.006,5.652-.019h.484q2.584-.01,5.149-.032,2.807-.019,5.581-.045t5.516-.065l5.439-.077c.032-.974.065-1.949.09-2.929.245,0,.49-.006.736-.013C250.1,120.513,247.112,120.546,244.092,120.578Zm0,0c-.3,0-.606.006-.91.006l-1.871.019q-2.787.019-5.6.032c-1.878.013-3.755.019-5.646.026q-2.691.01-5.388.013h-.284c0,.368-.006.742,0,1.11v.006c-.006.419-.006.839-.006,1.252v.006c.058.052.116.11.174.168-.058.064-.116.116-.174.174v.258h-.258c-.413.006-.832.006-1.245.006h1.5c1.884-.006,3.774-.006,5.652-.019h.484q2.584-.01,5.149-.032,2.807-.019,5.581-.045t5.516-.065l5.439-.077c.032-.974.065-1.949.09-2.929.245,0,.49-.006.736-.013C250.1,120.513,247.112,120.546,244.092,120.578Zm0,0c-.3,0-.606.006-.91.006l-1.871.019q-2.787.019-5.6.032c-1.878.013-3.755.019-5.646.026q-2.691.01-5.388.013h-.284c0,.368-.006.742,0,1.11v.006c-.006.419-.006.839-.006,1.252v.006c.058.052.116.11.174.168-.058.064-.116.116-.174.174v.258h-.258c-.413.006-.832.006-1.245.006h1.5c1.884-.006,3.774-.006,5.652-.019h.484q2.584-.01,5.149-.032,2.807-.019,5.581-.045t5.516-.065l5.439-.077c.032-.974.065-1.949.09-2.929.245,0,.49-.006.736-.013C250.1,120.513,247.112,120.546,244.092,120.578Zm0,0c-.3,0-.606.006-.91.006l-1.871.019q-2.787.019-5.6.032c-1.878.013-3.755.019-5.646.026q-2.691.01-5.388.013h-.284c0,.368-.006.742,0,1.11v.006c-.006.419-.006.839-.006,1.252v.006c.058.052.116.11.174.168-.058.064-.116.116-.174.174v.258h-.258c-.413.006-.832.006-1.245.006h1.5c1.884-.006,3.774-.006,5.652-.019h.484q2.584-.01,5.149-.032,2.807-.019,5.581-.045t5.516-.065l5.439-.077c.032-.974.065-1.949.09-2.929.245,0,.49-.006.736-.013C250.1,120.513,247.112,120.546,244.092,120.578Zm0,0c-.3,0-.606.006-.91.006l-1.871.019q-2.787.019-5.6.032c-1.878.013-3.755.019-5.646.026q-2.691.01-5.388.013h-.284c0,.368-.006.742,0,1.11v.006c-.006.419-.006.839-.006,1.252v.006c.058.052.116.11.174.168-.058.064-.116.116-.174.174v.258h-.258c-.413.006-.832.006-1.245.006h1.5c1.884-.006,3.774-.006,5.652-.019h.484q2.584-.01,5.149-.032,2.807-.019,5.581-.045t5.516-.065l5.439-.077c.032-.974.065-1.949.09-2.929.245,0,.49-.006.736-.013C250.1,120.513,247.112,120.546,244.092,120.578Zm0,0c-.3,0-.606.006-.91.006l-1.871.019q-2.787.019-5.6.032c-1.878.013-3.755.019-5.646.026q-2.691.01-5.388.013h-.284c0,.368-.006.742,0,1.11v.006c-.006.419-.006.839-.006,1.252v.006c.058.052.116.11.174.168l.006.006c-.058.058-.123.116-.181.174v.258c1.884-.006,3.774-.006,5.652-.019h.484q2.584-.01,5.149-.032,2.807-.019,5.581-.045t5.516-.065l5.439-.077c.032-.974.065-1.949.09-2.929.245,0,.49-.006.736-.013C250.1,120.513,247.112,120.546,244.092,120.578Zm0,0c-.3,0-.606.006-.91.006l-1.871.019q-2.787.019-5.6.032c-1.878.013-3.755.019-5.646.026q-2.691.01-5.388.013h-.284c0,.368-.006.742,0,1.11v.006c-.006.419-.006.839-.006,1.252v.006c.058.052.116.11.174.168l.006.006c-.058.058-.123.116-.181.174v.258c1.884-.006,3.774-.006,5.652-.019h.484q2.584-.01,5.149-.032,2.807-.019,5.581-.045t5.516-.065l5.439-.077c.032-.974.065-1.949.09-2.929.245,0,.49-.006.736-.013C250.1,120.513,247.112,120.546,244.092,120.578Zm0,0c-.3,0-.606.006-.91.006l-1.871.019q-2.787.019-5.6.032c-1.878.013-3.755.019-5.646.026q-2.691.01-5.388.013h-.284c0,.368-.006.742,0,1.11v.006c-.006.419-.006.839-.006,1.252v.006c.058.052.116.11.174.168l.006.006c-.058.058-.123.116-.181.174v.258c1.884-.006,3.774-.006,5.652-.019h.484q2.584-.01,5.149-.032,2.807-.019,5.581-.045t5.516-.065l5.439-.077c.032-.974.065-1.949.09-2.929.245,0,.49-.006.736-.013C250.1,120.513,247.112,120.546,244.092,120.578Zm0,0c-.3,0-.606.006-.91.006l-1.871.019q-2.787.019-5.6.032c-1.878.013-3.755.019-5.646.026q-2.691.01-5.388.013h-.284c0,.368-.006.742,0,1.11v.006c-.006.419-.006.839-.006,1.252v.006c.058.052.116.11.174.168l.006.006c-.058.058-.123.116-.181.174v.258c1.884-.006,3.774-.006,5.652-.019h.484q2.584-.01,5.149-.032,2.807-.019,5.581-.045t5.516-.065l5.439-.077c.032-.974.065-1.949.09-2.929.245,0,.49-.006.736-.013C250.1,120.513,247.112,120.546,244.092,120.578Zm0,0c-.3,0-.606.006-.91.006l-1.871.019q-2.787.019-5.6.032c-1.878.013-3.755.019-5.646.026q-2.691.01-5.388.013h-.284c0,.368-.006.742,0,1.11v.006c-.006.419-.006.839-.006,1.252v.006c.058.052.116.11.174.168l.006.006c-.058.058-.123.116-.181.174v.258c1.884-.006,3.774-.006,5.652-.019h.484q2.584-.01,5.149-.032,2.807-.019,5.581-.045t5.516-.065l5.439-.077c.032-.974.065-1.949.09-2.929.245,0,.49-.006.736-.013C250.1,120.513,247.112,120.546,244.092,120.578Zm0,0c-.3,0-.606.006-.91.006l-1.871.019q-2.787.019-5.6.032c-1.878.013-3.755.019-5.646.026q-2.691.01-5.388.013h-.284c0,.368-.006.742,0,1.11v.006c-.006.419-.006.839-.006,1.252v.006c.058.052.116.11.174.168l.006.006c-.058.058-.123.116-.181.174v.258c1.884-.006,3.774-.006,5.652-.019h.484q2.584-.01,5.149-.032,2.807-.019,5.581-.045t5.516-.065l5.439-.077c.032-.974.065-1.949.09-2.929.245,0,.49-.006.736-.013C250.1,120.513,247.112,120.546,244.092,120.578Zm0,0c-.3,0-.606.006-.91.006l-1.871.019q-2.787.019-5.6.032c-1.878.013-3.755.019-5.646.026q-2.691.01-5.388.013h-.284c0,.368-.006.742,0,1.11v.006c-.006.419-.006.839-.006,1.252v.006c.058.052.116.11.174.168-.058.064-.116.116-.174.174v.258h-.258c-.413.006-.832.006-1.245.006h1.5c1.884-.006,3.774-.006,5.652-.019h.484q2.584-.01,5.149-.032,2.807-.019,5.581-.045t5.516-.065l5.439-.077c.032-.974.065-1.949.09-2.929.245,0,.49-.006.736-.013C250.1,120.513,247.112,120.546,244.092,120.578Zm0,0c-.3,0-.606.006-.91.006l-1.871.019q-2.787.019-5.6.032c-1.878.013-3.755.019-5.646.026q-2.691.01-5.388.013h-.284c0,.368-.006.742,0,1.11v.006c-.006.419-.006.839-.006,1.252v.006c.058.052.116.11.174.168-.058.064-.116.116-.174.174v.258h-.258c-.413.006-.832.006-1.245.006h1.5c1.884-.006,3.774-.006,5.652-.019h.484q2.584-.01,5.149-.032,2.807-.019,5.581-.045t5.516-.065l5.439-.077c.032-.974.065-1.949.09-2.929.245,0,.49-.006.736-.013C250.1,120.513,247.112,120.546,244.092,120.578Zm0,0c-.3,0-.606.006-.91.006l-1.871.019q-2.787.019-5.6.032c-1.878.013-3.755.019-5.646.026q-2.691.01-5.388.013h-.284c0,.368-.006.742,0,1.11v.006c-.006.419-.006.839-.006,1.252v.006c.058.052.116.11.174.168-.058.064-.116.116-.174.174v.258h-.258c-.413.006-.832.006-1.245.006h1.5c1.884-.006,3.774-.006,5.652-.019h.484q2.584-.01,5.149-.032,2.807-.019,5.581-.045t5.516-.065l5.439-.077c.032-.974.065-1.949.09-2.929.245,0,.49-.006.736-.013C250.1,120.513,247.112,120.546,244.092,120.578Zm0,0c-.3,0-.606.006-.91.006l-1.871.019q-2.787.019-5.6.032c-1.878.013-3.755.019-5.646.026q-2.691.01-5.388.013h-.284c0,.368-.006.742,0,1.11v.006c-.006.419-.006.839-.006,1.252v.006c.058.052.116.11.174.168-.058.064-.116.116-.174.174v.258h-.258c-.413.006-.832.006-1.245.006h1.5c1.884-.006,3.774-.006,5.652-.019h.484q2.584-.01,5.149-.032,2.807-.019,5.581-.045t5.516-.065l5.439-.077c.032-.974.065-1.949.09-2.929.245,0,.49-.006.736-.013C250.1,120.513,247.112,120.546,244.092,120.578Zm0,0c-.3,0-.606.006-.91.006l-1.871.019q-2.787.019-5.6.032c-1.878.013-3.755.019-5.646.026q-2.691.01-5.388.013h-.284c0,.368-.006.742,0,1.11v.006c-.006.419-.006.839-.006,1.252v.006c.058.052.116.11.174.168-.058.064-.116.116-.174.174v.258h-.258c-.413.006-.832.006-1.245.006h1.5c1.884-.006,3.774-.006,5.652-.019h.484q2.584-.01,5.149-.032,2.807-.019,5.581-.045t5.516-.065l5.439-.077c.032-.974.065-1.949.09-2.929.245,0,.49-.006.736-.013C250.1,120.513,247.112,120.546,244.092,120.578Zm0,0c-.3,0-.606.006-.91.006l-1.871.019q-2.787.019-5.6.032c-1.878.013-3.755.019-5.646.026q-2.691.01-5.388.013h-.284c0,.368-.006.742,0,1.11v.006c-.006.419-.006.839-.006,1.252v.006c.058.052.116.11.174.168-.058.064-.116.116-.174.174v.258h-.258c-.413.006-.832.006-1.245.006h1.5c1.884-.006,3.774-.006,5.652-.019h.484q2.584-.01,5.149-.032,2.807-.019,5.581-.045t5.516-.065l5.439-.077c.032-.974.065-1.949.09-2.929.245,0,.49-.006.736-.013C250.1,120.513,247.112,120.546,244.092,120.578Zm0,0c-.3,0-.606.006-.91.006l-1.871.019q-2.787.019-5.6.032c-1.878.013-3.755.019-5.646.026q-2.691.01-5.388.013h-.284c0,.368-.006.742,0,1.11v.006c-.006.419-.006.839-.006,1.252v.006c.058.052.116.11.174.168-.058.064-.116.116-.174.174v.258h-.258c-.413.006-.832.006-1.245.006h1.5c1.884-.006,3.774-.006,5.652-.019h.484q2.584-.01,5.149-.032,2.807-.019,5.581-.045t5.516-.065l5.439-.077c.032-.974.065-1.949.09-2.929.245,0,.49-.006.736-.013C250.1,120.513,247.112,120.546,244.092,120.578ZM282,121.2l-.116-1.368h-.045c-7.342.245-15.569.439-24.286.574-.555.006-1.11.019-1.671.026.019-.574.039-1.155.052-1.736.258-9.394.181-19.072-.232-28.215.361.006.729.019,1.09.026.9.026,1.794.045,2.678.071l5.826.174q-1.287-1.026-2.652-1.955c-.026-.045-.058-.1-.084-.142-.432-.29-.865-.574-1.3-.845-.045,0-.084-.006-.129-.006-.935-.026-1.884-.058-2.832-.09l-2.729-.077c-.052-.961-.1-1.916-.161-2.858q-1.413-.629-2.878-1.148.116,1.945.213,3.936c-9.62-.239-19.737-.361-29.867-.368,0-1.3-.006-2.581-.006-3.845-1.007.335-2,.716-2.974,1.123-.006.9-.006,1.807-.013,2.723q-2.729.01-5.446.026a44.118,44.118,0,0,0-4.349,2.923c3.245-.026,6.517-.039,9.788-.045-.032,9.891-.039,20.434-.013,30.57-8.955-.013-17.872-.065-26.428-.174-.265,0-.529-.006-.794-.013v.006c-.123.961-.206,1.942-.265,2.923.381.013.768.019,1.155.019,4.871.077,9.859.136,14.911.168.581.006,1.161.013,1.742.013.981.006,1.968.013,2.955.013.968.006,1.942.013,2.91.013,1.271.006,2.542.006,3.82.006v.006c.026,10.046.084,19.576.161,27.544-6.82-.026-13.627-.155-20.253-.394h-.013c.523.8,1.071,1.581,1.658,2.342h.032c6.1.219,12.349.336,18.6.355.065,5.8.148,10.639.245,14.065v.1q1.2.494,2.439.91v-.1c.039-3.452.065-8.639.084-14.975,9.375-.013,18.743-.232,27.692-.671q-.339,2.342-.736,4.459v.006c-.077.452-.161.89-.245,1.323a42.744,42.744,0,0,1-3.381,11.149c-5.2.284-10.523.477-15.879.561a45.3,45.3,0,0,0,16.853-.561q.252-.048.5-.116l.884-.213c1.9-3.42,3.445-9.317,4.633-16.743,7.562-.413,14.788-.981,21.427-1.7l.155-.02c.5-.755.987-1.523,1.445-2.31a1.158,1.158,0,0,1-.148.013c-6.942.742-14.549,1.316-22.537,1.736a271.051,271.051,0,0,0,2.29-27.073c8.9-.168,17.317-.4,24.847-.7.194-.006.381-.019.568-.026l.929-.039C282.089,122.126,282.05,121.662,282,121.2Zm-29.757,15.162c-.065.91-.135,1.807-.206,2.7-.329,4.078-.736,7.936-1.2,11.491-9.046.426-18.524.639-28.008.652.026-7.652.039-16.737.052-26.33v-1.22h1.5c1.884-.006,3.774-.006,5.652-.019h.484q2.584-.01,5.149-.032,2.807-.019,5.581-.045t5.516-.065l5.439-.077c.245-.006.49-.006.736-.013C252.783,127.856,252.551,132.2,252.248,136.366Zm.787-15.891c-2.936.039-5.923.071-8.943.1-.3,0-.606.006-.91.006l-1.871.019q-2.787.019-5.6.032c-1.878.013-3.755.019-5.646.026q-2.691.01-5.388.013h-.284a3.075,3.075,0,0,1-.361,0h-.271a.018.018,0,0,1-.026,0h-.007c-.006.007-.006.007-.013,0s-.006.007-.013,0-.006.007-.013,0h-.006a.018.018,0,0,1-.026,0h-.006c-.006.007-.006.007-.013,0s-.006.007-.013,0-.006.007-.013,0-.006.007-.013,0-.006.007-.013,0-.006.007-.013,0-.006.007-.013,0-.006.007-.013,0-.006.007-.013,0-.006.007-.013,0-.006.007-.013,0-.006.007-.013,0-.006.007-.013,0-.006.007-.013,0-.006.007-.013,0-.006.007-.013,0-.006.007-.013,0-.007.007-.013,0-.006.007-.013,0-.006.007-.013,0-.006.007-.013,0-.006.007-.013,0-.006.007-.013,0h-.006c-.006.007-.006.007-.013,0h-.006c-.006.007-.006.007-.013,0s-.006.007-.013,0-.006.007-.013,0-.006.007-.013,0-.006.007-.013,0-.006.007-.013,0-.006.007-.013,0-.006.007-.013,0-.006.007-.013,0-.006.007-.013,0-.006.007-.013,0-.006.007-.013,0-.006.007-.013,0-.006.007-.013,0-.006.007-.013,0-.006.007-.013,0-.006.007-.013,0-.006.007-.013,0h-.006c-.006.007-.006.007-.013,0h-.006c-.006.007-.006.007-.013,0s-.006.007-.013,0-.006.007-.013,0-.006.007-.013,0-.006.007-.013,0-.006.007-.013,0h-.006c-.006.007-.006.007-.013,0s-.006.007-.013,0h-.006c-.006.007-.006.007-.013,0s-.006.007-.013,0-.006.007-.013,0-.006.007-.013,0-.006.007-.013,0h-.006v-1.561c.006-9.652.006-19.627-.006-29.015,10.175.006,20.337.116,30,.323.065,1.542.116,3.1.168,4.671.013.432.019.871.032,1.31C253.28,104.332,253.267,112.526,253.035,120.475Z" transform="translate(-192.379 -83.356)" fill="#fff" opacity="0.8"/>
                      <path id="Path_5130" data-name="Path 5130" d="M269.691,145.426c-.161,4.452-.394,8.8-.7,12.962-.065.91-.136,1.807-.206,2.7-.329,4.078-.736,7.936-1.2,11.491-9.046.426-18.524.639-28.008.652.026-7.652.039-16.737.052-26.33v-1.22h1.5c1.884-.006,3.775-.006,5.652-.019h.484q2.584-.01,5.149-.032,2.807-.019,5.581-.045t5.517-.065l5.439-.077C269.2,145.432,269.446,145.432,269.691,145.426Z" transform="translate(-209.125 -105.378)" fill="#92e3a9"/>
                      <path id="Path_5131" data-name="Path 5131" d="M269.806,124.182c-2.936.039-5.923.071-8.943.1-.3,0-.607.006-.91.006l-1.871.019q-2.787.019-5.6.032c-1.878.013-3.755.019-5.646.026q-2.691.01-5.387.013h-.284a3.068,3.068,0,0,1-.361,0h-.271a.018.018,0,0,1-.026,0H240.5c-.006.007-.006.007-.013,0s-.006.007-.013,0-.006.007-.013,0h-.006a.018.018,0,0,1-.026,0h-.006c-.006.007-.006.007-.013,0s-.006.007-.013,0-.006.007-.013,0-.006.007-.013,0-.006.007-.013,0-.006.007-.013,0-.007.007-.013,0-.006.007-.013,0-.006.007-.013,0-.006.007-.013,0-.006.007-.013,0-.006.007-.013,0-.006.007-.013,0-.006.007-.013,0-.006.007-.013,0-.006.007-.013,0-.006.007-.013,0-.006.007-.013,0-.007.007-.013,0-.006.007-.013,0-.006.007-.013,0-.006.007-.013,0-.006.007-.013,0h-.006c-.006.007-.006.007-.013,0H240.1c-.006.007-.006.007-.013,0s-.006.007-.013,0-.007.007-.013,0-.006.007-.013,0-.006.007-.013,0-.007.007-.013,0-.006.007-.013,0-.006.007-.013,0-.006.007-.013,0-.006.007-.013,0-.006.007-.013,0-.006.007-.013,0-.006.007-.013,0-.006.007-.013,0-.006.007-.013,0-.006.007-.013,0-.006.007-.013,0-.006.007-.013,0h-.006c-.006.007-.006.007-.013,0h-.006c-.006.007-.006.007-.013,0s-.006.007-.013,0-.006.007-.013,0-.006.007-.013,0-.006.007-.013,0-.006.007-.013,0h-.006c-.006.007-.006.007-.013,0s-.006.007-.013,0h-.006c-.006.007-.006.007-.013,0s-.006.007-.013,0-.006.007-.013,0-.006.007-.013,0-.006.007-.013,0h-.006v-1.561c.006-9.652.006-19.627-.006-29.015,10.175.006,20.337.116,30,.323.065,1.542.116,3.1.168,4.671.013.432.019.871.032,1.31C270.051,108.039,270.038,116.233,269.806,124.182Z" transform="translate(-209.15 -87.064)" fill="#92e3a9"/>
                    </g>
                    <g id="Group_1012" data-name="Group 1012" transform="translate(27.927 3.658)">
                      <g id="Group_1011" data-name="Group 1011">
                        <g id="Group_1009" data-name="Group 1009" transform="translate(0 31.982)">
                          <path id="Path_5132" data-name="Path 5132" d="M238.1,142.82q-1.214-1.049-2.432-2.107L238.1,138.6q1.218,1.062,2.432,2.116Q239.31,141.77,238.1,142.82Z" transform="translate(-235.663 -138.595)" fill="#263238"/>
                        </g>
                        <g id="Group_1010" data-name="Group 1010" transform="translate(7.321)">
                          <path id="Path_5133" data-name="Path 5133" d="M282.031,90.813c-.026-.045-.058-.1-.084-.142-.432-.29-.865-.574-1.3-.845s-.871-.548-1.31-.8c-.026.013-.052.019-.077.032-.523.226-1.045.445-1.574.671-.187.084-.368.161-.555.239-.626.568-1.265,1.142-1.9,1.716l.955.839c.471.413.936.826,1.4,1.239.426-.387.852-.774,1.277-1.168.09-.077.181-.161.271-.245l3.039-1.316C282.121,90.962,282.076,90.884,282.031,90.813ZM272.424,97.1c-.542-.484-1.084-.961-1.626-1.439q-2.245,2.023-4.575,4.091c.8.71,1.6,1.413,2.394,2.123q1.945-1.752,3.839-3.465c.239-.213.477-.432.716-.645C272.927,97.549,272.675,97.323,272.424,97.1Zm-10.9,6.833q-2.371,2.11-4.787,4.245c.807.71,1.613,1.426,2.413,2.136q2.41-2.129,4.781-4.245C263.133,105.363,262.333,104.646,261.526,103.937Zm-9.639,8.523c-1.619,1.426-3.252,2.858-4.878,4.284.807.71,1.619,1.419,2.426,2.129l4.878-4.278C253.506,113.886,252.7,113.17,251.887,112.46Z" transform="translate(-247.009 -89.026)" fill="#263238"/>
                        </g>
                      </g>
                    </g>
                    <g id="Group_1021" data-name="Group 1021" transform="translate(28.994 20.647)" opacity="0.5">
                      <g id="Group_1016" data-name="Group 1016">
                        <g id="Group_1015" data-name="Group 1015">
                          <g id="Group_1013" data-name="Group 1013" transform="translate(8.666)">
                            <path id="Path_5134" data-name="Path 5134" d="M292.739,115.388c-.839-.013-1.684-.019-2.536-.032q-1.229,1.355-2.49,2.729l1.89,2.065c.581-.626,1.155-1.258,1.723-1.884.477.006.961.006,1.439.006C292.758,117.311,292.752,116.35,292.739,115.388Zm-8.665,6.594q-1.848,1.965-3.749,3.942.977,1.036,1.923,2.058,1.9-1.974,3.736-3.936C285.351,123.363,284.719,122.673,284.074,121.982Zm-33.3,10.033c-.006.994-.019,1.987-.026,2.974h.484q2.584-.01,5.149-.032c.013-.981.026-1.974.039-2.968C254.543,132,252.665,132.009,250.775,132.015Zm14.027-.084c-.3,0-.606.006-.91.006-.619.006-1.245.006-1.871.013v.006c-.019.994-.039,1.974-.058,2.955q2.778-.029,5.517-.065c.032-.974.058-1.961.077-2.942C266.64,131.918,265.718,131.925,264.8,131.931Zm13.465-.168c-.535-.568-1.077-1.136-1.619-1.71-.052-.058-.11-.11-.161-.168-.632.645-1.265,1.29-1.9,1.929-.277.006-.555.006-.839.013-.245.006-.49.013-.736.013-.026.981-.058,1.955-.09,2.929.245-.006.49-.006.736-.013.671-.013,1.342-.026,2.007-.032.929-.936,1.845-1.865,2.761-2.794C278.37,131.874,278.319,131.822,278.267,131.764Z" transform="translate(-250.749 -115.356)"/>
                          </g>
                          <g id="Group_1014" data-name="Group 1014" transform="translate(0 16.675)">
                            <path id="Path_5135" data-name="Path 5135" d="M240.329,144.178h-3.01q0-1.483,0-2.978h3.019Q240.333,142.7,240.329,144.178Z" transform="translate(-237.317 -141.2)"/>
                          </g>
                        </g>
                      </g>
                      <g id="Group_1020" data-name="Group 1020" opacity="0.2">
                        <g id="Group_1019" data-name="Group 1019">
                          <g id="Group_1017" data-name="Group 1017" transform="translate(8.666)">
                            <path id="Path_5136" data-name="Path 5136" d="M292.739,115.388c-.839-.013-1.684-.019-2.536-.032q-1.229,1.355-2.49,2.729l1.89,2.065c.581-.626,1.155-1.258,1.723-1.884.477.006.961.006,1.439.006C292.758,117.311,292.752,116.35,292.739,115.388Zm-8.665,6.594q-1.848,1.965-3.749,3.942.977,1.036,1.923,2.058,1.9-1.974,3.736-3.936C285.351,123.363,284.719,122.673,284.074,121.982Zm-33.3,10.033c-.006.994-.019,1.987-.026,2.974h.484q2.584-.01,5.149-.032c.013-.981.026-1.974.039-2.968C254.543,132,252.665,132.009,250.775,132.015Zm14.027-.084c-.3,0-.606.006-.91.006-.619.006-1.245.006-1.871.013v.006c-.019.994-.039,1.974-.058,2.955q2.778-.029,5.517-.065c.032-.974.058-1.961.077-2.942C266.64,131.918,265.718,131.925,264.8,131.931Zm13.465-.168c-.535-.568-1.077-1.136-1.619-1.71-.052-.058-.11-.11-.161-.168-.632.645-1.265,1.29-1.9,1.929-.277.006-.555.006-.839.013-.245.006-.49.013-.736.013-.026.981-.058,1.955-.09,2.929.245-.006.49-.006.736-.013.671-.013,1.342-.026,2.007-.032.929-.936,1.845-1.865,2.761-2.794C278.37,131.874,278.319,131.822,278.267,131.764Z" transform="translate(-250.749 -115.356)"/>
                          </g>
                          <g id="Group_1018" data-name="Group 1018" transform="translate(0 16.675)">
                            <path id="Path_5137" data-name="Path 5137" d="M240.329,144.178h-3.01q0-1.483,0-2.978h3.019Q240.333,142.7,240.329,144.178Z" transform="translate(-237.317 -141.2)"/>
                          </g>
                        </g>
                      </g>
                    </g>
                    <g id="Group_1030" data-name="Group 1030" transform="translate(27.932 37.76)" opacity="0.3">
                      <g id="Group_1025" data-name="Group 1025">
                        <g id="Group_1024" data-name="Group 1024">
                          <g id="Group_1022" data-name="Group 1022">
                            <path id="Path_5138" data-name="Path 5138" d="M237.8,146.078q-1.062-1.041-2.129-2.092,1.062-1.048,2.129-2.105,1.067,1.057,2.129,2.1Q238.862,145.036,237.8,146.078Z" transform="translate(-235.671 -141.88)"/>
                          </g>
                          <g id="Group_1023" data-name="Group 1023" transform="translate(6.509 1.191)">
                            <path id="Path_5139" data-name="Path 5139" d="M301.144,145.4c0-.039.006-.077.006-.116-.006-.006-.013-.013-.013-.019-.329-.406-.665-.813-1-1.219-.084-.1-.168-.213-.258-.316-.1.116-.207.226-.31.342-1.155,1.284-2.342,2.574-3.542,3.865.529.62,1.045,1.232,1.555,1.845,1.194-1.278,2.374-2.561,3.516-3.839a.28.28,0,0,0,.058-.071C301.156,145.713,301.15,145.552,301.144,145.4Zm-53.255,3.549c-.716.69-1.426,1.381-2.129,2.065q2.168,2.11,4.3,4.168,1.065-1.006,2.129-2.019Q250.056,151.078,247.888,148.946Zm44.132,3.181q-2.042,2.09-4.142,4.162c.542.594,1.071,1.187,1.594,1.774q2.091-2.052,4.123-4.123C293.078,153.346,292.549,152.74,292.02,152.127Zm-34.738,5.994c-.3-.29-.606-.587-.91-.884-.71.665-1.413,1.323-2.123,1.981l1.723,1.645c1.561-.026,3.11-.051,4.652-.084.045-.9.09-1.807.135-2.723C259.605,158.082,258.444,158.1,257.282,158.121Zm13.9-.336c-1.484.052-2.987.1-4.491.135-.058.91-.116,1.813-.181,2.7q2.255-.058,4.465-.142c.445-.013.89-.026,1.329-.045.077-.89.148-1.787.219-2.69C272.083,157.759,271.638,157.779,271.187,157.785Zm7.046-.252q-.116,1.355-.252,2.671c1.865-.077,3.71-.168,5.523-.265.1-.878.194-1.761.284-2.652C281.962,157.379,280.11,157.456,278.232,157.533Z" transform="translate(-245.759 -143.726)"/>
                          </g>
                        </g>
                      </g>
                      <g id="Group_1029" data-name="Group 1029" opacity="0.3">
                        <g id="Group_1028" data-name="Group 1028">
                          <g id="Group_1026" data-name="Group 1026">
                            <path id="Path_5140" data-name="Path 5140" d="M237.8,146.078q-1.062-1.041-2.129-2.092,1.062-1.048,2.129-2.105,1.067,1.057,2.129,2.1Q238.862,145.036,237.8,146.078Z" transform="translate(-235.671 -141.88)"/>
                          </g>
                          <g id="Group_1027" data-name="Group 1027" transform="translate(6.509 1.191)">
                            <path id="Path_5141" data-name="Path 5141" d="M301.144,145.4c0-.039.006-.077.006-.116-.006-.006-.013-.013-.013-.019-.329-.406-.665-.813-1-1.219-.084-.1-.168-.213-.258-.316-.1.116-.207.226-.31.342-1.155,1.284-2.342,2.574-3.542,3.865.529.62,1.045,1.232,1.555,1.845,1.194-1.278,2.374-2.561,3.516-3.839a.28.28,0,0,0,.058-.071C301.156,145.713,301.15,145.552,301.144,145.4Zm-53.255,3.549c-.716.69-1.426,1.381-2.129,2.065q2.168,2.11,4.3,4.168,1.065-1.006,2.129-2.019Q250.056,151.078,247.888,148.946Zm44.132,3.181q-2.042,2.09-4.142,4.162c.542.594,1.071,1.187,1.594,1.774q2.091-2.052,4.123-4.123C293.078,153.346,292.549,152.74,292.02,152.127Zm-34.738,5.994c-.3-.29-.606-.587-.91-.884-.71.665-1.413,1.323-2.123,1.981l1.723,1.645c1.561-.026,3.11-.051,4.652-.084.045-.9.09-1.807.135-2.723C259.605,158.082,258.444,158.1,257.282,158.121Zm13.9-.336c-1.484.052-2.987.1-4.491.135-.058.91-.116,1.813-.181,2.7q2.255-.058,4.465-.142c.445-.013.89-.026,1.329-.045.077-.89.148-1.787.219-2.69C272.083,157.759,271.638,157.779,271.187,157.785Zm7.046-.252q-.116,1.355-.252,2.671c1.865-.077,3.71-.168,5.523-.265.1-.878.194-1.761.284-2.652C281.962,157.379,280.11,157.456,278.232,157.533Z" transform="translate(-245.759 -143.726)"/>
                          </g>
                        </g>
                      </g>
                    </g>
                  </g>
                  <g id="Group_1040" data-name="Group 1040" transform="translate(33.654 75.637)">
                    <g id="Group_1038" data-name="Group 1038">
                      <g id="Group_1034" data-name="Group 1034" transform="translate(0 1.348)">
                        <g id="Group_1032" data-name="Group 1032">
                          <path id="Path_5142" data-name="Path 5142" d="M269.1,202.142c-.142.613-.3,1.194-.452,1.761l-.032.123c-.052.194-.1.374-.155.561-.194.684-.387,1.336-.594,1.955-.039.09-.065.181-.1.271-.039.116-.077.226-.116.335s-.077.219-.116.329q-.077.242-.174.465c-.271.716-.548,1.368-.839,1.961-.116.245-.239.477-.361.7-.019.026-.032.052-.058.084q-.252.068-.5.116a44.6,44.6,0,0,1-9.891,1.1,45.052,45.052,0,0,1-6.962-.535,43.35,43.35,0,0,1-4.316-.89c.013-.219.032-.445.045-.684q.029-.445.058-.929t.058-1.007c.019-.348.039-.71.052-1.084.006-.187.019-.374.026-.568.045-1.007.09-2.1.135-3.265.052-1.768,2.22-3.4,4.839-3.439,5.284-.09,10.517-.252,15.64-.49a4.523,4.523,0,0,1,2.723.645A2.244,2.244,0,0,1,269.1,202.142Z" transform="translate(-244.429 -199.006)" fill="#92e3a9"/>
                        </g>
                        <g id="Group_1033" data-name="Group 1033" opacity="0.3">
                          <path id="Path_5143" data-name="Path 5143" d="M269.1,202.142c-.142.613-.3,1.194-.452,1.761l-.032.123c-.052.194-.1.374-.155.561-.194.684-.387,1.336-.594,1.955-.039.09-.065.181-.1.271-.039.116-.077.226-.116.335s-.077.219-.116.329q-.077.242-.174.465c-.271.716-.548,1.368-.839,1.961-.116.245-.239.477-.361.7-.019.026-.032.052-.058.084q-.252.068-.5.116a44.6,44.6,0,0,1-9.891,1.1,45.052,45.052,0,0,1-6.962-.535,43.35,43.35,0,0,1-4.316-.89c.013-.219.032-.445.045-.684q.029-.445.058-.929t.058-1.007c.019-.348.039-.71.052-1.084.006-.187.019-.374.026-.568.045-1.007.09-2.1.135-3.265.052-1.768,2.22-3.4,4.839-3.439,5.284-.09,10.517-.252,15.64-.49a4.523,4.523,0,0,1,2.723.645A2.244,2.244,0,0,1,269.1,202.142Z" transform="translate(-244.429 -199.006)"/>
                        </g>
                      </g>
                      <g id="Group_1037" data-name="Group 1037">
                        <g id="Group_1035" data-name="Group 1035">
                          <path id="Path_5144" data-name="Path 5144" d="M269.379,200.187c-.09.413-.187.819-.284,1.213-.142.613-.3,1.194-.452,1.761l-.032.123c-.052.194-.1.374-.155.561-.194.684-.387,1.336-.594,1.955-.071.206-.135.407-.213.607-.032.11-.077.219-.116.329q-.077.242-.174.465c-.271.716-.548,1.368-.839,1.961a2.387,2.387,0,0,1-.923.9,44.6,44.6,0,0,1-9.891,1.1,45.05,45.05,0,0,1-6.962-.536,43.359,43.359,0,0,1-4.316-.89c.013-.219.032-.445.045-.684q.029-.445.058-.929t.058-1.007c.019-.348.039-.71.052-1.084.006-.187.019-.374.026-.568.045-1.007.09-2.1.135-3.265q.019-.6.039-1.219c.052-1.839,2.239-3.529,4.884-3.568,5.323-.09,10.607-.252,15.775-.49a4.581,4.581,0,0,1,2.749.665v.006A2.4,2.4,0,0,1,269.379,200.187Z" transform="translate(-244.429 -196.916)" fill="#92e3a9"/>
                        </g>
                        <g id="Group_1036" data-name="Group 1036" opacity="0.8">
                          <path id="Path_5145" data-name="Path 5145" d="M269.379,200.187c-.09.413-.187.819-.284,1.213-.142.613-.3,1.194-.452,1.761l-.032.123c-.052.194-.1.374-.155.561-.194.684-.387,1.336-.594,1.955-.071.206-.135.407-.213.607-.032.11-.077.219-.116.329q-.077.242-.174.465c-.271.716-.548,1.368-.839,1.961a2.387,2.387,0,0,1-.923.9,44.6,44.6,0,0,1-9.891,1.1,45.05,45.05,0,0,1-6.962-.536,43.359,43.359,0,0,1-4.316-.89c.013-.219.032-.445.045-.684q.029-.445.058-.929t.058-1.007c.019-.348.039-.71.052-1.084.006-.187.019-.374.026-.568.045-1.007.09-2.1.135-3.265q.019-.6.039-1.219c.052-1.839,2.239-3.529,4.884-3.568,5.323-.09,10.607-.252,15.775-.49a4.581,4.581,0,0,1,2.749.665v.006A2.4,2.4,0,0,1,269.379,200.187Z" transform="translate(-244.429 -196.916)" fill="#fff"/>
                        </g>
                      </g>
                    </g>
                    <g id="Group_1039" data-name="Group 1039" transform="translate(5.803 4.277)">
                      <path id="Path_5146" data-name="Path 5146" d="M259.3,210.087c.258-1.174.51-2.51.742-3.987a1.593,1.593,0,0,0-.555-1.619,3.433,3.433,0,0,0-2.239-.536,4.256,4.256,0,0,0-2.381.658,2.229,2.229,0,0,0-.961,1.665q-.223,2.216-.465,3.981a1.058,1.058,0,0,0,.561,1.174,4.093,4.093,0,0,0,2.052.336c.252-.006.49-.019.71-.045s.432-.058.632-.1a.908.908,0,0,0,.516.271,3.724,3.724,0,0,0,1,.071c.084,0,.168-.006.252-.006.077-.264.155-.542.226-.832-.058,0-.11.006-.168.006a2.667,2.667,0,0,1-.348-.006.214.214,0,0,1-.155-.11A1.629,1.629,0,0,0,259.3,210.087Zm-1.258-4.013c-.213,1.542-.439,2.929-.677,4.142a.683.683,0,0,1-.374.51,1.73,1.73,0,0,1-.748.161,1.329,1.329,0,0,1-.7-.123.428.428,0,0,1-.181-.5c.206-1.207.4-2.594.581-4.136a.861.861,0,0,1,.361-.671,1.476,1.476,0,0,1,.794-.213,1.144,1.144,0,0,1,.742.174A.639.639,0,0,1,258.04,206.074Z" transform="translate(-253.423 -203.686)"/>
                      <path id="Path_5147" data-name="Path 5147" d="M270.561,204.049a3.067,3.067,0,0,0-2.142-.5,4.218,4.218,0,0,0-2.361.69,2.5,2.5,0,0,0-1.032,1.671c-.045.277-.1.548-.142.813.626-.026,1.252-.045,1.877-.071.058-.3.116-.594.174-.9a.975.975,0,0,1,.4-.671,1.543,1.543,0,0,1,.8-.226,1.056,1.056,0,0,1,.716.174c.161.129.2.394.123.774a2.383,2.383,0,0,1-.516,1.065,4.829,4.829,0,0,1-.9.826,11.579,11.579,0,0,1-1.084.7,12.6,12.6,0,0,0-1.071.677,5.066,5.066,0,0,0-.878.742,1.963,1.963,0,0,0-.5.852c-.064.265-.135.516-.206.755q2.71-.1,5.381-.232c.11-.277.213-.574.316-.884-1.181.058-2.368.117-3.562.161a.782.782,0,0,1,.31-.561,5.816,5.816,0,0,1,.813-.581q.493-.31,1.1-.658a10.784,10.784,0,0,0,1.181-.794,5.962,5.962,0,0,0,1-.974,2.886,2.886,0,0,0,.6-1.239A1.536,1.536,0,0,0,270.561,204.049Z" transform="translate(-257.112 -203.545)"/>
                    </g>
                  </g>
                </g>
              </g>
              <g id="Group_1045" data-name="Group 1045" transform="translate(0.077 38.142)">
                <g id="Group_1044" data-name="Group 1044" transform="translate(0 1.438)">
                  <g id="Group_1043" data-name="Group 1043">
                    <path id="Path_5148" data-name="Path 5148" d="M221.375,141.1v2.981h-1.5c-1.271-.006-2.549-.006-3.82-.013-.968,0-1.942-.006-2.91-.013-.987,0-1.974-.006-2.955-.013-.581,0-1.161-.006-1.742-.013-5.052-.032-10.039-.09-14.911-.168-.387,0-.774-.006-1.155-.019.058-.981.142-1.961.265-2.923.265,0,.529.006.794.006,8.555.11,17.472.161,26.428.174Z" transform="translate(-192.379 -140.921)" fill="#263238"/>
                  </g>
                </g>
                <circle id="Ellipse_25" data-name="Ellipse 25" cx="3.169" cy="3.169" r="3.169" transform="translate(25.826)" fill="#263238"/>
              </g>
              <g id="Group_1049" data-name="Group 1049">
                <path id="Path_5149" data-name="Path 5149" d="M282.26,124.58a44.88,44.88,0,1,1-5.194-21A45.005,45.005,0,0,1,282.26,124.58Z" transform="translate(-192.26 -79.577)" fill="#fff" opacity="0.2"/>
                <g id="Group_1048" data-name="Group 1048">
                  <g id="Group_1046" data-name="Group 1046" transform="translate(44.997 45.003)">
                    <path id="Path_5150" data-name="Path 5150" d="M307,149.327a45.005,45.005,0,0,1-45,45Z" transform="translate(-262 -149.327)" fill="#fff" opacity="0.2"/>
                  </g>
                  <g id="Group_1047" data-name="Group 1047">
                    <path id="Path_5151" data-name="Path 5151" d="M193.5,135.129A45.037,45.037,0,0,1,249.85,81.362Z" transform="translate(-192.26 -79.577)" fill="#fff" opacity="0.2"/>
                  </g>
                  <path id="Path_5152" data-name="Path 5152" d="M284.023,110.929l-62.017,60.153a45.068,45.068,0,0,1-10.136-7.872L276.216,100.3A44.833,44.833,0,0,1,284.023,110.929Z" transform="translate(-199.218 -86.928)" fill="#fff" opacity="0.2"/>
                </g>
              </g>
            </g>
            <g id="Group_1052" data-name="Group 1052">
              <path id="Path_5153" data-name="Path 5153" d="M273.638,219.814,255.488,233.1H240.08l-18.143-13.289Z" transform="translate(-195.485 -122.034)" fill="#c9cccd" stroke="#263238" stroke-linecap="round" stroke-linejoin="round" stroke-width="1"/>
              <g id="Group_1051" data-name="Group 1051">
                <path id="Path_5154" data-name="Path 5154" d="M233.24,68.266a52.309,52.309,0,0,0-25.847,97.781h.006a52.3,52.3,0,1,0,25.84-97.781Zm0,97.3a45,45,0,1,1,45-45A45,45,0,0,1,233.24,165.57Z" transform="translate(-180.94 -68.266)" fill="#c9cccd" stroke="#263238" stroke-linecap="round" stroke-linejoin="round" stroke-width="1"/>
              </g>
              <rect id="Rectangle_160" data-name="Rectangle 160" width="14.719" height="91.657" transform="translate(44.595 111.069)" fill="#263238"/>
            </g>
          </g>
          <g id="Group_1054" data-name="Group 1054" transform="translate(11.714 12.465)">
            <path id="Path_5155" data-name="Path 5155" d="M246.68,88.712a40.278,40.278,0,0,1,9.486-1.127" transform="translate(-215.978 -87.585)" fill="none" stroke="#263238" stroke-miterlimit="10" stroke-width="1"/>
            <path id="Path_5156" data-name="Path 5156" d="M199.1,129.74a40.194,40.194,0,0,1,23.593-36.613" transform="translate(-199.095 -89.551)" fill="none" stroke="#263238" stroke-miterlimit="10" stroke-width="1"/>
          </g>
        </g>
        <path id="Path_5157" data-name="Path 5157" d="M271.412,309.411c-6.888-18.981-6.855-22.058-7.256-33.555-.125-3.588-.056-7.222-.907-10.71s-2.991-8.062-6.542-8.59c-2.613-.389-5.2,1.3-6.591,3.547a17.308,17.308,0,0,0-2.069,7.577,72.724,72.724,0,0,0,1.905,25.077c-2.541,5.835-1.573,10.206-3.165,19.1v37.452h22.928S275.889,321.748,271.412,309.411Z" transform="translate(-204.302 -135.05)" fill="#fff"/>
      </g>
      <g id="Group_1062" data-name="Group 1062" transform="translate(9.508 115.272)">
        <path id="Path_5158" data-name="Path 5158" d="M270.837,349.241s5.052-27.493.576-39.831c-6.888-18.981-6.855-22.058-7.256-33.555-.125-3.588-.056-7.222-.907-10.71s-2.991-8.062-6.542-8.59c-2.613-.389-5.2,1.3-6.591,3.547a17.308,17.308,0,0,0-2.069,7.577,72.724,72.724,0,0,0,1.905,25.077c-2.541,5.835-1.573,10.206-3.165,19.1" transform="translate(-213.811 -250.322)" fill="none" stroke="#263238" stroke-linecap="round" stroke-linejoin="round" stroke-width="1"/>
        <path id="Path_5159" data-name="Path 5159" d="M275.552,275.976a6.25,6.25,0,0,1-1.73,5.991" transform="translate(-223.402 -257.233)" fill="#fff" stroke="#263238" stroke-linecap="round" stroke-linejoin="round" stroke-width="1"/>
        <g id="Group_1059" data-name="Group 1059" transform="translate(13.087 4.709)">
          <path id="Path_5160" data-name="Path 5160" d="M261.881,262.487a21.018,21.018,0,0,1,.024,5.5,15.007,15.007,0,0,1-8.68.3,10,10,0,0,1-.179-5" transform="translate(-229.035 -257.156)" fill="#fff" stroke="#263238" stroke-linecap="round" stroke-linejoin="round" stroke-width="1"/>
          <path id="Path_5161" data-name="Path 5161" d="M254.359,323.246c.27,1.077.437,1.745.629,2.521" transform="translate(-229.584 -278.713)" fill="#fff" stroke="#263238" stroke-linecap="round" stroke-linejoin="round" stroke-width="1"/>
          <path id="Path_5162" data-name="Path 5162" d="M251.03,309.974c.214.868,1.094,4.362,1.873,7.465" transform="translate(-228.403 -274.004)" fill="#fff" stroke="#263238" stroke-linecap="round" stroke-linejoin="round" stroke-width="1"/>
          <path id="Path_5163" data-name="Path 5163" d="M274.7,323.054c.027,1.357.075,2.593.16,3.642" transform="translate(-236.8 -278.644)" fill="#fff" stroke="#263238" stroke-linecap="round" stroke-linejoin="round" stroke-width="1"/>
          <path id="Path_5164" data-name="Path 5164" d="M274.2,296.559c.385,4.744.223,9.925.284,14.908" transform="translate(-236.623 -269.244)" fill="#fff" stroke="#263238" stroke-linecap="round" stroke-linejoin="round" stroke-width="1"/>
          <path id="Path_5165" data-name="Path 5165" d="M282.634,303.6a78.843,78.843,0,0,1-5.7,6.743" transform="translate(-237.592 -271.741)" fill="#fff" stroke="#263238" stroke-linecap="round" stroke-linejoin="round" stroke-width="1"/>
          <path id="Path_5166" data-name="Path 5166" d="M280.667,323.945a11.616,11.616,0,0,0,3.015-3.106" transform="translate(-238.918 -277.859)" fill="#fff" stroke="#263238" stroke-linecap="round" stroke-linejoin="round" stroke-width="1"/>
          <g id="Group_1058" data-name="Group 1058">
            <path id="Path_5167" data-name="Path 5167" d="M217.487,321.181c1.146,4.544-1.481,9.272-.966,13.93" transform="translate(-216.135 -277.98)" fill="none" stroke="#263238" stroke-linecap="round" stroke-linejoin="round" stroke-width="1"/>
            <path id="Path_5168" data-name="Path 5168" d="M215.96,304.99c.275,2.68.485,4.723.76,7.4" transform="translate(-215.96 -272.235)" fill="none" stroke="#263238" stroke-linecap="round" stroke-linejoin="round" stroke-width="1"/>
            <path id="Path_5169" data-name="Path 5169" d="M232.024,385.551q.75,1.137,1.512,2.221" transform="translate(-221.659 -300.818)" fill="none" stroke="#263238" stroke-linecap="round" stroke-linejoin="round" stroke-width="1"/>
            <path id="Path_5170" data-name="Path 5170" d="M217.343,351.012c.152,5.2,3.691,12.985,7.961,19.914" transform="translate(-216.451 -288.564)" fill="none" stroke="#263238" stroke-linecap="round" stroke-linejoin="round" stroke-width="1"/>
            <g id="Group_1057" data-name="Group 1057" transform="translate(14.573)">
              <path id="Path_5171" data-name="Path 5171" d="M254.924,277.05l7.177-.545" transform="translate(-244.357 -262.129)" fill="none" stroke="#263238" stroke-linecap="round" stroke-linejoin="round" stroke-width="1"/>
              <path id="Path_5172" data-name="Path 5172" d="M250.968,282.023c-1.985,1.023,7.8-2.373,8.24-2.414" transform="translate(-242.86 -263.23)" fill="none" stroke="#263238" stroke-linecap="round" stroke-linejoin="round" stroke-width="1"/>
              <path id="Path_5173" data-name="Path 5173" d="M253.953,286.88c-.725.381,7.061-1.388,8.686-.941" transform="translate(-243.996 -265.45)" fill="none" stroke="#263238" stroke-linecap="round" stroke-linejoin="round" stroke-width="1"/>
              <path id="Path_5174" data-name="Path 5174" d="M253.642,295.486a16.137,16.137,0,0,0,9.2-1.833" transform="translate(-243.903 -268.213)" fill="none" stroke="#263238" stroke-linecap="round" stroke-linejoin="round" stroke-width="1"/>
              <path id="Path_5175" data-name="Path 5175" d="M247.991,254.224c.995,1.754,2.34,2.965,2.383,4.981" transform="translate(-241.898 -254.224)" fill="none" stroke="#263238" stroke-linecap="round" stroke-linejoin="round" stroke-width="1"/>
              <path id="Path_5176" data-name="Path 5176" d="M241.918,270.873a36,36,0,0,1,3.834,3.523" transform="translate(-239.743 -260.131)" fill="none" stroke="#263238" stroke-linecap="round" stroke-linejoin="round" stroke-width="1"/>
              <path id="Path_5177" data-name="Path 5177" d="M274.2,295.06a5.177,5.177,0,0,1,4.722.173" transform="translate(-251.196 -268.54)" fill="#fff" stroke="#263238" stroke-linecap="round" stroke-linejoin="round" stroke-width="1"/>
              <path id="Path_5178" data-name="Path 5178" d="M238.547,296.559c1.912.668,4.26,2.136,7.009,3.1" transform="translate(-238.547 -269.244)" fill="none" stroke="#263238" stroke-linecap="round" stroke-linejoin="round" stroke-width="1"/>
              <path id="Path_5179" data-name="Path 5179" d="M246.359,309.706l-4.465,3.414" transform="translate(-239.734 -273.909)" fill="none" stroke="#263238" stroke-linecap="round" stroke-linejoin="round" stroke-width="1"/>
            </g>
          </g>
        </g>
        <path id="Path_5180" data-name="Path 5180" d="M262.657,450.671a125.238,125.238,0,0,0,9.581-26.021" transform="translate(-219.441 -309.981)" fill="#fff" stroke="#263238" stroke-linecap="round" stroke-linejoin="round" stroke-width="1"/>
        <g id="Group_1061" data-name="Group 1061">
          <g id="Group_1060" data-name="Group 1060" clip-path="url(#clip-path-2)">
            <path id="Path_5181" data-name="Path 5181" d="M278.321,401.767c-.988,3.14-3.6,13.344-3.951,13.82a108.3,108.3,0,0,1,1.069-12.911,30.861,30.861,0,0,1,2.042-7.529c1.325-3.212,3.488-8.664,5.514-14.715A155.221,155.221,0,0,1,278.321,401.767Z" transform="translate(-223.594 -294.293)" fill="#263238"/>
          </g>
          <path id="Path_5183" data-name="Path 5183" d="M242.6,386.667c1.626-4.665,3.071-9.085,4.2-12.936a33.251,33.251,0,0,0,1.471-9.588,17.142,17.142,0,0,1,.194-2.5l.006-.045a16.144,16.144,0,0,1,.717-3c1.061-3.067,1.971-6.486,2.709-9.555,2.123-8.807,3.007-10.691,3.013-36.048l-1.09-9.42-.135-19.117s1.372-3.683,1.226-4.949c-.446-3.869-7.091-13.872-7.091-13.872L246.6,255.15a1.547,1.547,0,0,0-.724-1.136l-9.132-5.633a9.752,9.752,0,0,0-13.911,4.065l-9.149,18.969-.9.748a10.327,10.327,0,0,0-3.671,7.246c-.742,11.639-2.387,7.175-1.665,31.854A299.078,299.078,0,0,0,212.3,354.02a14.5,14.5,0,0,1-1.523,9.485l-15.1,27.86" transform="translate(-195.677 -246.926)" fill="none" stroke="#263238" stroke-linecap="round" stroke-linejoin="round" stroke-width="1"/>
        </g>
      </g>
    </g>
  </g>
</svg>